<?xml version="1.0" encoding="UTF-8" standalone="no"?>
<svg
   xmlns:dc="http://purl.org/dc/elements/1.1/"
   xmlns:cc="http://creativecommons.org/ns#"
   xmlns:rdf="http://www.w3.org/1999/02/22-rdf-syntax-ns#"
   xmlns:svg="http://www.w3.org/2000/svg"
   xmlns="http://www.w3.org/2000/svg"
   xmlns:sodipodi="http://sodipodi.sourceforge.net/DTD/sodipodi-0.dtd"
   xmlns:inkscape="http://www.inkscape.org/namespaces/inkscape"
   version="1.1"
   id="Layer_1"
   x="0px"
   y="0px"
   viewBox="0 0 118.43 174.38"
   xml:space="preserve"
   sodipodi:docname="360_Icon.svg"
   width="118.43"
   height="174.38"
   inkscape:version="1.0.2 (e86c870879, 2021-01-15)"><metadata
   id="metadata57"><rdf:RDF><cc:Work
       rdf:about=""><dc:format>image/svg+xml</dc:format><dc:type
         rdf:resource="http://purl.org/dc/dcmitype/StillImage" /><dc:title></dc:title></cc:Work></rdf:RDF></metadata><defs
   id="defs55" /><sodipodi:namedview
   pagecolor="#ffffff"
   bordercolor="#666666"
   borderopacity="1"
   objecttolerance="10"
   gridtolerance="10"
   guidetolerance="10"
   inkscape:pageopacity="0"
   inkscape:pageshadow="2"
   inkscape:window-width="1920"
   inkscape:window-height="991"
   id="namedview53"
   showgrid="false"
   fit-margin-top="0"
   fit-margin-left="0"
   fit-margin-right="0"
   fit-margin-bottom="0"
   inkscape:zoom="3.7333333"
   inkscape:cx="59.336297"
   inkscape:cy="101.79"
   inkscape:window-x="-10"
   inkscape:window-y="210"
   inkscape:window-maximized="1"
   inkscape:current-layer="Layer_1"
   inkscape:document-rotation="0" />
<style
   type="text/css"
   id="style2">
	.st0{fill:#3EB8EA;}
	.st1{stroke:#FFFFFF;stroke-miterlimit:10;}
	.st2{fill:#FFFFFF;}
</style>


<path
   class="st0"
   d="m 118.3863,61.09 c 0.03,-0.67 0.05,-1.33 0.05,-1.98 C 118.4363,26.46 91.966297,0 59.326297,0 c -32.64,0 -59.12,26.47 -59.12,59.11 0,0 -6.9,27.59 59.11,115.27 0,0 40.41,-51.91 54.410003,-92.12 2.78,-6.53 4.41,-13.67 4.66,-21.17 z"
   id="path4" /><path
   class="st1"
   d="M 95.846297,52.73"
   id="path6" /><g
   id="g50"
   transform="translate(-48.663703,-33.21)">
	<g
   id="g34">
		<path
   class="st2"
   d="m 99.71,124.96 c -0.15,-0.01 -0.3,-0.03 -0.44,-0.04 -0.46,-0.03 -0.92,-0.05 -1.41,-0.08 0.1,-1.22 0.2,-2.41 0.3,-3.63 1.91,0.15 3.8,0.14 5.72,-0.07 0.13,1.2 0.26,2.39 0.39,3.61 -0.29,0.03 -0.56,0.07 -0.84,0.08 -0.57,0.04 -1.15,0.06 -1.72,0.09 -0.03,0 -0.06,0.02 -0.09,0.03 -0.63,0.01 -1.27,0.01 -1.91,0.01 z"
   id="path8" />
		<path
   class="st2"
   d="m 101.17,59 c 0.2,0.01 0.41,0.03 0.61,0.04 0.3,0.02 0.61,0.03 0.94,0.04 -0.07,1.21 -0.15,2.41 -0.22,3.59 -0.97,0 -1.92,-0.03 -2.88,0.01 -0.94,0.03 -1.89,0.13 -2.85,0.19 -0.16,-1.17 -0.31,-2.36 -0.47,-3.58 0.6,-0.06 1.17,-0.13 1.75,-0.17 0.67,-0.05 1.34,-0.06 2.01,-0.1 0.04,0 0.08,-0.02 0.11,-0.03 0.33,0.01 0.66,0.01 1,0.01 z"
   id="path10" />
		<path
   class="st2"
   d="m 112.15,69.87 c 0.39,-0.06 0.74,-0.12 1.09,-0.17 1.53,-0.24 3.05,-0.48 4.58,-0.72 0.28,-0.04 0.57,-0.08 0.85,-0.14 0.08,-0.02 0.17,-0.06 0.23,-0.12 0.82,-0.81 1.43,-1.77 2.09,-2.71 0.65,-0.93 1.31,-1.86 1.96,-2.79 0.02,-0.03 0.05,-0.07 0.1,-0.13 0.87,5.44 1.73,10.85 2.6,16.28 0.1,0.09 -9,-6.33 -13.5,-9.5 z"
   id="path12" />
		<path
   class="st2"
   d="m 67.79,89.55 c 1.22,0.09 2.41,0.18 3.63,0.26 -0.14,1.91 -0.09,3.8 0.13,5.72 -1.2,0.15 -2.39,0.29 -3.61,0.44 -0.26,-2.14 -0.3,-4.26 -0.15,-6.42 z"
   id="path14" />
		<path
   class="st2"
   d="m 71.17,77.24 c 1.09,0.54 2.16,1.08 3.25,1.63 -0.85,1.72 -1.53,3.48 -2.05,5.34 -1.17,-0.32 -2.33,-0.64 -3.51,-0.96 0.58,-2.09 1.35,-4.09 2.31,-6.01 z"
   id="path16" />
		<path
   class="st2"
   d="m 69.32,102.23 c 1.16,-0.38 2.3,-0.75 3.46,-1.13 0.6,1.82 1.36,3.56 2.3,5.23 -1.06,0.6 -2.11,1.18 -3.17,1.78 -1.06,-1.87 -1.91,-3.82 -2.59,-5.88 z"
   id="path18" />
		<path
   class="st2"
   d="m 108.12,63.61 c 0.31,-1.18 0.61,-2.33 0.92,-3.52 2.09,0.54 4.08,1.28 6.03,2.23 -0.53,1.1 -1.06,2.18 -1.59,3.27 -1.72,-0.83 -3.5,-1.49 -5.36,-1.98 z"
   id="path20" />
		<path
   class="st2"
   d="m 82.46,114.98 c -0.76,0.96 -1.5,1.9 -2.26,2.85 -1.69,-1.34 -3.22,-2.82 -4.63,-4.46 0.93,-0.79 1.84,-1.57 2.77,-2.36 1.25,1.45 2.61,2.77 4.12,3.97 z"
   id="path22" />
		<path
   class="st2"
   d="m 117.84,114.98 c 0.76,0.96 1.5,1.9 2.26,2.85 1.69,-1.34 3.22,-2.82 4.63,-4.46 -0.93,-0.79 -1.84,-1.57 -2.77,-2.36 -1.25,1.45 -2.61,2.77 -4.12,3.97 z"
   id="path24" />
		<path
   class="st2"
   d="m 91.23,64.21 c -1.82,0.62 -3.55,1.41 -5.21,2.36 -0.61,-1.05 -1.21,-2.09 -1.82,-3.15 1.86,-1.08 3.8,-1.95 5.86,-2.66 0.39,1.15 0.78,2.29 1.17,3.45 z"
   id="path26" />
		<path
   class="st2"
   d="m 78.99,67.14 c 0.8,0.92 1.59,1.82 2.39,2.74 -1.44,1.27 -2.75,2.65 -3.93,4.16 -0.96,-0.75 -1.91,-1.48 -2.88,-2.23 1.34,-1.7 2.8,-3.25 4.42,-4.67 z"
   id="path28" />
		<path
   class="st2"
   d="m 91.56,123.67 c -2.08,-0.6 -4.06,-1.38 -5.98,-2.37 0.56,-1.08 1.11,-2.15 1.67,-3.23 1.7,0.88 3.47,1.57 5.31,2.11 -0.34,1.17 -0.67,2.33 -1,3.49 z"
   id="path30" />
		<path
   class="st2"
   d="m 110.09,123.67 c 2.08,-0.6 4.06,-1.38 5.98,-2.37 -0.56,-1.08 -1.11,-2.15 -1.67,-3.23 -1.7,0.88 -3.47,1.57 -5.31,2.11 0.34,1.17 0.67,2.33 1,3.49 z"
   id="path32" />
	</g>
	<g
   id="g48">
		<g
   id="g42">
			<path
   class="st2"
   d="m 77.45,98.07 6.62,-0.82 c 0.43,2.32 1.67,3.48 3.72,3.48 0.93,0 1.69,-0.24 2.27,-0.73 0.58,-0.48 0.87,-1.13 0.87,-1.95 0,-0.55 -0.16,-1.03 -0.47,-1.44 -0.32,-0.42 -0.65,-0.71 -1.01,-0.87 -0.36,-0.17 -0.98,-0.25 -1.86,-0.25 H 84.5 v -5.3 h 2.6 c 1.39,0 2.28,-0.25 2.68,-0.74 0.4,-0.5 0.59,-1.01 0.59,-1.54 0,-0.67 -0.25,-1.23 -0.74,-1.67 -0.5,-0.45 -1.15,-0.67 -1.95,-0.67 -1.74,0 -2.79,0.97 -3.18,2.9 L 78.37,87.5 c 0.56,-2.38 1.74,-4.21 3.54,-5.5 1.8,-1.29 3.94,-1.93 6.4,-1.93 2.78,0 5.01,0.65 6.69,1.95 1.69,1.3 2.53,3.04 2.53,5.21 0,1.3 -0.36,2.44 -1.07,3.4 -0.71,0.97 -1.62,1.62 -2.72,1.95 3.05,0.93 4.57,2.92 4.57,5.97 0,2.43 -0.93,4.32 -2.78,5.66 -1.85,1.34 -4.25,2.02 -7.2,2.02 -5.93,-0.01 -9.55,-2.73 -10.88,-8.16 z"
   id="path36" />
			<path
   class="st2"
   d="m 120.04,87.63 -6.49,0.78 c -0.2,-2.03 -1.03,-3.05 -2.48,-3.05 -2.1,0 -3.18,2.2 -3.24,6.6 0.99,-1.56 2.7,-2.34 5.12,-2.34 2.3,0 4.16,0.74 5.59,2.21 1.43,1.48 2.15,3.37 2.15,5.69 0,2.43 -0.91,4.49 -2.72,6.17 -1.82,1.69 -4.15,2.53 -7.02,2.53 -2.09,0 -3.96,-0.5 -5.6,-1.52 -1.64,-1.01 -2.87,-2.5 -3.7,-4.47 -0.83,-1.97 -1.25,-4.13 -1.25,-6.47 0,-3.99 0.91,-7.27 2.73,-9.84 1.82,-2.57 4.42,-3.86 7.79,-3.86 2.39,0 4.42,0.65 6.09,1.96 1.67,1.31 2.68,3.18 3.03,5.61 z m -9.32,13.42 c 0.86,0 1.54,-0.29 2.05,-0.87 0.51,-0.58 0.77,-1.29 0.77,-2.14 0,-0.83 -0.25,-1.56 -0.76,-2.18 -0.5,-0.62 -1.17,-0.93 -1.99,-0.93 -0.85,0 -1.54,0.31 -2.09,0.92 -0.55,0.61 -0.82,1.35 -0.82,2.2 0,0.83 0.26,1.54 0.78,2.12 0.53,0.59 1.21,0.88 2.06,0.88 z"
   id="path38" />
			<path
   class="st2"
   d="m 132.73,106.22 c -3.06,0 -5.48,-1.21 -7.27,-3.62 -1.79,-2.41 -2.68,-5.58 -2.68,-9.51 0,-4.03 0.91,-7.21 2.74,-9.54 1.83,-2.33 4.27,-3.49 7.33,-3.49 3.21,0 5.67,1.24 7.38,3.73 1.71,2.48 2.57,5.66 2.57,9.53 0,3.94 -0.92,7.08 -2.76,9.41 -1.83,2.32 -4.27,3.49 -7.31,3.49 z m 0.08,-5.39 c 1.07,0 1.78,-0.68 2.14,-2.04 0.36,-1.36 0.54,-3.21 0.54,-5.57 0,-3.23 -0.24,-5.35 -0.72,-6.34 -0.48,-0.99 -1.12,-1.49 -1.94,-1.49 -0.99,0 -1.68,0.65 -2.05,1.96 -0.37,1.31 -0.57,3.11 -0.57,5.4 0,3.11 0.19,5.23 0.57,6.37 0.37,1.14 1.05,1.71 2.03,1.71 z"
   id="path40" />
		</g>
		<g
   id="g46">
			<path
   class="st2"
   d="m 150.29,88.81 c -2,0 -3.59,-0.62 -4.77,-1.87 -1.18,-1.25 -1.77,-2.71 -1.77,-4.39 0,-1.8 0.62,-3.31 1.85,-4.51 1.23,-1.2 2.83,-1.8 4.8,-1.8 1.99,0 3.58,0.59 4.79,1.78 1.21,1.19 1.81,2.68 1.81,4.46 0,1.8 -0.61,3.31 -1.83,4.52 -1.23,1.21 -2.85,1.81 -4.88,1.81 z m 0.07,-2.87 c 0.74,0 1.19,-0.38 1.35,-1.15 0.16,-0.76 0.24,-1.56 0.24,-2.39 0,-1.13 -0.11,-1.95 -0.34,-2.45 -0.23,-0.5 -0.64,-0.75 -1.23,-0.75 -0.55,0 -0.95,0.26 -1.2,0.77 -0.25,0.51 -0.38,1.36 -0.38,2.54 0,1.39 0.13,2.3 0.39,2.75 0.26,0.45 0.65,0.68 1.17,0.68 z"
   id="path44" />
		</g>
	</g>
</g>
</svg>
