<?xml version="1.0" encoding="UTF-8" standalone="no"?>
<svg
   xmlns:dc="http://purl.org/dc/elements/1.1/"
   xmlns:cc="http://creativecommons.org/ns#"
   xmlns:rdf="http://www.w3.org/1999/02/22-rdf-syntax-ns#"
   xmlns:svg="http://www.w3.org/2000/svg"
   xmlns="http://www.w3.org/2000/svg"
   xmlns:sodipodi="http://sodipodi.sourceforge.net/DTD/sodipodi-0.dtd"
   xmlns:inkscape="http://www.inkscape.org/namespaces/inkscape"
   version="1.1"
   id="Layer_1"
   x="0px"
   y="0px"
   viewBox="0 0 118.4263 174.38"
   xml:space="preserve"
   sodipodi:docname="Athletics_Icon.svg"
   width="118.4263"
   height="174.38"
   inkscape:version="1.0.2 (e86c870879, 2021-01-15)"><metadata
   id="metadata53"><rdf:RDF><cc:Work
       rdf:about=""><dc:format>image/svg+xml</dc:format><dc:type
         rdf:resource="http://purl.org/dc/dcmitype/StillImage" /><dc:title></dc:title></cc:Work></rdf:RDF></metadata><defs
   id="defs51" /><sodipodi:namedview
   pagecolor="#ffffff"
   bordercolor="#666666"
   borderopacity="1"
   objecttolerance="10"
   gridtolerance="10"
   guidetolerance="10"
   inkscape:pageopacity="0"
   inkscape:pageshadow="2"
   inkscape:window-width="1920"
   inkscape:window-height="991"
   id="namedview49"
   showgrid="false"
   fit-margin-top="0"
   fit-margin-left="0"
   fit-margin-right="0"
   fit-margin-bottom="0"
   inkscape:zoom="3.7333333"
   inkscape:cx="70.826297"
   inkscape:cy="102.38857"
   inkscape:window-x="-10"
   inkscape:window-y="210"
   inkscape:window-maximized="1"
   inkscape:current-layer="Layer_1" />
<style
   type="text/css"
   id="style2">
	.st0{fill:#B51219;}
	.st1{fill:#FEFFFF;}
</style>
<g
   id="g46"
   transform="translate(-37.173703,-54.04)">
	<path
   class="st0"
   d="m 155.55,115.13 c 0.03,-0.67 0.05,-1.33 0.05,-1.98 0,-32.65 -26.47,-59.11 -59.11,-59.11 -32.64,0 -59.11,26.46 -59.11,59.11 0,0 -6.9,27.59 59.11,115.27 0,0 40.41,-51.91 54.41,-92.12 2.78,-6.54 4.41,-13.68 4.65,-21.17 z"
   id="path4" />
	<g
   id="g44">
		<g
   id="g32">
			<path
   class="st1"
   d="m 90.92,130.48 c 0.76,0.75 1.78,1.21 2.9,1.21 0.76,0 1.48,-0.22 2.1,-0.59 l 0.35,0.03 c -0.03,0.35 -0.13,0.71 -0.04,1.05 1.37,5.45 3.78,8.97 9.03,10.82 0.72,10.39 5.37,19.47 5.17,19.59 l -22.88,-9.4 z"
   id="path6" />
			<path
   class="st1"
   d="m 105.69,132.3 15.03,1.19 c 0,0 -0.54,2.78 -0.97,3.17 0.09,-1.32 0.15,-2.18 0.15,-2.18 0,0 -2.41,2.94 -4.86,3.27 -2.44,0.33 -5.43,-1.35 -6.22,-2.08 2.32,0.76 5.61,1.32 6.16,0.52 -1.26,0.04 -8.63,-1.58 -9.29,-3.89 z"
   id="path8" />
			<path
   class="st1"
   d="m 97.14,131.51 c 0,0 1.82,9.57 8.74,10.19 -2.5,-1.48 -4.37,-2.33 -6.53,-7.4 0.91,0.57 0.97,1.09 0.97,1.09 0,0 0.23,-2.57 -0.91,-3.25 -1.14,-0.69 -2.27,-0.63 -2.27,-0.63 z"
   id="path10" />
			<path
   class="st1"
   d="m 115.58,141.21 c 0,0 -2.67,0.37 -4.34,2.45 -0.92,1.15 -0.83,1.11 -0.83,1.11 0,0 0.16,-0.31 1.14,-0.38 0.98,-0.08 1.43,0.75 1.9,0.73 0.74,-0.03 0.37,-0.19 0.37,-0.19 0,0 -0.93,-0.51 -0.6,-1.58 0.23,-0.68 0.45,-0.95 2.36,-2.14 z"
   id="path12" />
			<path
   class="st1"
   d="m 110.19,157.85 c -0.01,-0.04 -0.01,-0.08 -0.01,-0.12 2.72,0.54 2.19,-2.95 2.23,-3.13 0.04,-0.18 -2.27,-1.31 -2.27,-1.31 l 0.91,-0.1 c 0,0 -0.81,-0.76 -0.7,-0.67 0.45,0.41 2.45,0.83 3.18,0.17 0.73,-0.66 0.25,-1.41 0.25,-1.41 l -5.53,-1.69 -1.71,-0.01 c 0,0 1.53,-1.18 2.29,-1.56 0.76,-0.37 2.41,-0.61 1.59,-0.23 -0.82,0.38 -1.25,1.23 -1.25,1.23 l 5.58,1.69 c 0,0 0.95,-0.79 0.33,-1.51 -0.44,-0.5 -1.61,-2.96 -1.61,-2.96 l 0.8,0.2 0.1,-0.86 c 0.06,-0.08 0.06,-0.08 0.93,0.63 0.18,0.15 0.36,0.23 0.99,0.28 l 0.44,1.48 c -1.18,0.45 -1.01,0.52 -0.63,1.15 0.46,0.76 0.32,1.7 -0.85,2.57 0.21,0.9 0.28,1.53 -1.67,2.61 0.53,3.48 -1.64,4.76 -2.68,5.16 z"
   id="path14" />
			<path
   class="st1"
   d="m 113.92,138.46 c 0,0 -1.3,0.4 -3,-0.46 l -1.13,-0.57 c -0.01,0.01 1.06,2.34 4.13,1.03 z"
   id="path16" />
			<polygon
   class="st1"
   points="67.24,137.39 87.18,148.05 86.97,149.25 63.45,138.86 "
   id="polygon18" />
			<path
   class="st1"
   d="m 56.22,136.63 c 3.2,1.6 7.23,1.5 7.23,1.5 l -1.51,0.73 24.9,11.11 -0.18,1.03 c -3.31,-1.06 -20.59,-6.61 -22.37,-6.81 -1.74,-0.2 -1.64,1.21 -1.07,3.11 -2.79,-3.21 -5.15,-6.79 -7,-10.67 z"
   id="path20" />
			<path
   class="st1"
   d="m 64.74,145.55 c 0.78,-0.57 19.27,5.55 21.75,6.37 l -0.23,1.31 H 84.5 l 21.19,9.04 c 0,0 -26.87,-9.87 -32.62,-11.09 -5.75,-1.22 4.24,6.33 8.25,8.54 -7.8,-2.48 -13.7,-8.24 -15.37,-9.83 -1.66,-1.6 -2.04,-3.73 -1.21,-4.34 z"
   id="path22" />
			<g
   id="g26">
				<path
   class="st1"
   d="m 68.68,136.67 18.75,10.25 2.93,-16.89 c 0,0 -0.01,-0.09 -0.02,-0.25 -0.49,-0.74 -0.79,-1.63 -0.79,-2.61 0,-2.49 1.91,-4.51 4.26,-4.51 1.06,0 2.02,0.41 2.77,1.09 0.03,-0.02 0.09,0.14 0.12,0.12 2.44,0.9 10.16,3.02 18.83,-3.15 2.53,-1.52 3.29,-3.97 3.81,-6.58 -1.4,-9.61 -9.56,-17 -19.98,-17 -11.4,0 -20.64,8.85 -20.64,19.76 0,0.43 0.02,0.85 0.05,1.27 -0.02,0.02 -0.03,0.04 -0.05,0.06 0.24,18.18 -10.04,18.44 -10.04,18.44 z m 14.83,-29.31 c 2.7,-4.84 8.76,-8.21 15.8,-8.21 8.74,0 15.58,5.19 16.76,11.94 -0.04,0.19 -0.1,0.38 -0.15,0.57 -1.51,-6.57 -8.34,-11.54 -16.99,-11.54 -6.62,-0.02 -12.39,2.91 -15.42,7.24 z"
   id="path24" />
			</g>
			<g
   id="g30">
				<path
   class="st1"
   d="m 90.21,127.18 c 0,2.08 1.59,3.76 3.55,3.76 0.82,0 1.57,-0.3 2.17,-0.79 l 17.74,1.19 c 1.48,0.07 3.06,0.18 4.75,0.33 l 4.26,0.3 c -0.14,4.88 -2.7,9.12 -6.48,11.48 l 1.6,4.62 c 0,0 1.21,-1.52 5.11,-3.49 -0.04,-1.97 0.95,-10.63 2.46,-12.45 10.77,-8.07 -4.79,-28.91 -5.47,-28.4 -0.68,0.51 3.5,13.37 -4.07,17.92 -8.68,6.17 -17.14,3.77 -19.59,2.87 -0.64,-0.67 -1.52,-1.08 -2.49,-1.08 -1.95,-0.02 -3.54,1.66 -3.54,3.74 z m 32.23,3.8 c 0.05,-1.6 0.08,-2.42 0.14,-4.05 0.07,1.64 0.11,2.46 0.18,4.09 -0.13,-0.01 -0.19,-0.02 -0.32,-0.04 z m -1.63,-0.2 c 0.06,-1.54 0.09,-2.32 0.15,-3.88 0.07,1.57 0.1,2.35 0.17,3.92 z m -1.64,-0.18 c 0.06,-1.47 0.09,-2.21 0.15,-3.71 0.07,1.5 0.1,2.25 0.16,3.75 -0.12,-0.02 -0.18,-0.03 -0.31,-0.04 z m -1.64,-0.17 c 0.07,-1.4 0.1,-2.11 0.16,-3.54 0.06,1.43 0.1,2.15 0.16,3.57 -0.13,-0.02 -0.19,-0.02 -0.32,-0.03 z m -1.63,-0.16 c 0.07,-1.33 0.1,-2.01 0.17,-3.37 0.06,1.36 0.09,2.04 0.15,3.4 -0.13,-0.02 -0.19,-0.02 -0.32,-0.03 z m -1.63,-0.15 c 0.07,-1.27 0.11,-1.91 0.18,-3.2 0.06,1.29 0.08,1.94 0.14,3.23 z m -1.64,-0.14 c 0.08,-1.2 0.11,-1.8 0.19,-3.03 0.05,1.22 0.08,1.84 0.13,3.06 -0.13,-0.01 -0.19,-0.02 -0.32,-0.03 z M 111,129.86 c 0.08,-1.13 0.12,-1.7 0.19,-2.86 0.05,1.15 0.07,1.73 0.12,2.88 -0.12,0 -0.18,-0.01 -0.31,-0.02 z m -1.63,-0.11 c 0.08,-1.06 0.13,-1.6 0.2,-2.69 0.04,1.09 0.07,1.63 0.11,2.71 -0.12,-0.01 -0.18,-0.01 -0.31,-0.02 z m -1.63,-0.09 c 0.09,-0.99 0.13,-1.5 0.21,-2.52 0.04,1.02 0.06,1.52 0.1,2.54 -0.12,-0.01 -0.19,-0.02 -0.31,-0.02 z m -1.63,-0.09 c 0.09,-0.93 0.13,-1.4 0.22,-2.35 0.04,0.95 0.05,1.42 0.09,2.36 -0.12,0 -0.19,0 -0.31,-0.01 z m -1.63,-0.07 c 0.09,-0.86 0.14,-1.29 0.23,-2.18 0.03,0.88 0.05,1.32 0.09,2.19 z m -1.63,-0.05 c 0.1,-0.79 0.14,-1.19 0.24,-2.01 0.03,0.81 0.04,1.21 0.07,2.02 -0.12,-0.01 -0.18,-0.01 -0.31,-0.01 z m -1.63,-0.05 c 0.1,-0.72 0.15,-1.09 0.25,-1.84 0.03,0.74 0.04,1.11 0.07,1.85 z m -1.63,-0.03 c 0.1,-0.65 0.15,-0.99 0.26,-1.67 0.02,0.67 0.03,1.01 0.06,1.68 -0.13,0 -0.19,-0.01 -0.32,-0.01 z m -1.62,-0.02 c 0.11,-0.59 0.16,-0.88 0.27,-1.5 0.02,0.6 0.03,0.9 0.05,1.5 -0.13,0.01 -0.2,0 -0.32,0 z m -1.63,0 c 0.11,-0.52 0.17,-0.78 0.27,-1.33 0.02,0.53 0.02,0.8 0.04,1.33 z m -4.55,-1.99 c 0,-0.59 0.29,-1.12 0.74,-1.44 -0.26,0.31 -0.42,0.72 -0.42,1.18 0,0.95 0.7,1.72 1.56,1.72 0.86,0 1.56,-0.77 1.56,-1.72 0,-0.17 -0.02,-0.33 -0.07,-0.49 0.11,0.23 0.17,0.49 0.17,0.76 0,0.98 -0.79,1.78 -1.77,1.78 -0.98,-0.01 -1.77,-0.81 -1.77,-1.79 z"
   id="path28" />
			</g>
		</g>
		<path
   class="st1"
   d="m 67.69,133.81 c -0.75,1.13 -1.81,1.74 -0.23,1.66 1.43,-0.09 2.66,-0.44 3.72,-0.98 0.43,-0.22 0.83,-0.47 1.2,-0.74 1.11,-0.82 1.98,-1.85 2.67,-2.99 0.38,-0.63 0.71,-1.29 0.99,-1.96 1.07,-2.57 1.42,-5.22 1.55,-6.61 0.03,-0.31 0.06,-0.72 0.07,-1.18 0.12,-2.74 0.09,-7.56 0.09,-7.56 l -0.09,0.02 -1.62,0.33 -0.99,0.2 -1.56,0.32 c 0.31,-2.01 0.83,-3.91 1.56,-5.69 0.3,-0.73 0.63,-1.44 0.99,-2.12 0.48,-0.92 1.03,-1.8 1.62,-2.64 0.9,-1.27 1.93,-2.45 3.08,-3.52 0.4,-0.37 0.82,-0.74 1.24,-1.08 0.48,-0.39 0.97,-0.76 1.48,-1.12 0.43,-0.3 0.88,-0.59 1.34,-0.87 1.33,-0.8 2.75,-1.5 4.26,-2.07 0.42,-0.16 0.84,-0.31 1.27,-0.45 0.98,-0.32 1.99,-0.6 3.04,-0.82 0.33,-0.07 0.66,-0.13 0.99,-0.2 0.8,-0.15 1.62,-0.26 2.46,-0.35 0.36,-0.04 0.72,-0.07 1.09,-0.1 0.13,-0.01 0.26,-0.02 0.4,-0.03 0.49,-0.03 0.98,-0.05 1.48,-0.05 0.5,-0.01 1,0 1.5,0.02 0.48,0.02 0.97,0.05 1.45,0.09 0.26,0.02 0.51,0.05 0.77,0.08 0.23,0.03 0.47,0.06 0.71,0.09 0.5,0.07 0.99,0.16 1.48,0.26 0.5,0.1 1,0.22 1.48,0.36 0.52,0.15 1.04,0.32 1.54,0.51 0.14,0.06 0.29,0.11 0.43,0.17 0.23,0.1 0.45,0.2 0.67,0.3 0.11,0.05 0.21,0.1 0.32,0.16 0.41,0.21 0.81,0.44 1.2,0.69 l 0.28,-0.2 1.09,-0.78 0.39,-0.28 1.48,-1.06 1.48,-1.06 1.48,-1.06 1.41,-1 0.08,-0.05 1.49,-1.06 1.49,-1.06 5.5,-3.92 c -1.65,-1.93 -3.49,-3.78 -5.5,-5.49 -0.49,-0.41 -0.98,-0.82 -1.49,-1.21 -0.49,-0.38 -0.98,-0.75 -1.49,-1.11 l -0.08,-0.05 c -0.46,-0.33 -0.93,-0.65 -1.41,-0.96 -0.49,-0.32 -0.98,-0.63 -1.48,-0.93 -0.49,-0.29 -0.98,-0.58 -1.48,-0.85 -0.49,-0.27 -0.98,-0.52 -1.48,-0.77 -0.13,-0.06 -0.26,-0.13 -0.39,-0.19 -0.36,-0.17 -0.72,-0.34 -1.09,-0.5 -0.49,-0.22 -0.98,-0.42 -1.48,-0.62 -0.11,-0.04 -0.21,-0.08 -0.32,-0.12 -0.22,-0.09 -0.45,-0.17 -0.67,-0.25 -0.14,-0.05 -0.29,-0.1 -0.43,-0.15 -0.51,-0.18 -1.02,-0.34 -1.54,-0.5 -0.49,-0.15 -0.98,-0.28 -1.48,-0.41 -0.49,-0.13 -0.98,-0.24 -1.48,-0.35 -0.23,-0.05 -0.47,-0.1 -0.71,-0.14 -0.26,-0.05 -0.51,-0.1 -0.77,-0.14 -0.48,-0.08 -0.97,-0.15 -1.45,-0.21 -0.5,-0.06 -1,-0.12 -1.5,-0.16 -0.49,-0.04 -0.98,-0.07 -1.48,-0.1 -0.13,-0.01 -0.26,-0.01 -0.4,-0.02 -0.67,-0.02 -1.35,-0.03 -2.03,-0.01 -0.51,0.01 -1.01,0.04 -1.52,0.07 -0.33,0.02 -0.66,0.05 -0.99,0.08 -1.02,0.1 -2.03,0.25 -3.04,0.44 -0.43,0.08 -0.85,0.17 -1.27,0.27 -1.45,0.34 -2.87,0.77 -4.26,1.29 -0.45,0.17 -0.9,0.35 -1.34,0.53 -0.5,0.21 -1,0.44 -1.48,0.67 -0.42,0.2 -0.83,0.41 -1.24,0.63 -1.06,0.57 -2.09,1.19 -3.08,1.87 -0.56,0.38 -1.1,0.78 -1.62,1.2 -0.34,0.27 -0.67,0.54 -0.99,0.82 -0.95,0.82 -1.84,1.69 -2.67,2.61 -0.42,0.47 -0.82,0.94 -1.2,1.43 -2.28,2.93 -3.94,6.31 -4.75,10.06 -2.8,13.07 1.82,26.29 3.47,31.06 1.67,4.77 -1.45,10.48 -2.21,11.61 z m 48.38,-46.23 c 0.5,-0.43 0.99,-0.87 1.48,-1.31 0.47,-0.43 0.94,-0.86 1.41,-1.29 l 0.08,-0.07 v 0 0 l -0.08,0.08 c -0.46,0.48 -0.93,0.95 -1.41,1.42 -0.49,0.48 -0.98,0.95 -1.48,1.42 -0.49,0.46 -0.98,0.91 -1.48,1.36 -0.49,0.44 -0.98,0.88 -1.48,1.32 -0.13,0.11 -0.26,0.23 -0.39,0.34 -0.36,0.31 -0.73,0.63 -1.09,0.94 -0.49,0.42 -0.99,0.83 -1.48,1.25 l -0.32,0.26 -0.22,0.18 c -0.18,-0.09 -0.27,-0.14 -0.45,-0.22 l -0.02,-0.01 0.02,-0.01 c 0.22,-0.18 0.45,-0.35 0.67,-0.53 l 0.32,-0.25 c 0.5,-0.39 0.99,-0.78 1.48,-1.18 0.37,-0.29 0.73,-0.59 1.09,-0.88 0.13,-0.11 0.26,-0.21 0.39,-0.32 0.5,-0.41 0.99,-0.82 1.48,-1.23 0.49,-0.42 0.99,-0.84 1.48,-1.27 z m -5.93,0.67 c 0.48,-0.49 0.97,-0.99 1.48,-1.53 0.35,-0.37 0.72,-0.75 1.09,-1.15 0.13,-0.14 0.26,-0.28 0.39,-0.42 0.43,-0.46 0.87,-0.95 1.34,-1.47 -0.47,0.59 -0.91,1.14 -1.34,1.65 -0.13,0.16 -0.26,0.31 -0.39,0.47 -0.37,0.44 -0.73,0.86 -1.09,1.27 -0.5,0.57 -0.99,1.11 -1.48,1.64 -0.11,0.12 -0.21,0.23 -0.32,0.34 -0.22,0.24 -0.45,0.48 -0.67,0.72 -0.14,0.15 -0.29,0.3 -0.43,0.46 -0.5,0.53 -1.01,1.06 -1.54,1.62 -0.14,0.15 -0.28,0.3 -0.43,0.45 -0.19,-0.06 -0.29,-0.09 -0.48,-0.15 0.31,-0.32 0.61,-0.62 0.9,-0.92 0.52,-0.53 1.03,-1.04 1.54,-1.55 l 0.43,-0.43 c 0.22,-0.23 0.45,-0.45 0.67,-0.68 z m -4.44,-0.32 c 0.48,-0.7 0.96,-1.42 1.48,-2.18 0.48,-0.7 0.98,-1.45 1.54,-2.28 0.14,-0.21 0.28,-0.43 0.43,-0.65 l 0.01,-0.02 -0.01,0.03 c -0.15,0.26 -0.29,0.52 -0.43,0.77 -0.55,0.96 -1.05,1.82 -1.54,2.62 -0.5,0.83 -0.99,1.61 -1.48,2.4 -0.48,0.77 -0.96,1.54 -1.48,2.37 -0.12,0.2 -0.24,0.4 -0.37,0.6 -0.14,-0.02 -0.23,-0.04 -0.34,-0.06 l -0.15,-0.02 0.15,-0.23 c 0.24,-0.38 0.47,-0.75 0.71,-1.11 0.5,-0.77 0.98,-1.5 1.48,-2.24 z m -4.41,0.63 c 0.44,-1.29 0.9,-2.52 1.45,-3.93 0.24,-0.6 0.49,-1.23 0.77,-1.92 l 0.14,-0.36 -0.14,0.47 c -0.28,0.9 -0.53,1.71 -0.77,2.48 -0.51,1.64 -0.97,3.06 -1.45,4.7 -0.12,0.41 -0.25,0.83 -0.38,1.27 -0.2,-0.01 -0.29,-0.01 -0.49,-0.01 0.3,-0.97 0.58,-1.85 0.87,-2.7 z m -3.37,-3.14 c 0.1,-0.82 0.23,-1.67 0.4,-2.63 0.02,-0.12 0.04,-0.24 0.06,-0.36 -0.02,0.27 -0.04,0.53 -0.06,0.79 -0.23,3.02 -0.29,5.1 -0.36,8.13 h -0.03 c -0.17,0.01 -0.27,0.02 -0.46,0.04 0.09,-2.27 0.2,-3.99 0.45,-5.97 z m -3.55,2.59 c 0.19,1.15 0.4,2.33 0.61,3.72 -0.2,0.03 -0.3,0.05 -0.49,0.09 -0.04,-0.36 -0.08,-0.7 -0.12,-1.03 -0.33,-2.74 -0.63,-4.75 -0.61,-7.7 0.14,1.87 0.35,3.37 0.61,4.92 z m -4.03,-1.96 c 0.48,2.13 1.03,3.87 1.69,6.36 -0.2,0.05 -0.29,0.08 -0.49,0.14 -0.47,-2.19 -0.88,-3.82 -1.2,-5.66 -0.13,-0.78 -0.25,-1.6 -0.35,-2.51 0.11,0.59 0.23,1.14 0.35,1.67 z m -1.27,7.17 0.05,0.13 -0.05,0.02 c -0.16,0.06 -0.25,0.1 -0.42,0.16 -0.88,-2.85 -1.49,-4.6 -2.12,-7.45 0.82,2.69 1.52,4.39 2.54,7.14 z m -5.6,-4.68 c 0.48,1.09 0.9,2 1.34,2.92 0.45,0.95 0.92,1.91 1.49,3.12 -0.18,0.09 -0.27,0.14 -0.45,0.23 -0.39,-0.96 -0.73,-1.78 -1.04,-2.56 -0.46,-1.16 -0.87,-2.24 -1.34,-3.61 -0.05,-0.15 -0.1,-0.31 -0.16,-0.47 z m -2.73,2.75 c 0.45,0.76 0.84,1.42 1.24,2.09 0.45,0.75 0.91,1.52 1.48,2.46 l 0.16,0.26 -0.16,0.1 c -0.09,0.06 -0.16,0.11 -0.27,0.18 -0.47,-0.9 -0.85,-1.64 -1.21,-2.36 -0.42,-0.82 -0.8,-1.61 -1.24,-2.55 -0.13,-0.27 -0.26,-0.55 -0.4,-0.86 0.14,0.24 0.28,0.47 0.4,0.68 z m -3.07,2.12 c 1.21,1.56 1.93,2.5 3.08,4 l 0.4,0.52 c -0.16,0.13 -0.24,0.2 -0.39,0.33 l -0.01,-0.01 c -1.24,-1.89 -1.9,-2.92 -3.08,-4.83 l -0.05,-0.08 z m -1.63,3.79 c 0.59,0.58 1.07,1.07 1.62,1.62 0.36,0.37 0.75,0.76 1.22,1.23 -0.14,0.15 -0.21,0.22 -0.34,0.37 -0.33,-0.38 -0.61,-0.71 -0.88,-1.03 -0.58,-0.69 -1.05,-1.27 -1.62,-1.98 -0.27,-0.33 -0.56,-0.69 -0.9,-1.1 0.34,0.33 0.63,0.62 0.9,0.89 z m -0.99,3.73 c 0.31,0.23 0.63,0.47 0.99,0.74 0.27,0.2 0.56,0.41 0.9,0.65 -0.12,0.15 -0.18,0.23 -0.29,0.38 -0.22,-0.18 -0.42,-0.35 -0.61,-0.5 -0.37,-0.32 -0.69,-0.6 -0.99,-0.88 -0.55,-0.51 -1.07,-1.01 -1.89,-1.71 0.8,0.51 1.35,0.91 1.89,1.32 z m -2.66,2.41 c 1.01,0.42 1.51,0.72 2.67,1.22 0.08,0.04 0.17,0.07 0.26,0.11 -0.1,0.16 -0.14,0.24 -0.24,0.4 l -0.03,-0.01 c -1.23,-0.63 -1.68,-1.01 -2.67,-1.61 -0.2,-0.12 -0.41,-0.24 -0.66,-0.38 0.25,0.1 0.47,0.19 0.67,0.27 z m -1.2,3.34 c 0.51,0.07 0.85,0.14 1.2,0.21 0.43,0.09 0.86,0.18 1.63,0.31 -0.08,0.17 -0.11,0.26 -0.18,0.44 -0.67,-0.18 -1.07,-0.31 -1.44,-0.45 -0.35,-0.13 -0.68,-0.26 -1.2,-0.43 -0.13,-0.04 -0.27,-0.09 -0.43,-0.13 0.14,0.01 0.29,0.03 0.42,0.05 z m 0,3.37 c 0.41,-0.02 0.68,-0.04 1.2,-0.06 0.18,-0.01 0.39,-0.01 0.64,-0.02 -0.05,0.19 -0.08,0.29 -0.13,0.49 -0.2,-0.02 -0.36,-0.03 -0.5,-0.05 -0.54,-0.06 -0.8,-0.11 -1.2,-0.17 -0.24,-0.04 -0.53,-0.08 -0.98,-0.13 0.42,-0.02 0.72,-0.04 0.97,-0.06 z m 0,3.18 c 0.26,-0.05 0.52,-0.1 1.16,-0.17 -0.03,0.22 -0.05,0.32 -0.08,0.54 -0.59,-0.04 -0.84,-0.07 -1.08,-0.1 -0.26,-0.03 -0.5,-0.06 -1.16,-0.1 0.64,-0.07 0.89,-0.12 1.16,-0.17 z"
   id="path34" />
		<polygon
   class="st1"
   points="72.39,140.24 71.19,139.6 67.2,137.47 63.44,138.93 71.19,142.36 72.39,142.89 75.05,144.07 76.04,144.5 77.67,145.22 80.74,146.58 81.99,147.13 83.47,147.78 84.81,148.37 86.83,149.27 87.04,148.08 84.81,146.88 83.47,146.17 81.99,145.38 80.74,144.71 77.67,143.07 76.04,142.2 75.05,141.67 "
   id="polygon36" />
		<path
   class="st1"
   d="m 80.74,106.46 c 0.38,-0.61 0.8,-1.2 1.24,-1.77 0.46,-0.59 0.96,-1.15 1.48,-1.68 0.43,-0.43 0.87,-0.85 1.34,-1.24 1.29,-1.1 2.72,-2.05 4.26,-2.83 0.42,-0.21 0.84,-0.41 1.27,-0.59 0.98,-0.42 1.99,-0.77 3.04,-1.04 0.33,-0.09 0.66,-0.17 0.99,-0.24 1.15,-0.25 2.34,-0.4 3.55,-0.46 0.13,-0.01 0.27,-0.01 0.4,-0.01 0.21,-0.01 0.41,-0.01 0.62,-0.01 0.29,0 0.58,0 0.86,0.01 0.52,0.01 1.01,0.03 1.5,0.06 0.5,0.03 0.98,0.08 1.45,0.14 0.26,0.03 0.52,0.07 0.77,0.12 0.24,0.04 0.47,0.09 0.71,0.14 0.5,0.11 0.99,0.24 1.48,0.4 0.5,0.16 0.99,0.35 1.48,0.58 0.17,0.08 0.34,0.16 0.51,0.24 l 1.03,-0.59 0.43,-0.25 0.67,-0.39 0.32,-0.18 0.47,-0.27 c -0.15,-0.11 -0.31,-0.22 -0.47,-0.32 -0.1,-0.07 -0.21,-0.13 -0.32,-0.19 -0.22,-0.13 -0.44,-0.25 -0.67,-0.36 -0.14,-0.07 -0.29,-0.14 -0.43,-0.2 -0.49,-0.22 -1,-0.41 -1.54,-0.58 -0.48,-0.15 -0.97,-0.28 -1.48,-0.4 -0.48,-0.11 -0.98,-0.2 -1.48,-0.28 -0.23,-0.04 -0.47,-0.07 -0.71,-0.1 -0.26,-0.03 -0.51,-0.06 -0.77,-0.09 -0.48,-0.05 -0.97,-0.08 -1.45,-0.11 -0.5,-0.02 -1.01,-0.03 -1.5,-0.03 -0.5,0 -0.99,0.02 -1.48,0.04 -0.13,0.01 -0.26,0.02 -0.4,0.02 -0.38,0.03 -0.76,0.06 -1.13,0.1 -0.82,0.09 -1.62,0.22 -2.42,0.37 -0.33,0.07 -0.66,0.14 -0.99,0.21 -1.04,0.24 -2.05,0.54 -3.04,0.9 -0.43,0.15 -0.86,0.32 -1.27,0.49 -1.5,0.63 -2.93,1.38 -4.26,2.25 -0.46,0.3 -0.9,0.61 -1.34,0.94 -0.51,0.38 -1.01,0.79 -1.48,1.21 -0.43,0.38 -0.84,0.77 -1.24,1.18 -1.15,1.17 -2.18,2.46 -3.08,3.85 -0.61,0.95 -1.15,1.96 -1.62,3 -0.38,0.83 -0.71,1.7 -0.99,2.59 -0.22,0.69 -0.41,1.4 -0.57,2.12 l 0.57,-0.12 0.99,-0.21 1.62,-0.34 0.69,-0.15 c 0.44,-2.12 1.26,-4.11 2.39,-5.93 z"
   id="path38" />
		<path
   class="st1"
   d="m 72.39,146.55 c 0.87,0.27 1.77,0.55 2.67,0.83 l 0.99,0.31 c 0.54,0.17 1.09,0.34 1.62,0.51 1.06,0.33 2.1,0.66 3.08,0.97 l 1.24,0.4 c 0.52,0.17 1.02,0.32 1.48,0.47 0.49,0.16 0.93,0.3 1.34,0.43 0.73,0.23 1.32,0.42 1.71,0.55 l 0.18,-1.02 -1.9,-0.85 -1.34,-0.6 -1.48,-0.66 -1.24,-0.56 -3.08,-1.37 -1.62,-0.73 -0.99,-0.44 -2.67,-1.19 -1.2,-0.53 -9.25,-4.13 1.51,-0.73 c 0,0 -4.2,0.36 -7.96,-2.72 1.84,3.86 4.96,8.66 7.72,11.85 -0.57,-1.9 -0.67,-3.3 1.07,-3.09 0.66,0.08 3.48,0.89 6.92,1.94 0.39,0.11 0.79,0.23 1.2,0.36 z"
   id="path40" />
		<path
   class="st1"
   d="m 103.52,161.39 -0.77,-0.33 -1.45,-0.62 -1.5,-0.64 -1.48,-0.63 -0.4,-0.17 -3.55,-1.51 -0.99,-0.42 -3.04,-1.3 -1.27,-0.54 -4.26,-1.82 -0.44,-0.19 h 0.44 1.31 l 0.23,-1.3 c -0.3,-0.1 -0.84,-0.28 -1.55,-0.51 -0.4,-0.13 -0.84,-0.28 -1.34,-0.44 -0.46,-0.15 -0.96,-0.31 -1.48,-0.48 -0.4,-0.13 -0.81,-0.26 -1.24,-0.4 -0.97,-0.31 -2.01,-0.65 -3.08,-0.98 -0.54,-0.17 -1.08,-0.34 -1.62,-0.51 -0.33,-0.1 -0.66,-0.21 -0.99,-0.31 -0.9,-0.28 -1.8,-0.56 -2.67,-0.82 -0.41,-0.12 -0.81,-0.24 -1.2,-0.36 -3.44,-1.02 -6.18,-1.73 -6.47,-1.52 -0.83,0.61 -0.45,2.73 1.21,4.31 0.82,0.78 2.67,2.58 5.26,4.49 0.38,0.28 0.78,0.57 1.2,0.85 0.83,0.57 1.72,1.14 2.67,1.68 0.32,0.19 0.65,0.37 0.99,0.55 0.53,0.28 1.07,0.55 1.62,0.81 0.98,0.46 2.01,0.88 3.08,1.24 0.15,0.05 0.31,0.1 0.46,0.15 -0.15,-0.08 -0.3,-0.17 -0.46,-0.27 -0.88,-0.51 -1.96,-1.22 -3.08,-2 -0.54,-0.38 -1.09,-0.78 -1.62,-1.18 -0.34,-0.25 -0.67,-0.51 -0.99,-0.76 -1.04,-0.82 -1.98,-1.64 -2.67,-2.34 -1.3,-1.33 -1.67,-2.25 0,-2.06 0.18,0.02 0.38,0.05 0.62,0.1 0.52,0.11 1.22,0.29 2.05,0.53 0.31,0.09 0.64,0.19 0.99,0.29 0.51,0.15 1.05,0.32 1.62,0.5 0.95,0.3 1.98,0.63 3.08,1 0.41,0.13 0.82,0.27 1.24,0.41 0.49,0.16 0.98,0.33 1.48,0.5 0.44,0.15 0.89,0.3 1.34,0.45 1.4,0.48 2.83,0.97 4.26,1.47 0.43,0.15 0.85,0.3 1.27,0.45 1.03,0.36 2.04,0.72 3.04,1.07 l 0.99,0.35 c 1.24,0.44 2.43,0.87 3.55,1.27 l 0.4,0.14 c 0.51,0.18 1,0.36 1.48,0.53 0.53,0.19 1.03,0.37 1.5,0.54 0.53,0.19 1.01,0.37 1.45,0.53 l 0.77,0.28 0.71,0.26 c 0.78,0.28 1.22,0.45 1.22,0.45 l -1.22,-0.52 z"
   id="path42" />
	</g>
</g>
</svg>
