<?xml version="1.0" encoding="UTF-8" standalone="no"?>
<svg
   xmlns:dc="http://purl.org/dc/elements/1.1/"
   xmlns:cc="http://creativecommons.org/ns#"
   xmlns:rdf="http://www.w3.org/1999/02/22-rdf-syntax-ns#"
   xmlns:svg="http://www.w3.org/2000/svg"
   xmlns="http://www.w3.org/2000/svg"
   xmlns:sodipodi="http://sodipodi.sourceforge.net/DTD/sodipodi-0.dtd"
   xmlns:inkscape="http://www.inkscape.org/namespaces/inkscape"
   version="1.1"
   id="Layer_1"
   x="0px"
   y="0px"
   viewBox="0 0 118.4263 174.38"
   xml:space="preserve"
   sodipodi:docname="Food_Icon.svg"
   width="118.4263"
   height="174.38"
   inkscape:version="1.0.2 (e86c870879, 2021-01-15)"><metadata
   id="metadata13"><rdf:RDF><cc:Work
       rdf:about=""><dc:format>image/svg+xml</dc:format><dc:type
         rdf:resource="http://purl.org/dc/dcmitype/StillImage" /><dc:title></dc:title></cc:Work></rdf:RDF></metadata><defs
   id="defs11" /><sodipodi:namedview
   pagecolor="#ffffff"
   bordercolor="#666666"
   borderopacity="1"
   objecttolerance="10"
   gridtolerance="10"
   guidetolerance="10"
   inkscape:pageopacity="0"
   inkscape:pageshadow="2"
   inkscape:window-width="1920"
   inkscape:window-height="991"
   id="namedview9"
   showgrid="false"
   fit-margin-top="0"
   fit-margin-left="0"
   fit-margin-right="0"
   fit-margin-bottom="0"
   inkscape:zoom="3.7333333"
   inkscape:cx="55.886297"
   inkscape:cy="86.69"
   inkscape:window-x="-10"
   inkscape:window-y="210"
   inkscape:window-maximized="1"
   inkscape:current-layer="Layer_1" />
<style
   type="text/css"
   id="style2">
	.st0{fill:#A9CF38;}
	.st1{fill:#FFFFFF;}
</style>

<path
   class="st0"
   d="m 118.3763,61.09 c 0.03,-0.67 0.05,-1.33 0.05,-1.98 C 118.4263,26.46 91.956297,0 59.316297,0 c -32.64,0 -59.11,26.47 -59.11,59.11 0,0 -6.9,27.59 59.11,115.27 0,0 40.41,-51.91 54.410003,-92.12 2.77,-6.54 4.4,-13.68 4.65,-21.17 z"
   id="path4" /><path
   class="st1"
   d="m 59.206297,16.44 c -22.74,0 -41.17,18.43 -41.17,41.17 0,22.74 18.43,41.17 41.17,41.17 22.74,0 41.170003,-18.43 41.170003,-41.17 0,-22.74 -18.440003,-41.17 -41.170003,-41.17 z m -12.06,72.23 c 0,0 -0.29,1.81 -3.88,2.09 -3.59,0.29 -3.61,-1.96 -3.61,-1.96 l 0.47,-11.5 0.43,-18.16 c 0.01,-0.51 0,-34.7 0,-34.7 0,0 4.25,-0.51 5.39,3.86 1.14,4.37 1.98,26.49 -0.09,30.43 l 1.03,18.33 c -0.01,0 0.44,7.12 0.26,11.61 z m 14.6,-35.32 0.73,23.72 0.55,11.69 c 0,0 0.01,2.29 -3.45,2.01 -3.46,-0.28 -3.75,-2.11 -3.75,-2.11 -0.21,-4.57 0.16,-11.81 0.16,-11.81 l 1.04,-23.38 c -3.41,-0.92 -5.99,-3.96 -6.17,-7.68 -0.05,-0.96 0.08,-1.89 0.34,-2.76 0.62,-4 1.87,-9.61 1.87,-9.61 0.72,-2.2 4.38,-3 4.38,-3 3.56,-1.28 5.63,2.09 5.63,2.09 1.86,2.55 3.27,7.24 3.98,9.95 0.22,0.6 0.37,1.22 0.46,1.88 0.03,0.12 0.04,0.19 0.04,0.19 h -0.02 c 0.02,0.15 0.04,0.31 0.05,0.46 0.16,3.87 -2.32,7.24 -5.84,8.36 z m 19.42,-11.07 -0.03,0.02 c 0.33,1.95 -3.66,4.87 -3.66,4.87 h -0.07 l 0.71,30.13 0.47,11.5 c 0,0 -0.01,2.25 -3.61,1.96 -3.59,-0.29 -3.88,-2.09 -3.88,-2.09 -0.18,-4.5 0.27,-11.61 0.27,-11.61 l 1.69,-29.98 c -4.16,-2.36 -4.11,-5.05 -4.11,-5.05 v -13.1 h 0.01 c 0,-0.03 -0.01,-0.06 -0.01,-0.09 0,-0.76 0.39,-1.38 0.86,-1.38 0.47,0 0.86,0.62 0.86,1.38 0,0.03 0,0.06 -0.01,0.09 h 0.01 v 11.3 c 0,0 0.11,0.61 0.74,0.59 0,0 0.52,-0.02 0.81,-0.59 V 28.05 c 0,-0.76 0.39,-1.38 0.86,-1.38 0.48,0 0.86,0.62 0.86,1.38 0,0 0,0 0,0 v 11.71 c 0.13,0.19 0.45,0.53 1.09,0.53 0,0 0.36,-0.02 0.8,-0.29 V 28.36 c 0,0 0,0 0,0 0,-0.76 0.39,-1.38 0.86,-1.38 0.48,0 0.86,0.62 0.86,1.38 v 12.07 c 0.12,0.13 0.39,0.38 0.89,0.38 0,0 0.49,-0.03 1,-0.38 V 29.18 c 0,-0.76 0.39,-1.38 0.86,-1.38 0.48,0 0.86,0.62 0.86,1.38 v 13.1 z"
   id="path6" />
</svg>
