<svg id="Layer_1" data-name="Layer 1" xmlns="http://www.w3.org/2000/svg" viewBox="0 0 118.43 174.38"><defs><style>.cls-1{fill:#f99d1f;}.cls-2{fill:#fff;}</style></defs><path class="cls-1" d="M170.49,109.4c0-.67,0-1.33,0-2a59.12,59.12,0,0,0-118.23,0S45.41,135,111.42,222.69c0,0,40.41-51.91,54.41-92.12A59,59,0,0,0,170.49,109.4Z" transform="translate(-52.1 -48.31)"/><path class="cls-2" d="M81.93,97.19v-16s16.59,3.37,16.59,16.31Z" transform="translate(-52.1 -48.31)"/><rect class="cls-2" x="29.83" y="50.84" width="60.42" height="13.22"/><polygon class="cls-2" points="28.39 26.99 28.39 65.21 89.53 65.21 91.59 65.21 91.59 43.06 94.93 43.06 94.93 91.74 91.59 91.74 91.59 70.08 28.39 70.08 28.39 91.74 23.5 91.74 23.5 26.99 28.39 26.99"/></svg>