<svg xmlns="http://www.w3.org/2000/svg" width="12" height="25" viewBox="0 0 12 25"><title>Asset 1</title><path d="M6,0a6,6,0,1,0,6,6A6,6,0,0,0,6,0ZM8.89,7.61A.9.9,0,0,1,7.61,8.89L6,7.27,4.39,8.89A.9.9,0,1,1,3.11,7.61L4.73,6,3.11,4.39A.9.9,0,0,1,4.39,3.11L6,4.73,7.61,3.11A.9.9,0,0,1,8.89,4.39L7.27,6Z" fill="#777"/><path d="M6,13a6,6,0,1,0,6,6A6,6,0,0,0,6,13Zm2.89,7.61a.9.9,0,0,1-1.27,1.27L6,20.27,4.39,21.89a.9.9,0,0,1-1.27-1.27L4.73,19,3.11,17.39a.9.9,0,0,1,1.27-1.27L6,17.73l1.61-1.61a.9.9,0,0,1,1.27,1.27L7.27,19Z"/></svg>