<?xml version="1.0" encoding="UTF-8" standalone="no"?>
<svg
   xmlns:dc="http://purl.org/dc/elements/1.1/"
   xmlns:cc="http://creativecommons.org/ns#"
   xmlns:rdf="http://www.w3.org/1999/02/22-rdf-syntax-ns#"
   xmlns:svg="http://www.w3.org/2000/svg"
   xmlns="http://www.w3.org/2000/svg"
   xmlns:sodipodi="http://sodipodi.sourceforge.net/DTD/sodipodi-0.dtd"
   xmlns:inkscape="http://www.inkscape.org/namespaces/inkscape"
   version="1.1"
   id="_x23_Layer_1"
   x="0px"
   y="0px"
   viewBox="0 0 864 864"
   xml:space="preserve"
   sodipodi:docname="HLGU_seal.svg"
   width="864"
   height="864"
   inkscape:version="1.0.2 (e86c870879, 2021-01-15, custom)"><metadata
   id="metadata187"><rdf:RDF><cc:Work
       rdf:about=""><dc:format>image/svg+xml</dc:format><dc:type
         rdf:resource="http://purl.org/dc/dcmitype/StillImage" /><dc:title></dc:title></cc:Work></rdf:RDF></metadata><defs
   id="defs185" /><sodipodi:namedview
   pagecolor="#ffffff"
   bordercolor="#666666"
   borderopacity="1"
   objecttolerance="10"
   gridtolerance="10"
   guidetolerance="10"
   inkscape:pageopacity="0"
   inkscape:pageshadow="2"
   inkscape:window-width="1600"
   inkscape:window-height="837"
   id="namedview183"
   showgrid="false"
   fit-margin-top="0"
   fit-margin-left="0"
   fit-margin-right="0"
   fit-margin-bottom="0"
   inkscape:zoom="0.66468254"
   inkscape:cx="678.07343"
   inkscape:cy="378.2309"
   inkscape:window-x="-8"
   inkscape:window-y="-8"
   inkscape:window-maximized="1"
   inkscape:current-layer="_x23_Layer_1" />
<style
   type="text/css"
   id="style2">
	.st0{fill:#002B58;}
	.st1{fill:#ED212B;}
	.st2{fill:#FFFFFF;}
</style>
<g
   id="g6"
   transform="translate(-82.44,-65.59)">
	<path
   class="st0"
   d="m 514.44,65.59 c -237.88,0 -432,194.13 -432,432.18 0,237.88 194.12,431.82 432,431.82 238.06,0 432,-193.94 432,-431.82 0,-238.05 -193.94,-432.18 -432,-432.18 z m 0.42,858.36 c -235.39,0 -426.8,-191.58 -426.8,-426.17 0,-235.14 191.41,-426.53 426.8,-426.53 235.02,0 426.62,191.39 426.62,426.53 0,234.59 -191.6,426.17 -426.62,426.17 z"
   id="path4" />
</g>
<path
   class="st0"
   d="M 432.72,841.44 C 205.68,841.44 20.71,657.7 20.71,432.04 20.71,206.2 205.68,22.1 432.72,22.1 c 227.04,0 412.02,184.1 412.02,409.94 0,225.66 -184.97,409.4 -412.02,409.4 z"
   id="path8" />
<path
   class="st1"
   d="m 429.78,164.51 c 146.71,0 266.03,120.12 266.03,267.76 0,147.47 -119.33,267.22 -266.03,267.22 -146.7,0 -266.4,-119.75 -266.4,-267.22 0,-147.64 119.69,-267.76 266.4,-267.76 z"
   id="path10" />
<g
   id="g32"
   transform="translate(-82.44,-65.59)">
	<polygon
   class="st2"
   points="417.9,521.12 387.64,521.12 357.39,521.12 357.39,625.24 357.4,625.23 387.64,625.21 417.9,625.19 "
   id="polygon12" />
	<polygon
   class="st2"
   points="387.64,675.22 417.91,675.22 417.91,637.99 387.64,637.99 354.04,637.99 354.04,675.22 "
   id="polygon14" />
	<rect
   x="417.82999"
   y="484.85999"
   class="st2"
   width="195.69"
   height="9.3100004"
   id="rect16" />
	<polygon
   class="st2"
   points="643.72,516.13 680.97,516.13 680.97,506.47 643.72,506.47 613.46,506.47 613.46,509.68 613.46,516.13 "
   id="polygon18" />
	<polygon
   class="st2"
   points="417.9,506.47 387.64,506.47 350.4,506.47 350.4,516.13 387.64,516.13 417.9,516.13 417.9,509.68 "
   id="polygon20" />
	<polygon
   class="st2"
   points="357.39,625.94 357.39,625.24 350.4,628.92 350.4,633.05 387.64,633.05 417.91,633.05 417.91,625.19 417.9,625.19 417.9,625.94 387.64,625.94 "
   id="polygon22" />
	<polygon
   class="st2"
   points="673.98,521.12 643.72,521.12 613.47,521.12 613.47,625.19 643.72,625.19 673.97,625.19 673.98,625.2 "
   id="polygon24" />
	<polygon
   class="st2"
   points="643.72,625.94 613.47,625.94 613.47,625.19 613.46,625.19 613.46,633.05 643.72,633.05 680.97,633.05 680.97,628.92 673.98,625.2 673.98,625.94 "
   id="polygon26" />
	<polygon
   class="st2"
   points="643.72,675.22 677.32,675.22 677.32,637.99 643.72,637.99 613.46,637.99 613.46,675.22 "
   id="polygon28" />
	<path
   class="st2"
   d="m 425.86,675.22 h 26.67 v -78.4 c 0,-26.97 28.28,-48.83 63.15,-48.83 34.88,0 63.16,21.86 63.16,48.83 v 78.4 h 26.68 V 499.15 H 425.86 Z"
   id="path30" />
</g>
<polygon
   class="st2"
   points="199.76,637.48 199.76,619.07 210.28,619.07 210.28,637.48 223.51,637.48 223.51,648.23 210.28,648.23 210.28,677.22 199.76,677.22 199.76,648.23 186.7,648.23 186.7,637.48 "
   id="polygon34"
   transform="translate(-82.44,-65.59)" />
<polygon
   class="st2"
   points="823.3,635.82 823.3,617.42 834.01,617.42 834.01,635.82 847.06,635.82 847.06,646.58 834.01,646.58 834.01,675.57 823.3,675.57 823.3,646.58 810.25,646.58 810.25,635.82 "
   id="polygon36"
   transform="translate(-82.44,-65.59)" />
<polygon
   class="st2"
   points="299.41,787.35 300.05,787.35 300.89,786.72 303.86,782.89 307.04,778.2 311.48,771.39 315.72,765.01 316.99,762.87 316.99,762.02 316.56,761.17 314.03,759.04 315.29,757.12 319.11,760.1 322.29,762.02 324.4,763.3 326.31,783.95 328.01,797.58 331.39,792.47 337.53,783.31 340.29,778.63 340.51,777.35 339.65,776.29 337.32,774.58 338.6,772.88 343.47,776.29 348.97,779.7 347.71,781.61 345.59,780.33 344.31,779.91 343.89,780.12 342.4,781.61 340.29,784.81 336.26,790.34 328.64,801.84 325.04,808.01 324.62,808.01 321.23,805.03 319.32,789.49 317.2,768.41 310,779.06 305.55,786.08 303.65,789.28 303.86,789.91 304.28,790.76 306.19,792.25 306.61,792.47 305.55,794.17 300.89,791.19 295.18,787.35 296.45,785.65 "
   id="polygon38"
   transform="translate(-82.44,-65.59)" />
<polygon
   class="st2"
   points="233.11,723.91 233.74,724.34 234.39,724.12 237.35,721.99 241.16,718.59 250.27,710.5 253.87,706.87 256.4,704.32 256.62,703.68 256.4,702.84 254.5,700.48 256.2,699 261.92,705.82 267.21,711.35 265.52,712.83 262.98,710.5 262.35,710.28 260.86,711.13 254.93,716.03 252.81,718.16 257.89,724.12 264.04,730.94 266.37,728.81 270.18,725.4 272.93,722.63 272.93,721.99 272.72,721.35 270.81,718.8 272.51,717.31 277.38,723.06 283.52,729.66 281.83,731.15 279.71,729.02 278.86,728.6 278.22,728.6 275.47,730.94 271.45,734.34 262.55,742.43 258.74,745.84 256.2,748.6 255.98,749.25 256.4,749.89 258.31,752.44 256.62,753.93 250.69,747.11 245.61,741.58 247.3,740.09 249.64,742.43 250.27,742.64 251.96,741.58 257.68,736.68 261.71,733.06 256.83,727.32 251.54,721.35 250.27,720.29 246.24,723.91 242.64,727.53 239.89,730.3 239.68,730.72 239.89,731.36 241.8,733.91 240.1,735.62 235.23,729.87 229.3,723.27 230.99,721.78 "
   id="polygon40"
   transform="translate(-82.44,-65.59)" />
<path
   class="st2"
   d="m 207.89,710.26 1.06,-3.62 8.9,-28.31 -2.75,-2.34 -5.51,2.98 -16.1,8.3 -5.93,2.99 -4.02,1.91 -0.85,0.21 -0.84,-0.21 -2.12,-1.49 -1.27,1.7 4.45,3.83 4.44,4.05 1.49,-1.71 -1.91,-1.7 -0.64,-1.06 0.21,-1.06 4.03,-2.34 2.75,-1.7 10.16,8.73 -2.12,5.75 -0.84,2.12 -0.85,0.22 -2.97,-2.13 -1.27,1.7 6.77,5.96 5.51,4.68 1.27,-1.49 -0.63,-0.86 -1.06,-1.28 -0.21,-0.43 v -0.85 z m -3.6,-13.84 -4.02,-3.4 -4.03,-3.83 12.71,-6.61 z"
   id="path42" />
<polygon
   class="st2"
   points="339.23,812.91 339.66,812.7 340.5,812.05 342.83,807.8 345.38,802.9 349.19,795.45 352.37,788.63 353.21,786.29 353.21,785.44 352.79,784.59 350.03,782.89 350.88,780.97 355.12,783.1 358.51,784.81 360.84,785.65 365.29,805.88 368.89,819.29 371.43,813.76 376.3,803.75 378.42,798.85 378.63,797.58 377.57,796.73 375.24,795.24 376.09,793.31 381.17,796.09 387.32,798.85 386.26,800.77 383.92,799.91 382.65,799.49 382.23,799.7 380.96,801.62 379.27,804.81 376.09,810.99 370.15,823.55 367.19,829.94 366.77,829.94 363.17,827.39 359.14,812.48 354.27,791.62 348.55,803.33 344.95,810.78 343.68,814.4 343.68,814.82 344.31,815.46 346.43,816.74 347.06,816.95 346.01,818.87 341.14,816.31 335,813.55 335.84,811.42 "
   id="polygon44"
   transform="translate(-82.44,-65.59)" />
<polygon
   class="st2"
   points="402.15,806.74 401.5,806.74 401.09,806.95 400.24,808.44 399.18,810.77 396.63,817.16 393.03,827.18 391.34,831.65 390.49,834.83 390.49,835.47 391.13,836.11 393.88,837.39 393.24,839.52 384.77,836.11 377.79,833.77 378.63,831.43 381.59,832.49 382.45,832.49 382.66,832.07 383.72,829.94 386.05,824.62 389.86,814.4 392.19,808.22 393.24,804.18 393.24,803.75 392.82,803.11 389.86,801.84 390.49,799.7 397.48,802.48 405.96,805.45 405.1,807.58 "
   id="polygon46"
   transform="translate(-82.44,-65.59)" />
<polygon
   class="st2"
   points="482.85,856.35 483.48,855.92 483.7,855.7 484.12,851.01 484.75,841.44 485.18,831.44 485.18,825.69 484.97,825.26 483.7,824.82 480.95,824.62 481.16,822.28 488.56,822.7 497.46,823.12 497.25,825.47 493.65,825.69 493.22,826.11 492.8,829.3 492.38,836.54 491.96,843.99 491.74,851.45 491.53,855.92 496.19,856.35 503.18,856.13 504.45,855.92 504.88,855.06 506.15,850.59 508.26,850.59 508.26,851.45 507.2,856.77 506.79,859.53 505.3,859.75 500.42,859.75 494.49,859.32 488.56,858.89 480.73,858.68 480.95,857.41 "
   id="polygon48"
   transform="translate(-82.44,-65.59)" />
<g
   id="g52"
   transform="translate(-82.44,-65.59)">
	<path
   class="st2"
   d="m 434.87,817.9 -0.86,-1.98 -1.71,-1.46 -2.56,-1.46 -3.42,-1.29 -4.87,-1.12 -3.77,-1.03 -4.27,-1.29 -3.34,-1.03 -1.28,-0.44 -0.43,2.06 2.31,0.86 1.29,0.68 0.17,0.61 -1.02,4.89 -2.31,8.08 -3.85,13.23 -1.02,3.01 -2.57,1.03 -0.43,1.03 5.3,1.29 8.46,2.58 3.16,0.69 2.56,0.17 2.57,-0.43 2.14,-0.61 2.05,-1.28 1.71,-1.55 1.45,-1.89 0.86,-2.14 0.43,-2.32 -0.17,-2.32 -0.86,-1.98 -1.29,-1.63 -2.31,-1.54 -3.58,-1.72 5.3,-0.18 2.05,-0.86 1.96,-1.29 1.28,-1.72 0.86,-1.88 0.34,-1.89 z m -11.03,14.85 0.17,2.15 -0.6,2.5 -1.28,3.26 -1.11,1.29 -1.02,0.77 -1.28,0.69 -1.46,0.17 h -1.45 l -1.54,-0.17 -2.99,-1.11 0.25,-0.61 0.6,-3.18 3.41,-11.25 1.88,0.35 2.57,0.86 1.71,1.12 1.28,1.46 z m 3.17,-12.1 -0.68,1.71 -0.86,1.2 -0.77,1.12 -1.11,0.6 -1.28,0.25 h -1.46 l -3.16,-0.69 -1.54,-0.43 1.11,-3.61 1.03,-3.78 1.54,-4.04 2.91,0.6 1.96,0.6 1.2,0.86 0.85,1.12 0.43,1.29 0.26,1.45 z"
   id="path50" />
</g>
<g
   id="g56"
   transform="translate(-82.44,-65.59)">
	<path
   class="st2"
   d="m 472.57,855.64 -1.49,-0.43 -0.42,-0.42 -0.42,-0.64 -0.64,-2.56 -1.06,-3.83 -6.99,-28.53 -3.6,-0.63 -3.18,5.33 -9.33,15.54 -3.6,5.76 -2.34,3.61 -0.84,0.86 -0.64,0.21 -2.54,-0.21 -0.42,2.13 5.93,0.85 5.93,1.06 0.42,-2.13 -3.6,-1.06 -0.42,-0.85 2.11,-4.26 1.49,-2.98 13.13,2.34 1.27,5.96 0.42,2.13 -0.63,0.64 -3.6,-0.22 -0.21,2.13 8.9,1.28 7.2,1.49 0.21,-2.12 z m -18.43,-14.91 -5.5,-0.84 7.41,-12.56 3.4,14.26 z"
   id="path54" />
</g>
<polygon
   class="st2"
   points="546.61,856.34 547.02,855.92 547.24,854.86 546.61,848.47 545.34,840.16 543.85,831.01 542.79,826.32 542.37,825.69 541.52,825.47 538.55,825.69 538.13,823.55 545.55,822.49 550.63,821.63 553.8,826.32 556.14,829.94 566.73,845.48 569.48,837.18 571.81,829.51 574.14,821.63 574.99,818.01 579.43,817.37 586.86,816.1 587.28,818.24 586.86,818.45 584.73,818.87 583.67,819.51 583.25,820.36 583.46,822.06 583.88,825.26 584.73,832.49 586.22,841.44 586.86,845.27 587.7,849.32 588.12,849.74 588.75,850.17 591.94,849.96 592.35,852.08 584.1,853.14 576.26,854.42 575.84,852.3 579.43,851.44 579.65,850.81 579.86,850.17 579.23,843.78 576.26,825.05 572.24,838.03 570.33,844.42 568.21,851.66 566.73,856.34 565.04,856.56 561.43,851.23 555.5,842.29 546.82,829.51 548.72,842.07 549.99,849.53 550.84,854.42 551.27,855.28 552.11,855.49 555.29,855.49 555.71,857.62 549.78,858.25 543.64,859.53 543.22,857.19 "
   id="polygon58"
   transform="translate(-82.44,-65.59)" />
<polygon
   class="st2"
   points="603.37,813.55 602.73,813.97 602.52,814.4 602.73,816.1 603.37,818.65 604.86,825.26 607.61,835.47 608.88,840.16 609.94,843.36 610.58,843.78 611.42,843.99 614.39,843.36 614.81,845.49 606.13,847.62 599.14,849.74 598.5,847.62 601.46,846.55 602.1,846.12 602.1,845.7 601.68,843.14 600.41,837.61 597.65,826.96 595.96,820.57 594.69,816.74 594.26,816.31 593.62,816.1 590.45,816.74 589.82,814.61 597.02,812.69 605.7,810.35 606.33,812.48 "
   id="polygon60"
   transform="translate(-82.44,-65.59)" />
<polygon
   class="st2"
   points="631.33,807.16 630.06,806.52 628.15,806.09 625.83,806.3 623.71,806.73 620.74,808.22 619.89,809.29 619.05,810.35 618.41,812.69 618.63,814.82 619.26,816.31 620.11,817.38 620.95,818.01 622.01,818.44 625.4,818.44 629.43,817.8 633.03,817.38 636.63,817.38 639.18,818.44 641.08,820.36 642.14,821.85 642.77,823.33 643.41,826.53 643.41,829.3 642.77,831.43 641.92,833.56 640.44,835.47 638.95,837.18 636.21,839.09 632.4,840.8 629.64,841.65 626.89,842.07 624.13,842.07 621.16,841.86 620.32,838.25 618.84,833.13 620.95,832.49 622.65,836.75 624.56,837.82 626.89,838.25 629.43,838.25 632.18,837.82 634.3,836.75 635.99,835.47 637.27,833.98 637.9,832.28 637.9,830.37 637.48,828.66 636.84,827.18 635.99,826.11 634.93,825.47 633.66,825.05 631.75,825.05 628.79,825.26 622.44,825.89 620.32,825.89 618.41,825.26 616.93,824.41 615.65,823.12 614.39,821.42 613.76,819.72 613.12,816.95 613.12,814.19 613.53,811.63 614.81,809.5 616.51,807.58 618.41,806.09 620.74,804.82 623.07,803.96 628.15,802.69 630.7,802.26 632.82,802.48 633.25,802.9 633.87,806.3 635.15,810.35 633.03,811.2 "
   id="polygon62"
   transform="translate(-82.44,-65.59)" />
<polygon
   class="st2"
   points="660.77,794.17 659.5,793.74 657.39,793.53 655.27,793.95 653.15,794.59 650.4,796.3 649.55,797.37 648.91,798.64 648.49,800.99 648.91,803.11 649.76,804.6 650.61,805.45 651.67,806.09 652.73,806.31 655.9,806.09 659.93,805.03 663.32,804.18 667.13,803.96 669.67,804.6 671.79,806.31 672.86,807.8 673.69,809.28 674.76,812.26 674.97,815.25 674.55,817.38 673.69,819.5 672.64,821.64 671.37,823.33 668.61,825.69 665.23,827.6 662.26,828.66 659.72,829.51 656.97,829.72 654,829.94 652.94,826.32 650.82,821.42 652.94,820.36 655.06,824.62 656.97,825.26 659.29,825.69 662.05,825.47 664.59,824.62 666.49,823.33 668.2,821.85 669.25,820.36 669.67,818.65 669.67,816.74 669.04,815.04 668.2,813.76 667.34,812.69 666.07,812.05 664.8,811.84 659.93,812.48 653.78,813.76 651.67,813.97 649.76,813.55 648.06,812.69 646.58,811.63 645.31,810.14 644.47,808.44 643.41,805.67 643.19,802.9 643.62,800.35 644.47,798.21 645.95,796.3 647.85,794.59 649.97,793.1 652.3,791.83 657.18,789.91 659.72,789.49 661.83,789.49 662.26,789.91 663.32,793.1 664.8,797.15 662.9,798 "
   id="polygon64"
   transform="translate(-82.44,-65.59)" />
<polygon
   class="st2"
   points="771.13,701.13 770.93,701.98 771.13,702.41 772.2,703.68 774.1,705.39 779.39,709.86 787.45,716.46 791.04,719.43 794.01,721.56 794.65,721.56 795.28,721.14 797.4,719.01 799.09,720.29 793.37,727.32 788.72,733.06 787.03,731.57 788.72,729.23 789.14,728.38 788.93,727.96 787.23,726.25 782.79,722.42 774.52,715.39 769.44,711.35 766.05,708.79 765.42,708.79 764.77,709 762.67,711.35 760.75,709.86 765.63,704.32 771.34,697.29 773.04,698.78 "
   id="polygon66"
   transform="translate(-82.44,-65.59)" />
<polygon
   class="st2"
   points="703.14,763.3 709.71,758.19 712.46,755.85 715.01,753.72 715.85,753.08 717.12,754.78 715.43,756.27 714.58,757.34 714.79,758.41 716.27,760.53 719.03,764.15 722.63,768.83 724.75,771.18 728.34,775.65 730.04,777.14 731.73,777.99 733.64,778.2 735.55,777.99 737.88,777.14 740.21,775.43 742.54,773.31 744.02,770.96 744.45,768.62 744.24,766.49 742.96,763.94 740.42,760.1 737.04,755.85 731.73,749.46 728.98,746.69 728.13,746.47 726.86,747.11 724.95,748.39 723.69,746.69 728.13,743.29 728.56,742.86 733,739.24 734.27,740.94 732.79,742.22 732.16,743.08 732.37,743.92 735.34,748.39 739.79,754.14 743.6,759.04 746.35,762.87 747.41,765 747.83,767.13 748.05,769.26 747.62,771.39 746.77,773.73 745.51,775.86 743.81,777.99 741.48,780.12 738.31,782.46 734.91,783.95 732.59,784.81 730.46,785.02 728.56,784.81 726.86,784.16 725.38,783.31 724.11,782.25 720.94,778.42 717.76,774.58 713.73,769.47 709.49,764.36 708.22,763.3 707.16,763.09 704.41,765 "
   id="polygon68"
   transform="translate(-82.44,-65.59)" />
<polygon
   class="st2"
   points="737.67,734.76 741.06,731.15 744.24,727.74 747.83,723.91 750.59,721.57 752.5,719.86 754.61,719.23 756.74,719.23 758.86,719.86 760.96,721.35 762.66,723.69 763.51,726.68 763.72,728.38 763.51,730.08 762.24,733.91 764.99,734.55 766.69,734.76 767.32,734.98 774.52,736.26 777.49,736.9 781.31,737.32 782.36,737.32 783.63,736.26 785.12,737.75 781.09,741.79 778.33,744.77 776.85,744.14 766.48,741.79 759.07,740.3 756.74,740.3 756.52,739.45 758.21,737.32 759.28,735.62 759.48,733.91 759.28,731.79 758.43,729.87 756.94,727.96 755.25,726.68 753.34,726.04 751.44,726.04 749.74,726.47 748.46,727.53 746.77,729.02 745.3,730.93 748.05,734.13 755.04,740.93 760.96,746.69 765.21,750.95 766.9,752.02 767.32,752.02 767.96,751.8 770.29,749.67 771.98,751.37 765.42,757.55 760.33,763.09 758.86,761.38 760.96,758.83 761.18,758.19 760.75,757.55 758.86,755.21 753.55,749.67 746.77,743.08 742.75,739.24 739.78,736.69 739.15,736.69 736.18,739.02 734.7,737.54 "
   id="polygon70"
   transform="translate(-82.44,-65.59)" />
<g
   id="g74"
   transform="translate(-82.44,-65.59)">
	<path
   class="st2"
   d="m 713.53,787.97 -1.28,-4.46 -1.9,-4.26 -1.7,-2.35 -1.69,-1.91 -1.7,-1.5 -1.9,-1.27 -2.33,-0.85 -2.54,-0.64 -2.97,-0.21 -2.95,0.21 -4.03,1.28 -3.8,2.13 -3.82,2.77 -2.97,2.98 -1.9,2.77 -1.28,3.41 -0.63,3.62 0.21,3.62 1.27,3.83 1.91,4.04 1.69,2.34 1.7,2.13 1.9,1.7 2.12,1.28 2.12,1.06 2.12,0.65 2.33,0.21 h 2.34 l 2.33,-0.43 2.33,-0.64 2.33,-1.06 2.54,-1.28 4.02,-3.19 3.18,-3.41 1.69,-2.77 1.07,-3.19 0.42,-3.41 z m -6.15,10.23 -0.42,1.49 -1.91,2.35 -2.33,1.91 -2.97,1.49 -3.17,0.42 -1.49,-0.21 -1.69,-0.42 -3.18,-1.92 -1.91,-1.48 -1.48,-1.71 -3.39,-4.47 -1.69,-3.62 -1.28,-3.61 -0.2,-3.41 0.2,-1.49 0.64,-1.49 1.7,-2.77 2.75,-2.13 2.74,-1.49 2.34,-0.43 2.33,0.21 2.33,0.64 2.33,1.28 2.33,1.92 2.12,2.34 2.11,2.98 2.12,4.26 1.26,4.25 0.22,3.62 z"
   id="path72" />
</g>
<polygon
   class="st2"
   points="498.61,370.91 499.7,368.91 501.51,367.27 504.23,365.81 508.04,364.71 512.4,364.37 512.4,363.04 510.95,361.98 512.94,359.06 514.94,361.98 513.37,363.13 513.37,364.41 517.66,364.71 521.46,365.81 524.37,367.27 526.73,368.91 528.17,370.91 529.26,372.37 529.99,373.83 497.53,373.83 497.89,372.37 "
   id="polygon76"
   transform="translate(-82.44,-65.59)" />
<path
   class="st2"
   d="m 432.72,380.37 0.34,-1.11 1.61,-3.1 2.33,-3.47 3.22,-3.28 2.14,-1.64 2.33,-1.46 2.68,-1.27 2.87,-0.92 3.4,-0.91 3.76,-0.73 3.94,-0.36 h 4.47 4.83 l 5.37,0.72 5.73,0.73 6.27,1.28 14.15,4.01 7.88,2.73 8.59,3.28 8.96,3.46 6.63,3.06 -19.28,-27.42 c -23,-11.93 -43.83,-19.37 -59.34,-15.78 v -3.33 c 14.93,-2.77 35.95,3.68 60.74,16.42 l 28.9,40.78 0.43,0.5 -99.9,-9.67 v 4.74 h -13.05 -2.83 -12.59 v -4.74 l -95.45,10.07 -3.81,0.4 -1.01,0.1 4.29,-4.73 25.86,-36.48 c 24.8,-12.74 45.81,-19.18 60.74,-16.41 v 3.32 c -15.51,-3.59 -36.34,3.85 -59.34,15.78 l -18.95,26.93 5.66,-2.45 8.95,-3.82 8.59,-3.1 7.7,-2.56 7.34,-2.37 6.8,-1.64 6.44,-1.28 5.73,-0.91 5.2,-0.55 5.01,-0.18 4.47,0.18 4.12,0.37 3.58,0.73 3.4,0.73 2.86,1.09 2.69,1.28 2.32,1.45 2.15,1.46 3.22,3.28 2.33,3.28 1.44,3.47 0.23,0.64 v -22.45 h -21.71 0.19 l 0.54,-1.64 1.09,-1.46 1.45,-1.09 1.45,-0.91 3.08,-0.73 0.91,-0.18 2.18,-0.55 1.81,-0.73 3.45,-2.18 2.17,-1.82 0.72,-0.92 1.09,-2.37 0.18,-1.82 -0.36,-1.27 -0.91,-0.92 -0.72,-0.54 -1.09,-0.55 h -1.08 l -1.63,-0.18 -4.36,-1.09 -2.72,-0.92 -2.9,-1.82 -3.09,-1.82 -3.08,-2.74 -4.35,-3.65 -4,-2.92 -3.98,-2.73 -6.71,-4.01 -21.04,-11.67 h 8.18 l -1.65,-1.27 -2.17,-2.37 -2.55,-2.73 -2,-3.46 -1.81,-3.83 -0.37,-1.83 -0.18,-1.82 0.18,-2.01 0.73,-2 0.91,-2 1.99,-4.92 0.73,-3.1 0.54,-3.83 v -3.83 l -1.09,-4.01 -2.53,-9.3 1.81,2.73 4.35,6.75 2.18,4.56 1.99,4.74 1.45,4.92 0.36,5.11 0.54,-0.73 0.91,-2 0.73,-4.01 0.18,-2.74 v -3.28 l 2.18,4.74 1.27,3.64 0.18,1.64 v 1.1 l -0.18,1.46 -0.73,3.28 -1.27,3.84 -1.09,1.82 -1.45,1.46 -0.73,0.54 -1.45,2.37 -0.91,1.83 -0.73,2.55 -0.18,3.1 0.46,2.92 h 4.8 l 5.26,4.37 4.9,3.65 5.07,3.1 1.09,0.73 2.18,0.73 1.64,0.37 1.63,-0.55 1.63,-0.54 1.45,-1.46 4.53,-3.28 3.63,-1.82 1.81,-0.55 1.45,-0.18 h 30.47 l 1.45,0.55 3.81,0.72 2.35,1.1 2.17,1.27 2,1.64 2,2.19 3.44,-1.64 4,-1.83 4.71,-1.46 4.89,-0.73 2.17,-0.37 h 2.37 l 1.99,0.55 1.81,0.72 1.45,1.28 1.09,1.83 -3.08,4.74 -1.09,-0.73 -2.9,-1.82 -1.81,-0.73 -2,-0.73 -2.17,-0.18 -2.18,0.18 -1.82,0.55 -3.99,1.46 -2.54,1.27 -2.17,1.64 -1.82,2.19 -1.27,2.73 -0.36,1.46 -0.91,1.46 -1.27,1.83 -1.63,2 -2.54,2 -3.45,1.82 -4.35,1.46 -7.44,0.73 h -1.09 l -0.73,0.37 -1.09,0.54 -0.9,0.92 -0.36,1.27 0.18,1.82 0.91,2.37 0.9,1.09 2.17,1.82 3.45,2.37 1.82,0.92 2.18,0.36 1.27,0.18 2.54,0.92 1.45,0.55 1.45,1.09 1.27,1.28 0.9,1.64 h -21.35 v 21.82 z"
   id="path78" />
<polygon
   class="st2"
   points="735.52,414.43 736.57,418.24 730.47,423.74 716.57,436.22 733.41,438.97 743.09,440.24 743.93,444.04 745.41,448.49 744.14,448.91 743.09,445.95 742.25,445.31 740.14,445.52 734.47,447.22 724.79,449.97 719.52,451.66 717.2,452.72 716.79,453.57 717.63,456.74 716.15,456.95 714.68,451.02 712.79,445.1 714.05,444.68 715.1,447.64 715.74,448.28 717.83,447.85 723.72,446.38 738.88,441.93 722.05,439.18 715.53,438.12 710.05,437.49 709.84,436.65 710.89,435.8 713.63,433.47 731.1,417.61 716.79,421.84 711.31,423.53 709,424.59 708.79,425.43 709.42,428.61 707.95,428.82 706.69,423.95 705,418.87 706.48,418.45 707.53,421.41 708.16,421.84 710.26,421.63 716.15,419.93 725.63,417.18 731.1,415.49 733.41,414.64 733.63,413.59 732.99,410.63 734.25,410.21 "
   id="polygon80"
   transform="translate(-82.44,-65.59)" />
<polygon
   class="st2"
   points="720.15,381.65 722.89,386.94 721.84,387.58 720.15,384.82 719.31,384.4 717.42,385.03 711.94,387.79 704.79,391.38 701.42,393.07 699.53,394.55 698.69,395.82 698.27,397.3 698.27,398.57 698.47,400.27 699.74,403.86 700.79,405.76 702.05,407.24 703.53,408.51 704.58,409.15 706.9,409.57 709.84,408.94 714.05,407.03 719.94,404.07 724.99,401.53 727.09,400.06 727.09,399.2 726.04,396.25 727.31,395.61 729.41,400.27 731.94,405.13 730.68,405.76 729.2,403.01 728.36,402.59 726.25,403.22 720.78,405.76 714.47,409.15 710.26,410.84 707.53,411.68 705.21,411.68 702.9,410.84 701.21,409.78 699.53,408.3 698.06,406.4 696.8,404.07 695.53,401.11 694.9,398.57 694.69,396.25 695.11,394.34 695.74,392.65 696.59,391.59 698.47,390.11 701.64,388.42 710.05,384.19 715.1,381.43 717.21,380.17 717.42,379.11 716.15,376.36 717.42,375.73 "
   id="polygon82"
   transform="translate(-82.44,-65.59)" />
<polygon
   class="st2"
   points="650.08,338.92 650.71,338.92 652.39,337.66 655.97,334.27 668.39,321.79 669.03,321.16 669.03,319.89 668.81,319.04 667.33,317.35 668.18,316.29 671.33,319.68 673.64,321.79 673.02,326.02 672.18,333.21 671.33,343.36 670.7,350.98 670.49,353.94 681.65,342.94 685.01,339.34 686.27,337.44 686.27,336.81 684.38,334.69 685.43,333.63 689.01,337.23 692.16,340.4 691.12,341.46 688.8,339.56 688.38,339.56 686.48,340.82 682.91,344.21 675.75,351.61 667.54,359.87 666.49,357.96 666.08,357.53 666.08,357.32 666.08,356.06 666.28,352.04 666.91,347.6 669.03,323.91 657.45,335.54 654.07,339.13 652.6,341.03 652.6,341.46 654.5,343.79 653.45,344.85 650.71,341.68 646.71,338.07 647.77,337.02 "
   id="polygon84"
   transform="translate(-82.44,-65.59)" />
<polygon
   class="st2"
   points="629.67,323.48 630.3,323.48 631.77,321.79 634.93,317.98 641.45,309.1 644.82,304.44 645.87,302.33 645.66,301.48 643.34,299.36 643.98,298.31 648.82,301.91 654.07,305.71 659.55,309.73 662.71,312.28 661.02,313.75 658.08,317.14 657.02,316.29 659.13,312.91 657.45,310.79 653.87,307.83 651.97,306.56 649.65,305.08 646.92,308.68 642.71,314.39 646.29,317.14 649.87,319.68 650.71,319.89 652.18,318.62 653.02,317.56 654.07,318.41 653.87,318.62 651.13,322.21 648.18,326.23 647.13,325.39 647.77,324.11 648.82,322.42 648.4,321.37 644.82,318.41 641.45,316.08 637.45,321.16 634.09,326.02 639.35,330.24 642.71,332.58 644.61,333.42 646.29,332.15 648.4,330.24 649.45,331.1 644.82,336.6 641.03,334.06 630.93,326.23 626.3,323.06 627.14,322 "
   id="polygon86"
   transform="translate(-82.44,-65.59)" />
<polygon
   class="st2"
   points="619.78,319.04 613.89,315.87 614.73,314.6 617.46,316.08 618.3,316.08 619.56,314.39 622.93,309.1 627.98,300.63 630.93,295.78 631.77,293.45 631.56,292.6 629.04,290.69 629.67,289.64 634.93,293.02 640.39,296.2 639.77,297.26 637.03,295.98 635.98,295.98 634.72,297.68 631.56,302.75 626.3,311.21 623.57,316.29 622.52,318.4 622.93,319.25 625.46,321.16 624.83,322.42 "
   id="polygon88"
   transform="translate(-82.44,-65.59)" />
<polygon
   class="st2"
   points="599.15,300.64 600.21,281.18 600.21,277.58 599.99,276.94 597.9,275.68 598.53,274.41 603.58,276.94 609.04,279.27 608.41,280.54 605.68,279.49 605.05,279.49 604.63,279.7 604.42,280.97 604,285.83 602.94,304.02 613.89,293.66 618.93,288.58 619.99,287.1 620.2,286.68 619.78,286.26 617.04,284.56 617.67,283.29 621.88,285.4 626.09,287.31 625.67,288.37 623.78,287.73 622.93,288.16 619.99,290.69 607.15,302.75 603.78,305.93 602.1,307.62 600.62,309.31 598.73,308.25 "
   id="polygon90"
   transform="translate(-82.44,-65.59)" />
<polygon
   class="st2"
   points="570.32,265.74 574.33,267.01 577.9,268.07 581.69,269.12 585.05,270.18 587.16,271.44 588.42,272.93 589.26,274.62 589.47,276.52 589.26,278.22 588.42,279.91 587.37,281.39 585.69,282.66 583.79,283.5 581.48,283.93 578.74,283.93 580.22,287.73 583.38,296.19 585.05,300.21 585.26,300.43 586.53,301.06 586.11,302.32 583.58,301.48 580.43,300.64 577.9,293.23 576.01,288.15 573.28,281.81 573.7,281.39 575.37,281.81 578.74,282.45 580.22,282.24 581.48,281.81 582.74,281.18 583.58,280.12 584.42,279.06 584.84,277.79 585.05,275.25 584.42,273.14 583.58,272.29 582.74,271.44 579.8,270.18 577.69,269.76 575.37,269.55 574.74,271.65 572.85,277.58 570.12,286.68 568.64,292.17 568.22,294.71 568.64,295.35 571.59,296.62 571.17,297.89 565.9,295.98 559.17,294.29 559.59,293.02 562.75,293.66 563.59,293.23 564.43,291.33 566.32,285.63 569.07,276.1 570.75,270.6 571.17,268.07 570.53,267.43 567.59,266.37 568.01,264.89 "
   id="polygon92"
   transform="translate(-82.44,-65.59)" />
<polygon
   class="st2"
   points="537.5,289.01 538.13,288.79 538.75,286.67 539.6,281.81 541.29,270.82 542.12,265.32 542.34,262.77 541.49,262.14 538.55,261.3 538.75,260.02 544.65,261.08 551.17,262.14 557.91,262.99 561.7,263.84 560.86,265.95 559.8,270.39 558.54,270.18 558.96,266.16 556.43,265.1 551.81,264.04 549.49,263.62 546.97,263.41 546.13,267.85 544.86,275.04 549.49,275.89 553.7,276.31 554.54,276.1 555.17,274.4 555.59,272.93 556.86,273.14 556.86,273.56 556.02,278 555.39,282.87 553.91,282.66 554.12,281.18 554.12,279.27 553.28,278.64 548.65,277.58 544.65,276.95 543.39,283.3 542.55,289.21 549.49,290.69 553.28,291.12 555.39,290.91 556.23,289.21 557.28,286.46 558.75,286.67 557.07,293.66 552.65,293.23 540.03,291.12 534.34,290.27 534.55,289.01 "
   id="polygon94"
   transform="translate(-82.44,-65.59)" />
<polygon
   class="st2"
   points="514.56,281.81 514.77,285.4 516.03,286.68 518.35,287.95 521.51,288.58 523.61,288.37 525.5,287.73 527.19,286.68 528.24,285.19 528.87,283.51 529.29,281.81 528.87,279.27 528.45,278.43 527.61,277.58 525.72,276.73 522.56,276.1 518.35,275.26 516.45,274.41 515.19,273.56 514.35,272.29 513.72,271.03 513.3,269.34 513.09,267.64 513.51,265.32 514.56,262.99 516.45,261.08 518.77,259.6 521.51,258.76 524.25,258.54 528.24,259.39 532.24,260.87 531.61,263.41 531.4,266.79 529.92,266.79 529.92,263.2 528.45,261.72 526.34,260.66 523.82,260.23 521.08,260.66 519.82,261.08 518.98,261.93 518.14,262.99 517.51,264.04 516.88,266.79 516.88,268.49 517.3,269.55 518.35,270.6 519.61,271.44 523.4,272.29 528.24,273.14 529.92,273.99 531.19,274.83 532.03,275.89 532.66,276.94 533.08,278.43 533.08,280.12 532.87,282.24 532.03,284.14 530.98,285.83 529.29,287.52 527.4,288.79 525.29,289.63 522.77,290.27 520.03,290.27 516.03,289.63 512.46,288.37 513.09,281.6 "
   id="polygon96"
   transform="translate(-82.44,-65.59)" />
<g
   id="g104"
   transform="translate(-82.44,-65.59)">
	<path
   class="st2"
   d="m 708.61,365.24 -1.27,-3.59 -2.55,-4.18 -2.97,-3.84 -2.9,-4.19 -3.22,-4.43 -1.02,0.6 1.44,2.73 v 0.68 l -1.61,1.45 -4.07,2.99 -6.88,5.04 -5.27,3.41 -3.4,2.31 -2.12,-1.02 -0.85,0.6 2.8,3.58 2.04,3.16 2.12,2.98 2.13,2.73 1.86,1.96 1.96,1.45 2.03,1.02 2.38,0.85 2.72,0.26 h 2.72 l 2.97,-0.42 2.89,-1.12 2.81,-1.62 1.6,-1.53 1.28,-1.45 1.11,-1.71 0.85,-1.71 0.85,-3.59 z m -3.22,2.14 -1.02,2.99 -1.87,2.56 -2.72,2.48 -2.37,1.53 -2.46,1.02 -2.55,0.69 -2.12,0.17 -2.13,-0.42 -1.7,-0.43 -1.45,-0.85 -1.68,-1.28 -1.46,-1.71 -1.69,-1.88 -2.55,-4.44 3.14,-2.31 5.25,-4.01 6.97,-4.86 2.55,-1.71 3.14,-2.13 3.4,4.02 2.29,4.01 0.85,1.7 0.18,1.71 z"
   id="path98" />
	<path
   class="st2"
   d="m 497.06,270.53 -0.68,-1.88 -0.84,-1.7 -1.19,-1.45 -2.81,-2.31 -3.31,-1.54 -3.82,-0.42 -4.58,0.42 -4.84,0.69 -5.09,0.85 -5.44,0.6 0.17,1.28 h 2.97 l 0.42,0.17 0.6,2.39 0.85,4.87 1.28,8.62 0.59,6.15 0.43,4.01 -1.87,1.45 0.26,1.11 4.41,-0.85 3.74,-0.43 3.56,-0.42 3.4,-0.6 2.54,-0.85 2.04,-1.12 1.95,-1.28 1.87,-1.87 1.44,-2.14 1.27,-2.48 1.11,-2.82 0.17,-2.9 -0.17,-3.16 z m -3.82,9.3 -0.6,2.56 -1.1,2.13 -1.02,1.7 -1.28,1.28 -1.44,0.77 -1.95,0.86 -2.05,0.68 -2.55,0.43 -5.09,0.43 -0.59,-3.85 -1.02,-6.74 -1.1,-8.45 -0.43,-2.99 -0.42,-3.84 5.26,-1.02 4.42,-0.43 3.57,0.59 2.8,1.71 2.04,2.13 1.52,2.99 0.85,3.75 0.18,2.82 z"
   id="path100" />
	<path
   class="st2"
   d="m 465.7,293.09 -1.11,-0.6 -4.83,-5.46 -14.95,-18.01 -1.27,0.42 -1.02,9.72 -1.45,13.15 -1.1,6.48 -0.43,1.97 -0.6,0.85 -1.86,0.6 0.33,1.45 4.25,-1.45 5.26,-1.45 -0.43,-1.54 -2.71,0.69 h -0.86 l -0.26,-0.42 v -2.31 l 0.69,-5.98 11.8,-3.75 4.42,5.46 0.59,1.02 v 0.69 l -0.59,0.43 -2.8,1.03 0.42,1.45 6.54,-2.3 4.67,-1.03 -0.43,-1.54 z m -22.33,-4.01 1.44,-13.92 8.83,10.76 z"
   id="path102" />
</g>
<g
   id="g108"
   transform="translate(-82.44,-65.59)">
	<path
   class="st2"
   d="m 426.53,306.94 -1.94,0.77 -1.28,-0.42 -5.87,-4.44 -18.51,-14.17 -1.02,0.68 1.02,9.48 1.27,13.32 0.43,6.57 v 2.13 l -0.43,0.6 -1.86,1.28 0.77,1.28 3.82,-2.31 4.84,-2.56 -0.85,-1.28 -2.55,1.11 -0.59,0.17 -0.43,-0.43 -0.59,-2.13 -0.68,-6.06 10.78,-6.15 5.6,4.43 0.85,1.02 v 0.43 l -0.42,0.68 -2.46,1.62 0.84,1.28 5.86,-3.59 4.24,-2.13 z m -24.63,1.62 -1.7,-13.91 11.13,8.62 z"
   id="path106" />
</g>
<polygon
   class="st2"
   points="393.35,328.34 388.09,332.36 387.46,331.31 389.78,329.2 389.99,328.34 389.15,326.44 385.56,321.58 379.88,313.54 376.52,308.89 374.84,306.99 373.78,306.99 371.26,308.68 370.41,307.62 375.46,304.02 380.52,300.21 381.36,301.27 379.04,303.38 378.62,304.24 379.67,305.93 383.04,311.01 388.93,319.04 392.3,323.69 393.98,325.39 395.03,325.39 397.56,323.91 398.41,324.97 "
   id="polygon110"
   transform="translate(-82.44,-65.59)" />
<polygon
   class="st2"
   points="353.16,331.52 348.32,326.44 354,321.79 358.21,318.19 363.05,313.55 367.26,309.73 371.68,315.44 370.62,316.29 369.15,314.81 367.47,313.33 367.05,313.12 366.84,313.33 364.95,314.6 362.84,316.5 360.74,318.19 364.32,322.63 372.52,331.94 376.3,336.17 378.2,337.86 379.25,337.66 381.78,335.75 382.62,336.8 378.2,340.61 373.15,345.06 372.31,344.21 374.62,341.88 374.84,341.04 373.57,339.14 369.78,334.48 361.37,325.17 360.1,323.69 357.57,321.16 355.26,323.27 352.1,326.23 351.68,326.87 352.95,328.98 354.22,330.67 "
   id="polygon112"
   transform="translate(-82.44,-65.59)" />
<polygon
   class="st2"
   points="346.21,372.55 346.21,371.92 344.74,370.23 341.17,367.06 327.7,355.63 327.07,355.21 325.81,355.21 324.96,355.42 323.28,357.11 322.23,356.26 325.38,352.88 327.28,350.34 331.7,350.77 338.64,350.77 348.74,350.98 356.52,350.98 359.47,350.77 347.48,340.61 343.69,337.44 341.79,336.38 341.17,336.38 339.06,338.5 338.01,337.65 341.37,333.63 344.11,330.25 345.16,331.09 343.69,333.63 343.69,334.27 345.16,335.96 348.74,339.14 356.74,345.9 365.57,353.31 363.68,354.57 363.26,355 363.05,355 361.79,355 357.79,355 353.37,355 329.8,354.79 342.21,365.58 346.21,368.53 348.11,369.81 348.74,369.81 350.84,367.69 351.9,368.53 348.96,371.71 345.58,375.94 344.53,375.09 "
   id="polygon114"
   transform="translate(-82.44,-65.59)" />
<polygon
   class="st2"
   points="332.75,394.34 332.53,393.71 330.85,392.23 326.64,389.48 317.39,383.76 312.55,380.81 310.23,379.74 309.4,380.17 307.7,382.71 306.44,381.86 309.81,376.78 313.18,371.28 316.54,365.36 318.86,362.19 320.33,363.67 323.91,366.42 323.28,367.48 319.7,365.57 317.81,367.48 315.07,371.49 314.02,373.4 312.75,375.73 316.33,378.26 322.44,382.08 325.18,378.26 327.06,374.46 327.28,373.4 326.01,372.13 324.75,371.28 325.59,370.23 325.81,370.44 329.59,372.97 333.8,375.51 333.16,376.78 331.7,375.94 330.01,375.09 328.96,375.73 326.22,379.53 324.33,383.13 329.59,386.51 334.85,389.68 338.64,383.97 340.54,380.6 341.17,378.48 339.91,376.99 337.8,374.88 338.43,373.82 344.32,378.05 342.22,381.86 335.27,392.86 332.53,397.72 331.48,396.88 "
   id="polygon116"
   transform="translate(-82.44,-65.59)" />
<polygon
   class="st2"
   points="329.17,404.7 326.43,410.63 325.18,409.99 326.22,407.24 326.22,406.19 324.54,405.13 319.07,402.38 310.23,397.94 304.97,395.4 302.65,394.55 301.81,394.98 300.34,397.72 299.07,397.09 302.02,391.59 304.76,385.88 305.81,386.3 304.76,389.26 304.76,390.11 306.65,391.38 311.91,394.13 320.96,398.57 326.01,401.11 328.33,401.74 329.17,401.32 330.64,398.78 331.91,399.2 "
   id="polygon118"
   transform="translate(-82.44,-65.59)" />
<polygon
   class="st2"
   points="323.49,411.9 323.7,414.64 323.49,417.18 323.06,419.72 322.23,422.26 320.96,425.22 319.28,427.75 317.59,430.08 315.49,431.78 313.18,433.04 310.86,433.89 308.76,434.32 306.24,434.32 303.92,433.89 301.39,433.26 298.45,431.78 295.92,429.88 294.03,427.54 292.34,424.8 291.5,421.63 291.29,418.45 291.5,414.85 292.76,411.05 294.03,407.66 296.34,404.07 298.03,401.74 299.92,403.22 303.71,405.13 303.29,406.4 300.97,405.55 299.92,405.34 298.87,405.55 297.18,406.61 295.5,408.72 294.03,412.11 293.4,414.85 292.97,417.18 293.18,419.3 294.03,421.41 295.08,423.53 296.77,425.43 299.07,427.12 302.24,428.61 305.18,429.45 308.13,429.66 310.86,429.24 313.39,428.4 315.7,426.91 317.8,425.01 319.49,422.68 320.75,419.93 321.59,417.18 321.8,414.43 321.8,412.53 321.38,410.63 321.8,410.42 "
   id="polygon120"
   transform="translate(-82.44,-65.59)" />
<polygon
   class="st2"
   points="303.92,456.52 307.7,456.95 308.96,456.1 310.65,453.78 311.91,451.02 312.13,448.91 311.7,446.8 311.07,445.1 309.81,443.62 308.33,442.57 306.65,442.14 304.13,441.93 303.07,442.14 302.23,442.78 300.97,444.68 299.92,447.64 298.24,451.45 297.18,453.35 295.92,454.41 294.66,455.05 293.19,455.47 291.72,455.68 290.02,455.47 287.71,454.62 285.61,453.14 283.93,451.02 283.08,448.49 282.66,445.74 283.08,442.78 284.34,438.97 286.66,435.38 288.98,436.22 292.34,437.28 292.13,438.76 288.56,438.12 286.87,439.18 285.4,441.3 284.56,443.41 284.34,444.89 284.34,446.38 284.76,447.64 285.4,448.7 286.24,449.76 287.08,450.6 289.82,451.66 291.29,451.87 292.55,451.66 293.61,450.82 294.66,449.55 296.34,445.95 298.03,441.51 299.07,439.81 300.13,438.76 301.18,438.12 302.65,437.7 304.13,437.7 305.81,437.91 307.7,438.55 309.4,439.6 311.07,441.08 312.33,442.99 313.18,445.1 313.6,447.43 313.81,449.97 313.39,452.72 312.13,456.52 310.02,459.7 303.71,458 "
   id="polygon122"
   transform="translate(-82.44,-65.59)" />
<path
   class="st2"
   d="m 424.75,636.88 v 2.28 l -0.18,-0.03 -1.71,0.34 -1.37,0.81 -0.8,1.15 -0.34,1.73 0.34,1.15 0.57,1.15 1.15,0.8 1.37,1.15 0.98,0.33 v 6.06 l -2.12,-0.98 -0.58,-0.23 -1.14,1.15 -1.15,1.38 -0.56,1.39 v 1.72 l 0.34,2.3 1.14,1.95 1.72,1.15 2.17,0.58 0.18,-0.06 v 2.13 h -0.98 -2.28 l -1.72,-0.58 -2.28,-1.49 -1.6,-2.31 -0.57,-3.1 0.57,-2.53 1.02,-2.3 1.49,-1.16 1.95,-1.15 -2.52,-1.94 -1.15,-1.96 -0.56,-2.87 0.23,-2.29 0.91,-1.96 1.38,-1.49 1.72,-1.38 2.28,-0.58 z m -29.52,28.74 v 0 -1.72 l 3.96,-0.57 0.85,-0.28 0.58,-1.14 0.28,-7.41 v -5.13 -5.69 l -0.28,-1.71 v -0.86 l -0.28,-0.29 -0.86,0.29 -5.38,2.57 -0.28,-0.29 -0.29,-1.14 v -1.43 -0.28 l 5.95,-1.71 6.81,-2.56 0.56,0.28 v 2 l -0.28,2.27 v 9.41 3.13 6.26 l 0.28,3.42 0.29,0.28 3.11,0.29 1.42,0.28 v 1.72 l -7.37,-0.29 z m 43.93,-11.98 v 0 l -0.86,-0.57 0.29,-3.13 v -3.41 -2.84 -2.29 -1.71 l -0.29,-1.13 v -1.42 h 0.29 8.78 2.28 3.97 l 0.28,0.28 -0.28,2.85 v 1.43 l -0.29,0.29 h -1.7 -4.54 l -6.24,0.28 v 6.55 l 2.84,-1.14 2.84,-0.28 3.4,0.57 2.55,1.71 1.7,2.28 0.56,3.42 -0.28,2.57 -1.14,2.85 -2.26,2.28 -2.83,2 -2.55,0.85 -3.13,0.28 H 440 l -2.56,-0.85 -0.28,-2 -1.14,-3.98 1.42,-0.57 1.71,2.56 2.27,1.71 2.83,0.85 2.26,-0.57 1.7,-1.13 1.13,-1.99 0.29,-2.28 -0.29,-2.57 -1.13,-1.99 -1.99,-1.14 -2.27,-0.28 h -1.98 l -1.14,0.57 z m -14.41,12.62 v 0 h 1.54 l 2.06,-0.58 2.17,-1.72 2.06,-2.08 1.15,-2.53 0.23,-2.88 -0.23,-2.19 -0.92,-2.06 -1.37,-1.38 -2.86,-1.5 1.94,-1.38 1.72,-2.3 0.56,-2.53 -0.56,-2.54 -1.38,-2.06 -2.52,-1.15 -3.2,-0.57 -0.4,0.05 v 2.28 l 1.54,0.31 1.49,0.81 1.15,1.38 0.22,2.07 -0.8,2.87 -0.57,1.15 -1.14,0.8 -1.15,-0.57 -0.73,-0.25 v 6.06 l 2.12,0.97 2.06,1.72 0.22,2.64 -0.22,1.96 -0.92,1.73 -1.72,0.79 -1.54,0.52 z m 43.18,-29.38 v 0 2.32 l -0.39,-0.07 -1.37,0.34 -1.49,0.81 -0.81,1.15 -0.34,1.73 0.34,1.15 0.58,1.15 1.14,0.8 1.37,1.15 0.97,0.33 v 6.06 l -2.11,-0.98 -0.57,-0.23 -1.38,1.15 -0.9,1.38 -0.58,1.39 v 1.72 l 0.34,2.3 1.15,1.95 1.72,1.15 2.17,0.58 0.17,-0.06 v 2.13 h -0.97 -2.28 l -1.95,-0.58 -1.94,-1.49 -1.72,-2.31 -0.57,-3.1 0.23,-2.53 1.14,-2.3 1.72,-1.16 1.94,-1.15 -2.51,-1.94 -1.37,-1.96 -0.34,-2.87 0.34,-2.29 0.8,-1.96 1.38,-1.49 1.71,-1.38 2.29,-0.58 z m 0,29.38 v 0 h 1.32 l 2.29,-0.58 2.28,-1.72 1.95,-2.08 0.79,-2.53 0.57,-2.88 -0.23,-2.19 -0.91,-2.06 -1.38,-1.38 -2.85,-1.5 2.05,-1.38 1.38,-2.3 0.58,-2.53 -0.35,-2.54 -1.6,-2.06 -2.28,-1.15 -3.2,-0.57 -0.41,0.05 v 2.32 l 1.54,0.27 1.49,0.81 1.14,1.38 0.23,2.07 -0.79,2.87 -0.92,1.15 -0.8,0.8 -1.13,-0.57 -0.75,-0.25 v 6.06 l 2.12,0.97 1.72,1.72 0.57,2.64 -0.23,1.96 -1.14,1.73 -1.49,0.79 -1.54,0.52 v 2.16 z"
   id="path124" />
<path
   class="st2"
   d="m 187.53,224.84 c -0.59,0.06 -3.21,-0.61 -7.85,-2 l -2.34,-0.7 -18.96,-5.7 -9.3,-2.8 -5.23,-1.57 -2.73,3.52 7.96,13.22 7.61,12.63 1.69,2.83 c 1.95,3.29 3.5,6.01 4.64,8.13 0.74,1.4 1.09,2.28 1.08,2.66 -0.05,0.53 -0.6,1.58 -1.67,3.14 l 2.32,1.82 c 0.9,-1.4 2.2,-3.19 3.93,-5.41 1.81,-2.32 3.36,-4.22 4.71,-5.69 l -2.14,-1.68 c -1.68,1.8 -2.7,2.78 -3.12,2.96 -0.4,0.18 -0.79,0.12 -1.18,-0.19 -0.29,-0.23 -0.59,-0.53 -0.86,-0.9 -1.28,-1.66 -2.19,-2.95 -2.77,-3.87 l -2.12,-3.35 c 1.32,-1.76 2.79,-3.71 4.44,-5.82 1.89,-2.44 3.62,-4.62 5.19,-6.57 l 5.6,1.86 0.91,0.31 c 1.84,0.64 2.9,1.07 3.18,1.29 0.38,0.3 0.53,0.65 0.44,1.05 -0.09,0.41 -0.82,1.59 -2.2,3.56 l 2.14,1.68 c 1.8,-2.57 3.79,-5.24 5.93,-7.99 1.79,-2.3 3.75,-4.71 5.89,-7.22 l -2.14,-1.68 c -1.43,1.6 -2.46,2.42 -3.05,2.48 z m -24.6,8.84 c -1.37,1.76 -2.67,3.35 -3.89,4.74 l -0.65,-1.09 -8.54,-14.24 8.54,2.59 8.54,2.59 c -1.23,1.76 -2.56,3.56 -4,5.41 z"
   id="path126" />
<path
   class="st2"
   d="m 150.37,255.8 c -0.43,-0.26 -0.85,-0.49 -1.28,-0.69 -1.39,-0.65 -2.79,-1.01 -4.22,-1.08 -1.86,-0.08 -3.5,0.3 -4.91,1.14 -0.62,0.37 -1.32,0.95 -2.09,1.71 -0.98,0.97 -2.08,2.26 -3.29,3.87 l -0.23,-0.14 c 1.12,-3.39 1.39,-6.38 0.83,-8.97 -0.57,-2.58 -2.09,-4.63 -4.55,-6.11 -2.31,-1.4 -4.61,-1.73 -6.9,-1.01 l -0.25,0.08 c -2.38,0.82 -4.72,3.17 -7.02,7.01 -0.55,0.93 -1.42,2.48 -2.59,4.65 l -0.08,0.16 c -1.26,2.33 -2.24,4.07 -2.93,5.23 l -2.38,3.77 -3.09,4.92 2.34,1.41 c 1.45,-2.18 2.49,-3.35 3.08,-3.51 0.4,-0.13 1.36,0.19 2.83,0.96 l 0.23,0.12 c 2.2,1.16 5.48,3.04 9.86,5.64 l 3.51,2.11 c 4.31,2.6 7.85,4.78 10.63,6.52 2.86,1.79 4.91,3.14 6.14,4.03 0.21,0.84 0.33,1.93 0.37,3.3 l 1.31,0.79 c 1.66,-3.07 2.8,-5.11 3.4,-6.13 l 0.05,-0.09 c 0.52,-0.88 1.23,-2 2.12,-3.35 0.95,-1.45 1.64,-2.55 2.08,-3.29 2.25,-3.76 3.47,-6.99 3.67,-9.68 0.19,-2.69 -0.31,-5.26 -1.53,-7.71 -1.21,-2.44 -2.91,-4.33 -5.11,-5.66 z m -20.86,10.78 -0.8,1.34 -2.52,-1.48 c -0.49,-0.3 -1.31,-0.81 -2.46,-1.52 -1.82,-1.13 -4.45,-2.78 -7.89,-4.95 0.56,-1.28 1.07,-2.31 1.56,-3.13 1.31,-2.19 2.76,-3.48 4.33,-3.84 0.62,-0.14 1.29,-0.15 2,-0.03 1.08,0.18 2.26,0.64 3.53,1.42 2.41,1.45 3.83,3.12 4.24,4.99 0.42,1.87 -0.24,4.26 -1.99,7.2 z m 21.09,10.65 c -0.41,0.68 -0.9,1.34 -1.51,1.99 -0.19,0.2 -0.39,0.4 -0.6,0.6 l -1.56,-0.94 -7.31,-4.35 -1.76,-1.08 -5.41,-3.31 -0.72,-0.44 1.55,-2.64 c 1.16,-1.94 2.35,-3.26 3.56,-3.94 0.33,-0.19 0.67,-0.34 1.02,-0.47 0.96,-0.35 2.01,-0.47 3.16,-0.37 1.57,0.13 3.31,0.78 5.22,1.93 1.1,0.67 2.05,1.37 2.84,2.1 1.31,1.21 2.18,2.51 2.63,3.89 0.74,2.23 0.36,4.57 -1.11,7.03 z"
   id="path128" />
<path
   class="st2"
   d="m 209.65,190.49 -0.59,0.55 -1.35,1.26 c 0.48,0.75 0.93,1.48 1.35,2.18 0.49,0.8 0.94,1.56 1.35,2.29 0.35,0.62 0.68,1.21 0.98,1.77 -0.3,0.45 -0.62,0.91 -0.98,1.38 -0.41,0.55 -0.86,1.11 -1.35,1.68 -0.54,0.64 -1.13,1.29 -1.76,1.95 -0.7,0.73 -1.46,1.48 -2.27,2.25 -0.93,0.87 -2.41,2.15 -4.44,3.84 -2.75,-2.76 -5.14,-5.24 -7.16,-7.42 L 182.8,190.49 c -2.47,-2.71 -4.28,-4.73 -5.45,-6.06 -0.87,-0.99 -1.38,-1.6 -1.51,-1.83 -0.33,-0.51 -0.46,-0.93 -0.41,-1.25 0.07,-0.42 0.71,-1.32 1.92,-2.69 0.32,-0.36 0.67,-0.75 1.06,-1.17 l -1.06,-1.14 -0.8,-0.86 c -2.03,2.05 -4.22,4.19 -6.57,6.39 -2.42,2.26 -5.09,4.69 -8,7.28 l 1.86,2 c 2.08,-1.62 3.27,-2.48 3.59,-2.59 0.33,-0.12 0.62,-0.11 0.88,0.04 0.49,0.19 1.83,1.42 4.02,3.71 1.63,1.68 3.31,3.43 5.02,5.24 1.54,1.63 3.12,3.31 4.73,5.05 4.34,4.68 8.4,9.26 12.22,13.75 -0.21,1.23 -0.52,2.43 -0.95,3.6 l 1.14,1.23 c 2.95,-3 5.26,-5.27 6.92,-6.79 l 3.62,-3.3 2.27,-2.08 1.76,-1.62 1.35,-1.24 2.68,-2.45 c 1.17,-1.1 2.36,-2.42 3.54,-3.95 -2.47,-3.11 -4.55,-5.84 -6.22,-8.19 z"
   id="path130" />
<path
   class="st2"
   d="m 139.31,299.04 c -0.32,0.28 -0.62,0.42 -0.92,0.41 -0.13,0 -0.31,-0.02 -0.52,-0.07 -0.92,-0.2 -2.62,-0.85 -5.08,-1.95 -2,-0.9 -5.02,-2.29 -9.06,-4.17 l -6.93,-3.24 -2.92,-1.38 c -4.12,-1.96 -6.92,-3.37 -8.4,-4.23 -0.92,-0.55 -1.44,-1.04 -1.56,-1.49 -0.12,-0.44 0.32,-1.94 1.33,-4.51 l -2.47,-1.16 c -1.13,2.87 -2.49,6.01 -4.09,9.45 -0.93,1.99 -2.34,4.84 -4.25,8.53 l 2.47,1.16 c 1.25,-2.31 2.09,-3.62 2.5,-3.9 0.27,-0.2 0.62,-0.28 1,-0.23 0.41,0.05 2.35,0.88 5.88,2.49 2.92,1.32 5.45,2.47 7.58,3.45 1.64,0.75 3.04,1.4 4.22,1.95 2.07,0.97 3.95,1.86 5.64,2.66 4.04,1.93 6.95,3.36 8.73,4.3 1.21,0.65 1.89,1.22 2.05,1.7 0.16,0.47 -0.28,2.01 -1.31,4.6 l 2.46,1.15 2.21,-5.05 1.88,-4.3 c 0.74,-1.6 1.63,-3.41 2.66,-5.43 l 1.59,-3.21 -2.46,-1.15 c -1.17,2.13 -1.91,3.32 -2.23,3.62 z"
   id="path132" />
<path
   class="st2"
   d="m 221.26,163.88 c -1.16,1.03 -2.27,2.01 -3.34,2.94 -1.68,1.46 -3.25,2.79 -4.73,3.98 -0.83,0.67 -1.76,1.42 -2.79,2.22 -0.43,0.34 -0.88,0.69 -1.35,1.05 -0.56,0.43 -1.15,0.89 -1.76,1.35 -0.97,0.74 -2.01,1.53 -3.11,2.36 1.37,2.62 2.41,5.04 3.11,7.26 0.1,0.31 0.19,0.62 0.28,0.92 l 0.9,0.28 0.59,-0.52 1.35,-1.19 c 2.11,-1.84 4.16,-3.58 6.16,-5.21 0.44,-0.36 0.89,-0.72 1.35,-1.09 2.23,-1.79 4.73,-3.72 7.51,-5.8 -1.35,-3 -2.44,-5.74 -3.26,-8.26 z"
   id="path134" />
<path
   class="st2"
   d="m 116.35,499.92 -0.65,-4.43 -1.82,0.32 -1.54,0.27 c 0.35,3.38 0.37,5.33 0.07,5.87 -0.32,0.54 -1.63,1.09 -3.94,1.63 -3.46,0.79 -8.66,1.8 -15.64,3.04 l -2.63,0.46 c -0.82,-4.01 -1.69,-8.69 -2.63,-14.03 -0.6,-3.41 -1.09,-6.51 -1.47,-9.32 9.82,-1.69 16.25,-2.71 19.29,-3.08 1.77,-0.21 2.9,-0.12 3.39,0.26 0.5,0.38 1.12,2.23 1.86,5.54 l 3.23,-0.57 0.14,-0.03 -0.14,-0.63 c -1,-4.69 -1.81,-8.81 -2.43,-12.33 -0.31,-1.77 -0.68,-4.21 -1.12,-7.35 l -0.6,-4.16 -3.36,0.6 c 0.35,3.35 0.43,5.25 0.24,5.7 -0.18,0.44 -0.56,0.79 -1.15,1.08 -0.58,0.29 -2.92,0.82 -7.01,1.6 l -13.82,2.62 -4.26,0.81 c -3.58,0.63 -8.3,1.38 -14.13,2.24 -3.79,0.56 -5.99,0.78 -6.59,0.65 -0.35,-0.08 -0.62,-0.27 -0.84,-0.54 -0.39,-0.47 -0.96,-2.28 -1.74,-5.43 l -3.35,0.6 c 0.92,4.14 1.72,8.1 2.37,11.85 0.39,2.19 1.02,6.39 1.92,12.62 l 3.35,-0.6 c -0.41,-3.34 -0.43,-5.33 -0.02,-5.99 0.28,-0.49 1.16,-0.92 2.67,-1.28 2.81,-0.71 8.53,-1.81 17.19,-3.32 0.55,2.34 1.26,6.01 2.14,11 0.53,3.01 0.96,5.59 1.3,7.74 0.29,1.86 0.51,3.4 0.66,4.61 l -0.66,0.12 -2.65,0.47 c -3.94,0.7 -7.84,1.31 -11.69,1.84 -2.6,0.37 -4.17,0.46 -4.72,0.3 -0.35,-0.08 -0.62,-0.28 -0.84,-0.57 -0.37,-0.5 -0.92,-2.27 -1.67,-5.28 l -3.35,0.59 c 0.86,3.77 1.69,7.96 2.5,12.55 0.51,2.91 1.1,6.87 1.79,11.88 l 3.35,-0.59 c -0.37,-3.37 -0.43,-5.33 -0.16,-5.9 0.15,-0.34 0.43,-0.6 0.8,-0.8 0.62,-0.35 4.63,-1.17 11.99,-2.51 l 4.66,-0.83 17.15,-3.07 c 5.91,-1.05 9.62,-1.59 11.13,-1.59 0.36,0 0.69,0.02 0.97,0.07 0.48,0.08 0.84,0.24 1.08,0.48 0.39,0.38 0.95,2.18 1.67,5.42 l 3.36,-0.6 -2.51,-12.51 c -0.38,-2.19 -0.77,-4.69 -1.14,-7.49 z"
   id="path136" />
<path
   class="st2"
   d="m 70.47,399.41 c 0.19,-0.23 0.46,-0.38 0.79,-0.44 0.6,-0.12 2.69,0.13 6.25,0.77 l 7.1,1.23 6.42,1.11 c 2.59,0.46 6.43,1.2 11.52,2.23 3.08,0.61 4.85,1.07 5.32,1.38 0.36,0.21 0.6,0.47 0.72,0.77 0.16,0.46 0.08,1.92 -0.23,4.37 l 2.67,0.47 c 0.52,-3.83 0.89,-6.32 1.09,-7.48 0.25,-1.39 0.72,-3.69 1.43,-6.89 l -2.67,-0.47 c -0.64,2.46 -1.1,3.85 -1.39,4.19 -0.17,0.19 -0.38,0.32 -0.62,0.35 -0.57,0.12 -2.63,-0.1 -6.15,-0.66 -4.79,-0.75 -8.87,-1.43 -12.24,-2.03 l -5.86,-1.04 -6.56,-1.17 c 1.93,-0.91 4.12,-1.99 6.56,-3.24 2.06,-1.06 4.29,-2.24 6.71,-3.54 8.73,-4.68 16.25,-8.83 22.54,-12.42 1.24,-0.71 2.43,-1.39 3.57,-2.05 0.32,-0.97 0.94,-2.62 1.82,-4.94 l -0.37,-0.46 c -1.68,-0.23 -3.35,-0.47 -5.02,-0.73 -1.79,-0.28 -3.58,-0.58 -5.37,-0.9 l -12.85,-2.34 -11.03,-2.04 -1.73,-0.32 c -2.77,-0.5 -4.38,-0.87 -4.88,-1.1 -0.29,-0.14 -0.51,-0.3 -0.67,-0.5 -0.17,-0.19 -0.28,-0.41 -0.34,-0.7 -0.11,-0.49 -0.04,-1.86 0.2,-4.11 l -2.68,-0.48 c -0.31,2.4 -0.73,5.09 -1.24,8.03 -0.38,2.15 -0.81,4.29 -1.3,6.45 l 2.68,0.48 c 0.62,-2.43 1.02,-3.81 1.19,-4.11 0.16,-0.3 0.38,-0.48 0.66,-0.55 0.5,-0.16 1.8,-0.09 3.89,0.19 1.32,0.19 2.73,0.4 4.23,0.64 2.48,0.39 5.2,0.85 8.19,1.38 l 12.64,2.24 c -3.68,2.23 -8.31,4.82 -13.88,7.79 -2.37,1.27 -4.68,2.5 -6.95,3.69 -5.71,3 -11.09,5.74 -16.14,8.22 -0.26,2.14 -0.54,4.05 -0.84,5.72 -0.27,1.52 -0.73,3.84 -1.39,6.96 l 2.69,0.47 c 0.68,-2.6 1.19,-4.06 1.52,-4.42 z"
   id="path138" />
<path
   class="st2"
   d="m 92.45,448.66 c 4.93,2.09 8.77,3.8 11.54,5.13 1.41,0.7 2.22,1.21 2.42,1.51 0.28,0.46 0.44,1.63 0.49,3.54 l 2.95,0.11 c -0.1,-1.66 -0.09,-3.89 0.01,-6.7 0.1,-2.95 0.26,-5.4 0.48,-7.38 l -2.71,-0.1 c -0.31,2.45 -0.56,3.85 -0.78,4.24 -0.22,0.38 -0.58,0.56 -1.08,0.54 -0.37,-0.01 -0.78,-0.08 -1.22,-0.22 -2,-0.59 -3.49,-1.09 -4.5,-1.49 l -3.67,-1.46 c 0.03,-2.2 0.09,-4.64 0.19,-7.33 0.11,-3.08 0.23,-5.88 0.36,-8.38 l 5.61,-1.81 c 2.42,-0.77 3.84,-1.13 4.25,-1.12 0.49,0.02 0.81,0.21 0.98,0.59 0.17,0.38 0.27,1.77 0.3,4.18 l 2.71,0.1 c -0.04,-3.14 0,-6.48 0.12,-9.97 0.1,-2.92 0.28,-6.03 0.54,-9.32 l -2.71,-0.1 c -0.23,2.14 -0.57,3.41 -1.02,3.81 -0.44,0.4 -2.96,1.41 -7.52,3.02 l -15.55,5.49 -19.73,6.97 -0.16,4.45 19.89,8.4 z m -16.26,-10.79 8.43,-2.95 8.41,-2.94 c 0.04,2.15 0.01,4.38 -0.07,6.73 -0.08,2.24 -0.21,4.29 -0.38,6.14 l -7.96,-3.38 z"
   id="path140" />
<path
   class="st2"
   d="m 262.96,147.36 c 1.27,3.24 2.29,6.07 3.03,8.51 -2.33,2.4 -5.52,4.86 -9.54,7.39 -1.34,0.84 -3.45,2.06 -6.34,3.66 -2.73,-4.06 -5.07,-7.65 -7.04,-10.82 L 232.8,139.14 c -4.17,-6.86 -6.4,-10.64 -6.67,-11.35 -0.28,-0.69 -0.33,-1.25 -0.19,-1.62 0.23,-0.64 1.75,-1.97 4.56,-4.03 l -1.8,-2.9 c -2.98,2.04 -6.16,4.12 -9.58,6.26 -0.4,0.25 -0.8,0.5 -1.2,0.75 -2.36,1.47 -4.86,3 -7.51,4.58 l -1.35,0.8 -1.48,0.88 1.48,2.39 0.32,0.51 1.03,-0.52 c 2.3,-1.14 3.62,-1.74 4,-1.78 0.43,-0.07 0.78,0.01 1.08,0.25 0.39,0.26 1.2,1.29 2.43,3.09 0.48,0.7 1.02,1.51 1.62,2.44 3.03,4.65 6.21,9.64 9.51,14.96 4.21,6.77 8.12,13.36 11.72,19.78 -0.54,1.47 -1.21,2.86 -2.01,4.2 l 1.12,1.8 c 4.34,-2.99 7.7,-5.22 10.11,-6.69 l 5.21,-3.18 11.66,-7.13 c 1.7,-1.07 3.46,-2.4 5.29,-4 -2.68,-5.12 -4.8,-9.46 -6.38,-13.05 z"
   id="path142" />
<path
   class="st2"
   d="m 123.73,319.08 -0.73,-0.25 -9.13,-3.21 -3.19,-1.12 -12.24,-4.33 c -2.65,-0.93 -4.2,-1.55 -4.64,-1.85 -0.26,-0.19 -0.46,-0.38 -0.59,-0.6 -0.13,-0.21 -0.21,-0.46 -0.23,-0.75 -0.03,-0.5 0.25,-1.84 0.84,-4.03 l -2.57,-0.89 c -0.68,2.32 -1.5,4.91 -2.47,7.73 -0.71,2.06 -1.47,4.11 -2.29,6.17 l 2.57,0.89 c 1,-2.31 1.6,-3.6 1.81,-3.87 0.21,-0.27 0.45,-0.42 0.74,-0.44 0.52,-0.08 1.79,0.2 3.81,0.8 3.36,1.04 7.34,2.35 11.95,3.94 l 6.51,2.25 5.63,1.95 c -1.69,0.69 -3.57,1.42 -5.63,2.19 -2.77,1.03 -5.87,2.14 -9.3,3.33 -7.09,2.47 -13.75,4.68 -19.95,6.65 -1.6,0.51 -3.17,1 -4.71,1.48 -0.59,2.08 -1.17,3.92 -1.71,5.52 -0.5,1.45 -1.32,3.67 -2.46,6.66 l 2.58,0.89 c 1.09,-2.45 1.82,-3.81 2.2,-4.12 0.23,-0.2 0.51,-0.3 0.85,-0.31 0.42,-0.02 1.5,0.25 3.25,0.8 0.8,0.25 1.74,0.57 2.81,0.94 l 13,4.43 c 2.48,0.86 6.16,2.2 11.03,4.01 0.93,0.34 1.73,0.65 2.41,0.92 1.47,0.59 2.35,1.02 2.63,1.28 0.32,0.26 0.52,0.56 0.59,0.88 0.08,0.48 -0.21,1.91 -0.91,4.28 l 2.56,0.89 c 1.11,-3.71 1.85,-6.1 2.24,-7.21 0.45,-1.33 1.28,-3.54 2.49,-6.58 l -2.56,-0.88 c -1.02,2.33 -1.68,3.63 -2.03,3.92 -0.2,0.16 -0.42,0.25 -0.67,0.24 -0.48,0.03 -1.93,-0.34 -4.34,-1.09 l -1.63,-0.52 c -4.61,-1.48 -8.54,-2.8 -11.78,-3.93 l -11.93,-4.13 c 3.78,-1.09 8.51,-2.63 14.16,-4.61 3.95,-1.38 7.68,-2.69 11.17,-3.94 3.52,-1.26 6.81,-2.46 9.86,-3.6 2.49,-0.92 4.83,-1.81 7.01,-2.64 0.47,-0.9 1.33,-2.44 2.57,-4.6 l -0.29,-0.51 c -3.13,-0.98 -6.22,-1.98 -9.29,-3.03 z"
   id="path144" />
<path
   class="st2"
   d="m 417.38,113.68 c -0.48,-0.24 -1.23,-0.97 -2.27,-2.21 l -5.55,-7.66 -7.13,-9.98 c 3.34,-1.76 5.64,-3.67 6.9,-5.73 1.26,-2.07 1.8,-4.39 1.61,-6.99 -0.14,-2.04 -0.7,-3.79 -1.68,-5.23 -0.97,-1.44 -2.23,-2.45 -3.78,-3.02 -1.54,-0.59 -3.94,-0.75 -7.2,-0.52 l -15.04,1.35 c -1.21,0.09 -3.89,0.19 -8.05,0.3 l 0.19,2.73 c 2.28,0.1 3.59,0.25 3.93,0.45 0.25,0.12 0.42,0.33 0.53,0.6 0.36,0.92 0.73,3.43 1.1,7.58 0.46,5.54 0.83,10.12 1.08,13.71 0.18,2.67 0.38,6.32 0.61,10.97 0.13,2.99 0.11,4.76 -0.06,5.29 -0.08,0.3 -0.22,0.52 -0.44,0.66 -0.32,0.22 -1.64,0.52 -3.95,0.9 l 0.19,2.72 c 3.39,-0.39 6.58,-0.69 9.54,-0.9 2.79,-0.19 5.98,-0.35 9.61,-0.45 l -0.19,-2.72 c -2.32,0.02 -3.69,-0.08 -4.14,-0.31 -0.33,-0.15 -0.57,-0.36 -0.71,-0.64 -0.18,-0.38 -0.47,-2.17 -0.85,-5.39 -0.5,-4.29 -0.85,-7.8 -1.04,-10.55 l -0.56,-12.19 -0.46,-9.61 c 1.53,-0.26 2.75,-0.42 3.65,-0.48 2.85,-0.2 5.03,0.37 6.55,1.73 1.52,1.34 2.38,3.33 2.56,5.95 0.21,3.01 -0.54,5.4 -2.22,7.15 -1.69,1.75 -3.47,2.7 -5.33,2.83 -0.39,0.02 -0.98,0.01 -1.8,-0.04 -0.09,0.42 -0.21,0.82 -0.37,1.2 l 6.91,9.75 c 3.86,5.47 6.78,9.66 8.72,12.55 1.47,-0.19 4.74,-0.49 9.83,-0.88 l 1.77,-0.16 -0.18,-2.5 c -1.04,0.07 -1.8,-0.03 -2.28,-0.26 z"
   id="path146" />
<path
   class="st2"
   d="m 459.6,106.89 -13,-35.25 -4.44,-0.08 -0.95,2.39 L 431,99.62 c -1.99,4.99 -3.62,8.88 -4.9,11.69 -0.67,1.43 -1.16,2.24 -1.46,2.46 -0.45,0.29 -1.62,0.47 -3.51,0.55 l -0.05,2.96 c 1.65,-0.12 3.86,-0.16 6.66,-0.11 2.93,0.05 5.37,0.17 7.35,0.35 l 0.05,-2.72 c -2.44,-0.27 -3.84,-0.5 -4.23,-0.71 -0.38,-0.22 -0.57,-0.57 -0.56,-1.07 0.01,-0.37 0.06,-0.79 0.2,-1.23 0.55,-2.02 1.03,-3.53 1.41,-4.55 l 1.39,-3.71 c 2.19,0 4.62,0.01 7.29,0.06 l 0.57,0.01 c 2.85,0.05 5.44,0.13 7.78,0.21 l 1.9,5.61 c 0.8,2.42 1.19,3.85 1.19,4.25 -0.01,0.49 -0.19,0.82 -0.57,0.99 -0.38,0.18 -1.76,0.3 -4.15,0.37 l -0.05,2.73 c 3.13,-0.1 6.44,-0.11 9.92,-0.05 2.9,0.05 6,0.18 9.28,0.39 l 0.05,-2.73 c -2.13,-0.19 -3.4,-0.52 -3.81,-0.96 -0.42,-0.45 -1.47,-2.96 -3.15,-7.52 z m -18.4,-6.92 h -0.3 c -2.22,-0.04 -4.27,-0.13 -6.1,-0.28 l 6.4,-16 0.24,-0.6 6.16,16.83 c -2.04,0.06 -4.16,0.09 -6.4,0.05 z"
   id="path148" />
<path
   class="st2"
   d="m 565.72,125.36 c -2.95,-0.88 -5.69,-1.73 -8.21,-2.55 -2.73,-0.89 -5.82,-1.95 -9.28,-3.16 l -0.81,2.51 c 3.68,1.45 5.63,2.4 5.87,2.84 0.24,0.44 -0.16,2.26 -1.19,5.45 -0.46,1.41 -1.02,2.91 -1.69,4.45 -3.1,0.38 -5.84,0.18 -8.23,-0.6 -4.49,-1.47 -7.68,-4.53 -9.57,-9.18 -1.89,-4.65 -1.87,-9.95 0.06,-15.93 1.81,-5.59 4.69,-9.54 8.65,-11.81 3.96,-2.26 8.39,-2.6 13.3,-0.99 2.62,0.86 4.77,1.98 6.45,3.36 1.67,1.39 2.87,3.06 3.59,4.99 -0.25,1.58 -0.69,3.36 -1.3,5.32 l 2.41,0.79 c 0.49,-1.24 0.99,-2.41 1.47,-3.51 0.49,-1.12 0.98,-2.16 1.46,-3.13 0.5,-1 0.98,-1.92 1.46,-2.75 l -0.11,-0.55 c -0.44,-0.38 -0.89,-0.75 -1.35,-1.11 -0.48,-0.37 -0.96,-0.74 -1.46,-1.09 -1.22,-0.86 -2.5,-1.66 -3.84,-2.39 -2.43,-1.3 -5.04,-2.42 -7.85,-3.34 -7.98,-2.61 -14.74,-2.58 -20.32,0.11 -5.57,2.68 -9.47,7.41 -11.66,14.19 -0.67,2.09 -1.1,4.13 -1.28,6.12 -0.02,0.2 -0.03,0.41 -0.04,0.61 -0.06,0.97 -0.06,1.93 0,2.87 0.01,0.2 0.03,0.39 0.04,0.59 0.25,2.77 1.03,5.42 2.34,7.96 2.84,5.52 7.95,9.47 15.32,11.88 2.74,0.9 5.47,1.49 8.18,1.81 2.72,0.31 6.22,0.32 10.48,0.08 0.78,-3.2 1.35,-5.33 1.68,-6.37 0.47,-1.47 1.16,-3.22 2.07,-5.23 0.9,-0.13 1.8,-0.22 2.74,-0.23 z"
   id="path150" />
<path
   class="st2"
   d="m 522.27,82.23 0.09,-0.52 -0.09,-0.01 -0.04,-0.01 c -2.35,-0.31 -4.98,-0.72 -7.84,-1.23 -2.14,-0.38 -4.27,-0.81 -6.42,-1.31 l -0.47,2.7 c 2.42,0.63 3.79,1.03 4.09,1.19 0.3,0.17 0.48,0.38 0.55,0.66 0.16,0.51 0.09,1.81 -0.19,3.91 -0.5,3.5 -1.16,7.66 -2.01,12.48 l -2.23,12.71 c -2.21,-3.69 -4.79,-8.34 -7.75,-13.95 -4.45,-8.37 -8.39,-16.12 -11.85,-23.22 -2.13,-0.27 -4.03,-0.54 -5.69,-0.84 -1.51,-0.27 -3.81,-0.73 -6.92,-1.4 l -0.47,2.7 c 2.59,0.7 4.03,1.21 4.39,1.54 0.23,0.2 0.38,0.46 0.43,0.8 0.12,0.6 -0.13,2.7 -0.76,6.29 l -2.32,13.6 c -0.45,2.6 -1.2,6.46 -2.21,11.58 -0.61,3.1 -1.07,4.88 -1.37,5.35 -0.2,0.36 -0.47,0.61 -0.77,0.73 -0.46,0.16 -1.91,0.08 -4.35,-0.23 l -0.47,2.69 c 3.81,0.52 6.28,0.88 7.43,1.09 1.38,0.24 3.67,0.72 6.85,1.44 l 0.47,-2.68 c -2.45,-0.65 -3.83,-1.1 -4.17,-1.4 -0.19,-0.17 -0.31,-0.38 -0.35,-0.63 -0.12,-0.57 0.1,-2.64 0.65,-6.18 0.74,-4.81 1.42,-8.91 2.02,-12.31 l 2.19,-12.49 c 1.67,3.58 3.92,8.04 6.75,13.34 5.58,10.5 10.39,19.25 14.4,26.25 0.96,0.33 2.6,0.94 4.91,1.83 l 0.46,-0.37 c 0.47,-3.5 1.02,-6.98 1.62,-10.45 l 2.33,-12.92 2.34,-12.83 c 0.5,-2.78 0.86,-4.41 1.09,-4.9 0.14,-0.29 0.3,-0.51 0.49,-0.68 0.19,-0.16 0.42,-0.28 0.7,-0.34 0.49,-0.11 1.85,-0.04 4.09,0.2 l 0.34,-1.91 z"
   id="path152" />
<path
   class="st2"
   d="m 661.34,191.31 c 1.04,-1.09 3.11,-3.55 6.19,-7.38 1.99,-2.44 3.9,-4.77 5.74,-6.98 2.65,-3.18 5.16,-6.11 7.54,-8.79 1.67,-1.86 2.92,-2.83 3.77,-2.91 0.85,-0.08 2.25,0.67 4.18,2.24 l 2.14,-2.66 c -2.8,-2.03 -5.11,-3.79 -6.95,-5.28 -2.13,-1.74 -4.39,-3.69 -6.78,-5.9 l -2.15,2.66 c 2.24,2.11 3.49,3.5 3.71,4.19 0.17,0.38 0.2,0.77 0.08,1.16 -0.21,0.71 -1.38,2.38 -3.48,5.04 l -2.07,2.58 -7.34,9.16 c -5.33,6.63 -9.07,10.69 -11.23,12.19 -2.14,1.51 -4.5,2.14 -7.06,1.91 -2.56,-0.24 -5.41,-1.63 -8.55,-4.18 -2.31,-1.88 -4,-4.15 -5.09,-6.81 -0.73,-1.87 -0.82,-3.85 -0.28,-5.98 0.55,-2.12 2.16,-4.84 4.83,-8.15 3.25,-4.04 6.48,-7.99 9.68,-11.84 4.61,-5.55 7.43,-8.88 8.5,-9.96 0.65,-0.64 1.19,-1.02 1.64,-1.13 0.37,-0.13 0.71,-0.14 1.04,-0.05 1.02,0.28 2.43,1.14 4.22,2.6 l 2.14,-2.66 c -3.61,-2.69 -6.38,-4.82 -8.29,-6.37 -3.01,-2.45 -6.45,-5.37 -10.3,-8.76 l -2.14,2.66 c 2.01,2 3.11,3.2 3.3,3.63 0.19,0.44 0.24,0.86 0.16,1.28 -0.16,0.74 -0.82,1.85 -1.96,3.34 -3.66,4.74 -5.95,7.69 -6.86,8.82 l -11.63,14.14 c -3.01,3.74 -4.74,7.02 -5.21,9.83 -0.46,2.83 0.1,5.92 1.67,9.3 1.57,3.39 4.32,6.67 8.24,9.86 3.77,3.07 7.46,4.98 11.06,5.72 3.62,0.73 6.79,0.51 9.55,-0.66 2.77,-1.16 5.42,-3.12 7.99,-5.86 z"
   id="path154" />
<path
   class="st2"
   d="m 607.64,117.91 -15.02,-7.15 c -2.48,-1.21 -5.8,-2.95 -9.98,-5.22 l -1.19,2.46 c 2.26,1.38 3.48,2.3 3.65,2.75 0.17,0.46 0.01,1.29 -0.51,2.46 -0.92,2.23 -2.99,6.67 -6.23,13.33 -4.58,9.45 -7.81,15.67 -9.68,18.67 l -0.18,0.29 c -0.42,0.09 -0.84,0.16 -1.28,0.21 -0.7,0.09 -1.42,0.13 -2.15,0.13 l -0.77,1.57 c 0.99,0.44 1.96,0.87 2.92,1.31 0.49,0.22 0.98,0.45 1.46,0.67 1.82,0.84 3.57,1.67 5.26,2.5 2.3,1.13 4.79,2.4 7.48,3.81 2.88,1.52 4.83,2.52 5.82,3.01 1.51,0.74 3.15,1.42 4.88,2.02 1.6,-3.13 3.45,-6.3 5.53,-9.54 l -2.24,-1.1 c -1.52,2.08 -2.95,3.9 -4.28,5.48 -2.7,-0.89 -5.57,-2.08 -8.62,-3.58 l -5.32,-2.72 c 1.28,-3.1 3.26,-7.44 5.97,-13.02 0.52,-1.08 1.06,-2.11 1.59,-3.14 1.4,0.53 2.58,1.05 3.58,1.54 3.17,1.55 5.15,2.65 5.95,3.3 0.32,0.28 0.49,0.58 0.49,0.86 0,0.5 -0.55,2.05 -1.66,4.66 l 2.34,1.15 3.05,-6.66 c 0.49,-1 1.58,-3.12 3.27,-6.38 l -2.34,-1.15 c -1.16,2.04 -1.88,3.21 -2.18,3.51 -0.33,0.38 -0.68,0.56 -1.06,0.53 -0.59,-0.07 -2.14,-0.73 -4.65,-1.95 -1.7,-0.83 -3.48,-1.8 -5.34,-2.88 1.77,-3.56 4.22,-8.3 7.39,-14.21 2.09,0.85 3.89,1.66 5.4,2.4 3.09,1.51 5.3,2.82 6.62,3.9 0.62,0.52 0.94,0.91 0.97,1.16 0.02,0.26 -0.62,1.83 -1.91,4.73 l 2.14,1.05 c 1.9,-3.45 3.56,-6.13 4.99,-8.08 l -0.03,-0.4 c -1.19,-0.74 -2.56,-1.51 -4.13,-2.28 z"
   id="path156" />
<path
   class="st2"
   d="m 313.24,136.12 c -0.78,0.18 -1.33,0.2 -1.65,0.07 v 0 c -0.55,-0.23 -2.56,-2.06 -6,-5.47 l -20.13,-19.99 -6.48,-6.43 -4.05,1.81 1.68,30.18 c 0.29,5.37 0.45,9.59 0.47,12.67 0,1.58 -0.1,2.53 -0.29,2.85 -0.29,0.45 -1.27,1.12 -2.95,1.99 l 1.2,2.71 c 1.44,-0.81 3.44,-1.78 6,-2.93 1.62,-0.73 3.09,-1.36 4.41,-1.89 0.86,-0.35 1.66,-0.66 2.4,-0.92 l -1.1,-2.49 -1.29,0.43 c -1.54,0.5 -2.49,0.74 -2.84,0.72 -0.44,-0.03 -0.76,-0.27 -0.96,-0.73 -0.16,-0.34 -0.27,-0.75 -0.34,-1.21 -0.35,-2.06 -0.55,-3.63 -0.64,-4.72 l -0.3,-3.96 c 1.55,-0.73 3.25,-1.51 5.08,-2.35 l 1.55,-0.7 c 2.81,-1.26 5.36,-2.37 7.65,-3.35 l 4.08,4.28 c 1.75,1.85 2.7,2.98 2.86,3.35 0.19,0.45 0.17,0.82 -0.1,1.14 -0.27,0.32 -1.46,1.02 -3.6,2.1 l 1.1,2.49 c 2.79,-1.42 5.79,-2.84 8.97,-4.26 1.17,-0.52 2.37,-1.05 3.62,-1.58 0.54,-0.23 1.09,-0.46 1.65,-0.69 1.08,-0.44 2.18,-0.89 3.3,-1.33 l -1.1,-2.49 c -0.87,0.34 -1.6,0.56 -2.2,0.7 z m -27.5,-3.73 -0.28,0.12 c -1.93,0.86 -3.72,1.6 -5.37,2.22 l -0.96,-17.86 6.33,6.31 6.33,6.32 c -1.9,0.97 -3.91,1.93 -6.05,2.89 z"
   id="path158" />
<path
   class="st2"
   d="m 700.74,228.16 3.66,-3.16 6.19,-5.34 c 0.87,-0.76 1.61,-1.38 2.21,-1.86 0.86,-0.7 1.43,-1.11 1.71,-1.25 0.29,-0.13 0.55,-0.21 0.81,-0.21 0.25,-0.01 0.5,0.04 0.76,0.17 0.45,0.22 1.46,1.14 3.05,2.75 l 2.05,-1.8 c -1.66,-1.75 -3.47,-3.76 -5.42,-6.02 -1,-1.17 -1.99,-2.35 -2.97,-3.56 -0.4,-0.5 -0.8,-1.01 -1.2,-1.52 l -2.05,1.8 c 1.49,2.02 2.3,3.19 2.43,3.51 0.13,0.32 0.13,0.6 0.01,0.86 -0.19,0.5 -1.06,1.46 -2.59,2.92 -1.48,1.38 -3.14,2.9 -4.98,4.56 -1.36,1.22 -2.82,2.51 -4.39,3.88 l -9.69,8.47 c 0.6,-4.27 1.5,-9.52 2.71,-15.75 1.78,-9.32 3.57,-17.83 5.32,-25.54 -1.49,-1.55 -2.79,-2.97 -3.89,-4.25 -1,-1.16 -2.5,-2.98 -4.5,-5.47 l -2.06,1.8 c 1.57,2.17 2.38,3.49 2.44,3.98 0.06,0.3 0.01,0.6 -0.16,0.89 -0.29,0.54 -1.79,2.02 -4.53,4.4 l -10.32,9.1 c -0.6,0.52 -1.29,1.12 -2.08,1.79 -1.81,1.54 -4.1,3.48 -6.89,5.8 -2.41,2.02 -3.88,3.12 -4.41,3.29 -0.39,0.15 -0.75,0.18 -1.06,0.08 -0.46,-0.17 -1.54,-1.14 -3.23,-2.93 l -2.05,1.79 c 2.64,2.82 4.33,4.67 5.1,5.55 0.92,1.07 2.4,2.89 4.42,5.46 l 2.05,-1.79 c -1.5,-2.05 -2.29,-3.28 -2.36,-3.73 -0.04,-0.26 0,-0.49 0.12,-0.71 0.26,-0.52 1.73,-1.99 4.38,-4.39 1.38,-1.26 2.69,-2.44 3.92,-3.55 1.97,-1.77 3.75,-3.35 5.35,-4.74 l 9.52,-8.32 c -0.95,3.84 -1.99,8.73 -3.11,14.64 -2.24,11.69 -3.98,21.54 -5.24,29.51 0.54,0.86 1.43,2.38 2.67,4.53 h 0.59 c 2.56,-2.42 5.16,-4.78 7.8,-7.09 z"
   id="path160" />
<path
   class="st2"
   d="m 365.6,102.77 c 0.84,-0.76 1.74,-1.47 2.71,-2.13 l -0.67,-2.51 c -3.69,1.11 -7.13,2.09 -10.33,2.96 -3.47,0.93 -7.43,1.94 -11.87,3.02 l 0.85,3.18 c 4.83,-0.99 7.52,-1.34 8.07,-1.04 0.55,0.31 1.36,2.48 2.43,6.52 0.48,1.81 0.91,3.76 1.24,5.83 -2.99,2.52 -6,4.2 -9.03,5.01 -5.7,1.54 -11.12,0.51 -16.25,-3.07 -5.12,-3.59 -8.7,-9.17 -10.72,-16.75 -1.9,-7.11 -1.54,-13.21 1.07,-18.3 2.6,-5.09 7.02,-8.47 13.25,-10.15 3.33,-0.9 6.34,-1.19 9.03,-0.88 2.7,0.32 5.08,1.24 7.15,2.75 0.8,1.85 1.55,4.01 2.24,6.5 l 3.05,-0.82 c -0.97,-5.05 -1.56,-9.34 -1.75,-12.86 l -0.48,-0.5 c -3.29,-0.44 -6.65,-0.51 -10.09,-0.24 -3.44,0.28 -6.94,0.89 -10.5,1.85 -10.12,2.73 -17.19,7.41 -21.22,14.04 -0.2,0.32 -0.38,0.64 -0.56,0.96 -0.64,1.16 -1.19,2.35 -1.65,3.57 -2.06,5.5 -2.19,11.61 -0.4,18.32 0.13,0.48 0.26,0.94 0.4,1.41 0.47,1.53 1.02,2.99 1.65,4.36 2.51,5.47 6.3,9.65 11.36,12.54 6.69,3.82 14.73,4.48 24.1,1.95 3.46,-0.93 6.73,-2.17 9.79,-3.71 3.06,-1.53 6.74,-3.9 11.04,-7.08 -1.35,-3.88 -2.19,-6.49 -2.55,-7.84 -0.49,-1.87 -0.95,-4.16 -1.36,-6.89 z"
   id="path162" />
<path
   class="st2"
   d="m 718.2,245.81 c 5.19,-3.65 8.69,-6.01 10.49,-7.05 0.93,-0.53 1.62,-0.73 2.05,-0.61 0.44,0.12 1.51,1.26 3.22,3.41 l 2.24,-1.57 c -1.9,-2.42 -3.93,-5.17 -6.1,-8.29 -1.25,-1.8 -3,-4.46 -5.23,-7.97 l -2.23,1.57 c 1.36,2.25 2.07,3.63 2.11,4.13 0.03,0.34 -0.06,0.68 -0.3,0.99 -0.24,0.33 -1.93,1.61 -5.09,3.88 -2.51,1.82 -4.7,3.4 -6.57,4.74 -1.55,1.11 -2.87,2.05 -3.98,2.83 l -4.42,3.09 c -4.04,2.81 -6.95,4.79 -8.77,5.93 -1.17,0.73 -2,1.04 -2.5,0.93 -0.49,-0.1 -1.59,-1.24 -3.3,-3.43 l -2.22,1.57 6.01,8.24 c 1.01,1.45 2.13,3.13 3.35,5.03 l 1.96,2.99 2.22,-1.56 c -1.22,-2.08 -1.88,-3.31 -1.98,-3.74 -0.09,-0.41 -0.06,-0.75 0.1,-1.01 0.34,-0.61 1.85,-1.9 4.54,-3.87 l 0.58,-0.42 c 1.92,-1.39 4.71,-3.39 8.39,-5.99 1.66,-1.16 3.46,-2.43 5.43,-3.82 z"
   id="path164" />
<path
   class="st2"
   d="m 775.86,384.05 c -2.41,0.29 -4.41,1.03 -6.01,2.19 -1.6,1.16 -2.73,2.63 -3.38,4.39 -0.66,1.76 -1.05,5.04 -1.22,9.87 -0.11,3.26 -0.67,5.51 -1.71,6.8 -1.04,1.27 -2.68,2.05 -4.89,2.32 -0.66,0.08 -1.29,0.09 -1.9,0.04 -0.61,-0.05 -1.21,-0.17 -1.78,-0.36 -0.94,-0.31 -1.82,-0.81 -2.64,-1.48 -1.82,-1.49 -2.9,-3.67 -3.25,-6.49 -0.2,-1.64 -0.11,-3.28 0.25,-4.91 0.37,-1.64 0.93,-2.99 1.7,-4.09 0.77,-1.09 1.43,-1.75 1.95,-1.99 0.28,-0.13 0.94,-0.29 1.99,-0.46 0.5,-0.09 1.1,-0.18 1.78,-0.27 0.54,-0.08 1.13,-0.16 1.78,-0.24 l -0.32,-2.65 c -0.51,0.06 -0.99,0.12 -1.46,0.17 -0.63,0.07 -1.22,0.13 -1.78,0.18 -1.42,0.13 -2.64,0.21 -3.65,0.23 -0.94,0.03 -1.97,-0.01 -3.09,-0.1 -0.35,-0.03 -0.71,-0.07 -1.08,-0.11 -0.91,2.32 -1.51,4.55 -1.77,6.65 -0.27,2.12 -0.24,4.42 0.06,6.92 0.42,3.45 1.35,6.38 2.79,8.8 0.91,1.53 2.03,2.86 3.36,3.98 1.07,0.9 2.2,1.63 3.38,2.2 0.58,0.28 1.17,0.51 1.78,0.71 2.1,0.67 4.36,0.86 6.77,0.56 2.62,-0.32 4.73,-1.09 6.32,-2.31 1.6,-1.21 2.69,-2.84 3.3,-4.89 0.36,-1.26 0.61,-3.57 0.73,-6.97 0.19,-3.75 0.44,-6.2 0.78,-7.38 0.35,-1.16 1,-2.13 1.94,-2.87 0.94,-0.76 2.1,-1.21 3.47,-1.38 2.26,-0.28 4.19,0.25 5.8,1.59 1.61,1.34 2.59,3.38 2.92,6.12 0.24,2 0.08,3.84 -0.51,5.48 -0.59,1.65 -1.23,2.71 -1.89,3.18 -0.39,0.26 -2.22,0.63 -5.51,1.14 l 0.32,2.62 c 2.7,-0.23 4.6,-0.35 5.71,-0.36 1.11,-0.01 2.37,0.07 3.75,0.23 l 0.73,-0.4 c 0.62,-1.89 1,-3.73 1.16,-5.56 0.14,-1.81 0.07,-3.86 -0.2,-6.15 -0.71,-5.84 -2.63,-9.91 -5.75,-12.23 -3.12,-2.32 -6.7,-3.22 -10.73,-2.72 z"
   id="path166" />
<path
   class="st2"
   d="m 748.24,285.99 0.68,-0.07 c 2.65,-0.23 4.67,-0.36 6.06,-0.39 0.81,-0.02 1.4,-0.01 1.78,0.04 0.17,0.02 0.3,0.05 0.39,0.09 0.42,0.15 1.17,1.08 2.29,2.8 l 2.43,-1.24 c -1.66,-2.94 -2.79,-4.99 -3.39,-6.16 -0.37,-0.73 -0.94,-1.94 -1.72,-3.62 -0.41,-0.9 -0.89,-1.93 -1.42,-3.1 l -0.36,0.19 -2.07,1.06 c 1,2.3 1.5,3.69 1.5,4.18 0.01,0.49 -0.21,0.84 -0.66,1.06 -0.73,0.38 -2.57,0.79 -5.51,1.23 -1.86,0.28 -4.15,0.57 -6.89,0.87 l -19.2,2.16 16.05,-17.85 c 3.21,-3.56 5.11,-5.48 5.66,-5.76 0.45,-0.23 0.87,-0.2 1.28,0.1 0.41,0.31 1.22,1.47 2.43,3.47 l 0.67,-0.34 1.76,-0.9 c -0.61,-1.08 -1.2,-2.14 -1.76,-3.17 -0.96,-1.76 -1.84,-3.43 -2.65,-5.02 -1.43,-2.83 -2.95,-6 -4.54,-9.49 l -2.43,1.24 c 0.79,2.05 1.16,3.32 1.08,3.82 -0.07,0.5 -0.56,1.3 -1.49,2.42 -1.54,1.89 -4.54,5.38 -9.02,10.43 l -19.64,22.11 1.99,3.94 c 2.88,-0.56 6.86,-1.07 11.92,-1.55 z"
   id="path168" />
<path
   class="st2"
   d="m 742.95,335.39 c -2.53,0.48 -4.81,0.83 -6.85,1.08 -1.37,-2.5 -2.66,-5.34 -3.87,-8.53 l -2.05,-5.64 c 3.04,-1.4 7.43,-3.2 13.2,-5.43 1.11,-0.43 2.21,-0.82 3.3,-1.2 0.66,1.35 1.17,2.54 1.57,3.57 v 0 c 1.26,3.31 1.97,5.48 2.11,6.5 0.04,0.43 -0.03,0.76 -0.23,0.96 -0.21,0.22 -0.84,0.59 -1.88,1.11 -0.66,0.33 -1.49,0.71 -2.49,1.16 l 0.93,2.44 1.56,-0.64 5.19,-2.13 1.55,-0.58 c 0.51,-0.18 1.1,-0.4 1.78,-0.64 0.96,-0.34 2.09,-0.75 3.39,-1.21 l -0.93,-2.44 c -1.01,0.31 -1.83,0.56 -2.46,0.73 -0.78,0.22 -1.28,0.33 -1.52,0.34 l -0.26,0.01 c -0.37,-0.01 -0.67,-0.12 -0.87,-0.35 -0.38,-0.46 -1.07,-2 -2.07,-4.62 -0.68,-1.77 -1.32,-3.7 -1.95,-5.77 1.44,-0.54 3.07,-1.14 4.9,-1.79 0.57,-0.21 1.17,-0.42 1.78,-0.63 2.47,-0.88 5.26,-1.84 8.37,-2.9 0.95,2.06 1.72,3.88 2.33,5.46 1.23,3.22 1.96,5.69 2.2,7.39 0.1,0.81 0.07,1.31 -0.08,1.51 -0.16,0.2 -1.69,0.92 -4.6,2.15 l 0.85,2.23 c 3.73,-1.22 6.76,-2.04 9.13,-2.48 l 0.25,-0.31 c -0.36,-1.38 -0.85,-2.89 -1.48,-4.53 l -6.13,-15.52 c -0.99,-2.58 -2.24,-6.13 -3.76,-10.65 l -2.55,0.98 c 0.73,2.56 0.99,4.06 0.81,4.51 -0.18,0.46 -0.87,0.94 -2.04,1.45 -0.79,0.36 -1.89,0.83 -3.3,1.41 -0.55,0.23 -1.14,0.47 -1.78,0.73 -1.85,0.75 -4.1,1.63 -6.74,2.66 l -1.78,0.69 c -10.09,3.89 -16.78,6.26 -20.08,7.1 -0.96,-0.58 -1.87,-1.28 -2.74,-2.1 l -1.63,0.63 c 1.48,3.45 2.81,6.74 4.01,9.88 0.92,2.4 1.88,5.03 2.89,7.91 1.07,3.09 1.82,5.16 2.22,6.19 0.6,1.58 1.33,3.19 2.19,4.83 3.3,-1.18 6.8,-2.25 10.52,-3.19 z"
   id="path170" />
<path
   class="st2"
   d="m 790.61,420.64 c -0.07,2.63 -0.23,4.17 -0.46,4.62 -0.15,0.3 -0.42,0.53 -0.79,0.66 -0.38,0.14 -2.49,0.29 -6.37,0.47 -5.65,0.27 -9.97,0.46 -12.95,0.57 -5.8,0.2 -10.23,0.32 -13.29,0.35 -0.66,0.01 -1.25,0.01 -1.78,0.01 l -0.88,-0.01 c -1.37,-0.03 -2.23,-0.22 -2.59,-0.58 -0.36,-0.35 -0.66,-1.92 -0.91,-4.69 l -2.35,0.08 -0.36,0.01 0.36,6.24 0.23,3.96 c 0.06,1.77 0.08,3.79 0.08,6.05 l 0.02,3.58 2.71,-0.09 c 0.1,-2.41 0.21,-3.81 0.37,-4.22 0.15,-0.4 0.37,-0.66 0.64,-0.79 0.38,-0.2 1.28,-0.38 2.69,-0.52 0.52,-0.05 1.12,-0.1 1.78,-0.15 0.45,-0.03 0.92,-0.06 1.43,-0.09 3.3,-0.17 9.17,-0.41 17.59,-0.71 6.33,-0.22 10.54,-0.28 12.62,-0.17 1.07,0.07 1.75,0.27 2.05,0.61 0.3,0.34 0.59,1.88 0.86,4.63 l 2.72,-0.09 c -0.29,-3.07 -0.49,-6.49 -0.62,-10.29 -0.08,-2.2 -0.11,-5.38 -0.07,-9.55 z"
   id="path172" />
<path
   class="st2"
   d="m 794.46,446.63 c -2.99,0.06 -6.55,-0.09 -10.66,-0.41 l -0.18,2.61 c 3.5,0.51 5.38,0.81 5.63,0.92 0.27,0.1 0.46,0.23 0.55,0.38 0.1,0.16 0.16,0.83 0.19,2.01 0.02,2.03 -0.05,4.44 -0.24,7.25 -0.09,1.36 -0.23,2.07 -0.39,2.11 -0.17,0.04 -4.53,-0.24 -13.08,-0.84 -4.36,-0.31 -8.63,-0.63 -12.8,-0.99 -2.8,-0.25 -5.04,-0.46 -6.71,-0.63 -0.69,-0.07 -1.28,-0.14 -1.78,-0.2 -0.84,-0.1 -1.41,-0.18 -1.7,-0.25 -0.66,-0.16 -1.1,-0.37 -1.33,-0.64 -0.23,-0.26 -0.38,-0.69 -0.45,-1.28 -0.14,-1.27 -0.16,-2.47 -0.09,-3.62 l -2.7,-0.19 c -0.04,2.58 -0.19,5.88 -0.47,9.92 l -0.05,0.73 c -0.23,3.33 -0.52,6.46 -0.88,9.41 l 0.93,0.07 1.78,0.12 c 0.46,-2.88 0.81,-4.44 1.02,-4.69 0.33,-0.36 1.2,-0.54 2.65,-0.54 0.32,0 0.75,0.01 1.3,0.03 0.5,0.02 1.09,0.05 1.78,0.08 2.02,0.11 4.87,0.29 8.54,0.55 l 21.72,1.71 c 0.98,0.07 1.56,0.15 1.71,0.25 0.12,0.08 0.17,0.34 0.14,0.74 -0.33,4.8 -0.69,7.99 -1.09,9.58 -0.12,0.5 -0.31,0.81 -0.55,0.93 -0.32,0.16 -2.27,0.2 -5.89,0.13 l -0.17,2.51 c 3.97,0.44 7.39,0.96 10.32,1.54 l 0.55,-0.3 c 0.21,-7.44 0.53,-14.14 0.94,-20.12 0.42,-6.01 1,-12.18 1.75,-18.5 z"
   id="path174" />
<path
   class="st2"
   d="m 741.37,357.73 c 0.09,-0.36 0.27,-0.62 0.51,-0.81 0.34,-0.24 2.06,-0.81 5.16,-1.69 l 1.19,-0.33 c 2.55,-0.71 4.79,-1.31 6.74,-1.8 0.62,-0.15 1.21,-0.3 1.78,-0.43 l 0.5,-0.12 11.88,-2.46 9.36,-1.97 c 0.5,1.48 0.85,2.67 1.04,3.56 0.64,2.8 0.42,5.05 -0.67,6.78 -1.08,1.73 -2.9,2.89 -5.45,3.48 -2.92,0.68 -5.39,0.31 -7.37,-1.09 -1.99,-1.41 -3.2,-3.03 -3.62,-4.85 -0.09,-0.38 -0.16,-0.97 -0.24,-1.79 -0.43,-0.02 -0.84,-0.08 -1.24,-0.18 l -4.19,4.14 -1.78,1.75 -2.52,2.49 c -1.52,1.49 -2.93,2.87 -4.22,4.13 -2.77,2.7 -5.02,4.87 -6.74,6.49 0.41,1.43 1.21,4.63 2.4,9.62 l 0.42,1.73 2.43,-0.56 c -0.2,-1.03 -0.23,-1.8 -0.08,-2.32 0.16,-0.47 0.67,-1.23 1.56,-2.3 l 0.25,-0.3 6.49,-6.54 0.17,-0.16 1.61,-1.6 7.08,-7.04 c 2.25,3.05 4.49,5.02 6.71,5.95 2.22,0.93 4.59,1.1 7.11,0.51 1.98,-0.46 3.61,-1.29 4.88,-2.49 1.26,-1.19 2.06,-2.6 2.38,-4.22 0.33,-1.62 0.12,-4.04 -0.61,-7.24 l -3.68,-14.72 c -0.27,-1.18 -0.8,-3.84 -1.55,-7.95 l -2.66,0.62 c 0.25,2.28 0.32,3.6 0.17,3.97 -0.08,0.27 -0.26,0.47 -0.51,0.62 -0.85,0.5 -3.26,1.26 -7.27,2.27 -4.75,1.18 -8.77,2.16 -12.05,2.93 l -1.25,0.29 -0.53,0.12 c -1.81,0.42 -4.06,0.91 -6.74,1.48 -1.07,0.23 -2.21,0.47 -3.41,0.72 -2.91,0.6 -4.66,0.86 -5.2,0.77 -0.31,-0.03 -0.55,-0.14 -0.72,-0.33 -0.27,-0.28 -0.77,-1.55 -1.51,-3.78 l -2.64,0.62 c 0.92,3.3 1.71,6.43 2.37,9.33 0.63,2.73 1.28,5.88 1.95,9.47 l 2.64,-0.62 c -0.37,-2.3 -0.48,-3.68 -0.33,-4.15 z"
   id="path176" />
<path
   class="st2"
   d="m 786.74,488.4 -0.13,1.46 c -0.08,0.54 -0.25,0.96 -0.51,1.27 -0.74,0.87 -2.15,1.87 -4.26,3.01 -2.12,1.13 -5.61,2.7 -10.46,4.7 -4.84,2 -7.91,3.15 -9.16,3.42 -0.77,0.15 -2.58,0.03 -5.46,-0.38 h -0.02 l -1.76,-0.27 -0.58,-0.09 c -3.66,-0.65 -5.71,-1.03 -6.16,-1.14 -0.04,-0.01 -0.06,-0.02 -0.08,-0.02 -0.72,-0.24 -1.17,-0.62 -1.33,-1.14 -0.27,-0.85 -0.28,-2.31 0.01,-4.37 l -2.69,-0.38 c -0.4,3.97 -0.84,7.61 -1.3,10.93 -0.42,3.02 -0.91,5.98 -1.46,8.88 l 2.68,0.38 c 0.47,-2.68 0.87,-4.23 1.2,-4.62 0.35,-0.38 1.07,-0.55 2.17,-0.51 0.25,0.01 0.51,0.03 0.8,0.05 1.6,0.11 3.85,0.36 6.74,0.73 0.57,0.07 1.16,0.15 1.78,0.24 0.44,0.06 0.89,0.12 1.35,0.19 2.48,0.35 4.12,0.74 4.91,1.17 1.24,0.71 5.33,3.86 12.26,9.45 4.42,3.56 7.23,5.97 8.42,7.22 l 1.6,0.23 0.68,-4.89 c -6.7,-4.68 -11.92,-8.44 -15.68,-11.25 l -4.16,-3.1 c 6.38,-1.93 11.28,-3.59 14.72,-4.94 3.43,-1.36 5.77,-2.48 7.01,-3.35 0.82,-0.59 1.57,-1.38 2.26,-2.37 -0.42,-3.36 -0.72,-6.75 -0.87,-10.16 z"
   id="path178" />
<polygon
   class="st2"
   points="512.93,864.64 513.98,861.24 514.84,857.83 515.47,854.21 519.71,853.36 522.46,852.3 523.3,853.15 519.91,859.96 515.68,866.99 512.08,868.69 511.23,868.05 "
   id="polygon180"
   transform="translate(-82.44,-65.59)" />
</svg>
