<?xml version="1.0" encoding="UTF-8" standalone="no"?>
<svg
   xmlns:dc="http://purl.org/dc/elements/1.1/"
   xmlns:cc="http://creativecommons.org/ns#"
   xmlns:rdf="http://www.w3.org/1999/02/22-rdf-syntax-ns#"
   xmlns:svg="http://www.w3.org/2000/svg"
   xmlns="http://www.w3.org/2000/svg"
   xmlns:sodipodi="http://sodipodi.sourceforge.net/DTD/sodipodi-0.dtd"
   xmlns:inkscape="http://www.inkscape.org/namespaces/inkscape"
   id="Layer_1"
   data-name="Layer 1"
   viewBox="0 0 120 60.000001"
   version="1.1"
   sodipodi:docname="sprite360.svg"
   width="120"
   height="60"
   inkscape:version="1.0.2-2 (e86c870879, 2021-01-15)">
  <metadata
     id="metadata45">
    <rdf:RDF>
      <cc:Work
         rdf:about="">
        <dc:format>image/svg+xml</dc:format>
        <dc:type
           rdf:resource="http://purl.org/dc/dcmitype/StillImage" />
        <dc:title />
      </cc:Work>
    </rdf:RDF>
  </metadata>
  <sodipodi:namedview
     pagecolor="#ffffff"
     bordercolor="#666666"
     borderopacity="1"
     objecttolerance="10"
     gridtolerance="10"
     guidetolerance="10"
     inkscape:pageopacity="0"
     inkscape:pageshadow="2"
     inkscape:window-width="1920"
     inkscape:window-height="986"
     id="namedview43"
     showgrid="false"
     inkscape:zoom="5.230056"
     inkscape:cx="10.341258"
     inkscape:cy="28.43393"
     inkscape:window-x="-11"
     inkscape:window-y="-11"
     inkscape:window-maximized="1"
     inkscape:current-layer="Layer_1"
     inkscape:document-rotation="0" />
  <defs
     id="defs4">
    <style
       id="style2">.cls-1{fill:#231f20;stroke:#fff;stroke-miterlimit:10;}.cls-2{fill:#fff;}</style>
  </defs>
  <g
     id="g65"
     transform="matrix(0.55989711,0,0,0.55989711,4.9996311,10.033594)">
    <path
       class="cls-1"
       d="M 144.51,85.94"
       transform="translate(-67.7,-59)"
       id="path6" />
    <path
       class="cls-2"
       d="m 99.71,125 h -0.44 l -1.41,-0.08 0.3,-3.63 a 31.24,31.24 0 0 0 5.72,-0.07 l 0.4,3.61 -0.85,0.08 -1.71,0.1 a 0.29,0.29 0 0 0 -0.1,0 z"
       transform="translate(-67.7,-59)"
       id="path8" />
    <path
       class="cls-2"
       d="m 101.17,59 h 0.61 0.94 l -0.23,3.59 c -1,0 -1.92,0 -2.87,0 -0.95,0 -1.89,0.13 -2.85,0.19 L 96.3,59.2 c 0.59,-0.06 1.17,-0.13 1.75,-0.17 l 2,-0.09 a 0.45,0.45 0 0 0 0.11,0 z"
       transform="translate(-67.7,-59)"
       id="path10" />
    <path
       class="cls-2"
       d="m 112.15,69.87 1.09,-0.18 4.57,-0.72 0.85,-0.13 A 0.63,0.63 0 0 0 118.89,68.72 20.36,20.36 0 0 0 121,66 c 0.65,-0.93 1.3,-1.87 2,-2.8 l 0.1,-0.13 2.6,16.28 c 0.05,0.11 -9.05,-6.35 -13.55,-9.48 z"
       transform="translate(-67.7,-59)"
       id="path12" />
    <path
       class="cls-2"
       d="m 67.79,89.55 3.62,0.27 a 30.41,30.41 0 0 0 0.14,5.72 L 67.94,96 a 33.58,33.58 0 0 1 -0.15,-6.45 z"
       transform="translate(-67.7,-59)"
       id="path14" />
    <path
       class="cls-2"
       d="m 71.17,77.24 3.26,1.62 a 29,29 0 0 0 -2.05,5.34 l -3.51,-1 a 32.74,32.74 0 0 1 2.3,-5.96 z"
       transform="translate(-67.7,-59)"
       id="path16" />
    <path
       class="cls-2"
       d="m 69.32,102.23 3.46,-1.13 a 29.67,29.67 0 0 0 2.3,5.23 l -3.17,1.78 a 32.51,32.51 0 0 1 -2.59,-5.88 z"
       transform="translate(-67.7,-59)"
       id="path18" />
    <path
       class="cls-2"
       d="m 108.12,63.61 0.92,-3.52 a 32.69,32.69 0 0 1 6,2.23 l -1.6,3.28 a 29,29 0 0 0 -5.32,-1.99 z"
       transform="translate(-67.7,-59)"
       id="path20" />
    <path
       class="cls-2"
       d="m 82.46,115 -2.26,2.85 a 33.65,33.65 0 0 1 -4.63,-4.46 L 78.34,111 a 29.82,29.82 0 0 0 4.12,4 z"
       transform="translate(-67.7,-59)"
       id="path22" />
    <path
       class="cls-2"
       d="m 117.84,115 2.26,2.85 a 33.09,33.09 0 0 0 4.63,-4.46 L 122,111 a 29.82,29.82 0 0 1 -4.16,4 z"
       transform="translate(-67.7,-59)"
       id="path24" />
    <path
       class="cls-2"
       d="M 91.23,64.21 A 29.09,29.09 0 0 0 86,66.57 l -1.8,-3.15 a 32.28,32.28 0 0 1 5.86,-2.66 z"
       transform="translate(-67.7,-59)"
       id="path26" />
    <path
       class="cls-2"
       d="m 79,67.14 2.4,2.74 a 29.81,29.81 0 0 0 -3.93,4.17 L 74.59,71.82 A 33.7,33.7 0 0 1 79,67.14 Z"
       transform="translate(-67.7,-59)"
       id="path28" />
    <path
       class="cls-2"
       d="m 91.56,123.67 a 32.1,32.1 0 0 1 -6,-2.37 l 1.67,-3.23 a 30.12,30.12 0 0 0 5.31,2.11 z"
       transform="translate(-67.7,-59)"
       id="path30" />
    <path
       class="cls-2"
       d="m 110.09,123.67 a 32.1,32.1 0 0 0 6,-2.37 l -1.67,-3.23 a 30.12,30.12 0 0 1 -5.31,2.11 z"
       transform="translate(-67.7,-59)"
       id="path32" />
    <path
       class="cls-2"
       d="m 77.45,98.07 6.62,-0.81 q 0.65,3.46 3.72,3.47 a 3.42,3.42 0 0 0 2.26,-0.72 2.4,2.4 0 0 0 0.88,-2 2.27,2.27 0 0 0 -0.48,-1.44 2.73,2.73 0 0 0 -1,-0.88 4.79,4.79 0 0 0 -1.86,-0.25 H 84.5 v -5.3 h 2.6 c 1.39,0 2.28,-0.24 2.67,-0.74 a 2.44,2.44 0 0 0 0.6,-1.54 2.19,2.19 0 0 0 -0.74,-1.68 2.86,2.86 0 0 0 -2,-0.67 q -2.6,0 -3.17,2.9 l -6.14,-1 A 9.06,9.06 0 0 1 81.9,82 10.81,10.81 0 0 1 88.31,80.07 10.68,10.68 0 0 1 95,82 a 6.27,6.27 0 0 1 2.53,5.21 5.6,5.6 0 0 1 -1.07,3.4 5.16,5.16 0 0 1 -2.73,1.95 q 4.58,1.4 4.58,6 a 6.59,6.59 0 0 1 -2.78,5.66 12,12 0 0 1 -7.21,2 q -8.88,0 -10.87,-8.15 z"
       transform="translate(-67.7,-59)"
       id="path34" />
    <path
       class="cls-2"
       d="m 120,87.63 -6.49,0.78 c -0.2,-2 -1,-3 -2.48,-3 q -3.15,0 -3.25,6.6 c 1,-1.56 2.7,-2.34 5.12,-2.34 a 7.43,7.43 0 0 1 5.6,2.21 7.83,7.83 0 0 1 2.15,5.69 8.12,8.12 0 0 1 -2.72,6.17 10,10 0 0 1 -7,2.53 10.45,10.45 0 0 1 -5.6,-1.52 9.36,9.36 0 0 1 -3.7,-4.47 18.45,18.45 0 0 1 1.49,-16.31 9,9 0 0 1 7.79,-3.86 9.62,9.62 0 0 1 6.09,1.89 8.34,8.34 0 0 1 3,5.63 z m -9.32,13.42 a 2.6,2.6 0 0 0 2,-0.87 3.15,3.15 0 0 0 0.76,-2.14 3.38,3.38 0 0 0 -0.75,-2.18 2.45,2.45 0 0 0 -2,-0.93 2.69,2.69 0 0 0 -2.09,0.92 3.2,3.2 0 0 0 -0.82,2.21 3.09,3.09 0 0 0 0.78,2.12 2.65,2.65 0 0 0 2.16,0.87 z"
       transform="translate(-67.7,-59)"
       id="path36" />
    <path
       class="cls-2"
       d="m 132.73,106.22 a 8.55,8.55 0 0 1 -7.26,-3.62 q -2.68,-3.61 -2.68,-9.51 0,-5.9 2.74,-9.53 a 8.85,8.85 0 0 1 7.33,-3.5 8.4,8.4 0 0 1 7.38,3.73 16.44,16.44 0 0 1 2.57,9.53 q 0,5.91 -2.76,9.4 a 8.87,8.87 0 0 1 -7.32,3.5 z m 0.08,-5.39 c 1.06,0 1.78,-0.68 2.14,-2 a 22.66,22.66 0 0 0 0.54,-5.57 q 0,-4.84 -0.72,-6.34 a 2.17,2.17 0 0 0 -1.94,-1.48 c -1,0 -1.68,0.65 -2.06,2 a 20.68,20.68 0 0 0 -0.56,5.4 23.87,23.87 0 0 0 0.56,6.36 2.1,2.1 0 0 0 2.04,1.63 z"
       transform="translate(-67.7,-59)"
       id="path38" />
    <path
       class="cls-2"
       d="m 150.29,88.81 a 6.23,6.23 0 0 1 -6.54,-6.26 6.06,6.06 0 0 1 1.85,-4.55 7.32,7.32 0 0 1 9.59,0 6,6 0 0 1 1.81,4.48 6.1,6.1 0 0 1 -1.83,4.52 6.64,6.64 0 0 1 -4.88,1.81 z m 0.07,-2.87 a 1.27,1.27 0 0 0 1.35,-1.15 11.59,11.59 0 0 0 0.29,-2.39 6.3,6.3 0 0 0 -0.35,-2.45 1.35,1.35 0 0 0 -2.43,0 6,6 0 0 0 -0.38,2.54 6.33,6.33 0 0 0 0.39,2.75 1.28,1.28 0 0 0 1.13,0.7 z"
       transform="translate(-67.7,-59)"
       id="path40" />
  </g>
  <g
     id="g145"
     transform="translate(7.046836,13.361994)">
    <g
       id="g63"
       transform="matrix(0.83333327,0,0,0.83333327,9.6588641,-0.56033248)">
      <path
         class="cls-1"
         d="M 109.55956,14.778672"
         id="path6-6"
         style="fill:#231f20;stroke:#ffffff;stroke-width:0.671877;stroke-miterlimit:10" />
      <path
         class="cls-2"
         d="m 79.459492,41.02217 h -0.295626 l -0.947346,-0.05375 0.201563,-2.438912 a 20.989423,20.989423 0 0 0 3.843134,-0.04703 l 0.268751,2.425475 -0.571095,0.05375 -1.148909,0.06719 a 0.19484419,0.19484419 0 0 0 -0.06719,0 z"
         id="path8-2"
         style="fill:#939598;stroke-width:0.671877" />
      <path
         class="cls-2"
         d="m 80.440432,-3.321681 h 0.409844 0.631564 l -0.154531,2.4120367 c -0.671877,0 -1.290003,0 -1.928286,0 -0.638283,0 -1.269847,0.087344 -1.914848,0.1276566 l -0.315782,-2.405318 c 0.396407,-0.040313 0.786096,-0.087344 1.175784,-0.114219 l 1.343753,-0.060469 a 0.30234444,0.30234444 0 0 0 0.07391,0 z"
         id="path10-7"
         style="fill:#939598;stroke-width:0.671877" />
      <path
         class="cls-2"
         d="M 87.817636,3.9816169 88.549981,3.8606791 91.620457,3.376928 92.191552,3.289584 a 0.42328221,0.42328221 0 0 0 0.154532,-0.080625 13.679406,13.679406 0 0 0 1.417659,-1.8275042 c 0.43672,-0.6248452 0.87344,-1.2564091 1.343753,-1.8812543 l 0.06719,-0.087344 1.746879,10.9381495 c 0.03359,0.07391 -6.080483,-4.2664156 -9.103927,-6.3693891 z"
         id="path12-0"
         style="fill:#939598;stroke-width:0.671877" />
      <path
         class="cls-2"
         d="m 58.013193,17.204147 2.432193,0.181406 a 20.431765,20.431765 0 0 0 0.09406,3.843134 L 58.113972,21.53775 A 22.561614,22.561614 0 0 1 58.01319,17.204147 Z"
         id="path14-2"
         style="fill:#939598;stroke-width:0.671877" />
      <path
         class="cls-2"
         d="m 60.284136,8.9333474 2.190317,1.0884396 a 19.484419,19.484419 0 0 0 -1.377347,3.58782 L 58.73882,12.937731 a 21.997238,21.997238 0 0 1 1.545316,-4.0043836 z"
         id="path16-6"
         style="fill:#939598;stroke-width:0.671877" />
      <path
         class="cls-2"
         d="m 59.041164,25.723541 2.324693,-0.75922 a 19.934577,19.934577 0 0 0 1.545316,3.513914 l -2.129849,1.19594 a 21.842706,21.842706 0 0 1 -1.74016,-3.950634 z"
         id="path18-9"
         style="fill:#939598;stroke-width:0.671877" />
      <path
         class="cls-2"
         d="M 85.109974,-0.2243302 85.7281,-2.5893356 a 21.963644,21.963644 0 0 1 4.031259,1.4982847 l -1.075002,2.203755 a 19.484419,19.484419 0 0 0 -3.574383,-1.3370343 z"
         id="path20-2"
         style="fill:#939598;stroke-width:0.671877" />
      <path
         class="cls-2"
         d="m 67.869622,34.303404 -1.518441,1.914848 a 22.608645,22.608645 0 0 1 -3.110789,-2.996569 l 1.861098,-1.605785 a 20.035358,20.035358 0 0 0 2.768132,2.687506 z"
         id="path22-2"
         style="fill:#939598;stroke-width:0.671877" />
      <path
         class="cls-2"
         d="m 91.640613,34.303404 1.518441,1.914848 a 22.232394,22.232394 0 0 0 3.110789,-2.996569 L 94.43562,31.615898 a 20.035358,20.035358 0 0 1 -2.795007,2.687506 z"
         id="path24-5"
         style="fill:#939598;stroke-width:0.671877" />
      <path
         class="cls-2"
         d="m 73.761979,0.1787957 a 19.544888,19.544888 0 0 0 -3.513914,1.5856286 l -1.209378,-2.116411 a 21.688174,21.688174 0 0 1 3.937196,-1.7871916 z"
         id="path26-9"
         style="fill:#939598;stroke-width:0.671877" />
      <path
         class="cls-2"
         d="m 65.544929,2.147394 1.612504,1.8409417 A 20.028639,20.028639 0 0 0 64.516958,6.7900604 L 62.581954,5.2917761 A 22.642239,22.642239 0 0 1 65.544929,2.147394 Z"
         id="path28-6"
         style="fill:#939598;stroke-width:0.671877" />
      <path
         class="cls-2"
         d="m 73.983698,40.128574 a 21.567237,21.567237 0 0 1 -4.031259,-1.592347 l 1.122034,-2.170162 a 20.236921,20.236921 0 0 0 3.567664,1.41766 z"
         id="path30-3"
         style="fill:#939598;stroke-width:0.671877" />
      <path
         class="cls-2"
         d="m 86.43357,40.128574 a 21.567237,21.567237 0 0 0 4.03126,-1.592347 l -1.122034,-2.170162 a 20.236921,20.236921 0 0 1 -3.567665,1.41766 z"
         id="path32-8"
         style="fill:#939598;stroke-width:0.671877" />
      <path
         class="cls-2"
         d="m 64.50352,22.928535 4.447823,-0.54422 q 0.43672,2.324692 2.499381,2.331411 a 2.2978177,2.2978177 0 0 0 1.518441,-0.483751 1.6125037,1.6125037 0 0 0 0.591251,-1.343753 1.5251597,1.5251597 0 0 0 -0.322501,-0.967502 1.8342229,1.8342229 0 0 0 -0.671876,-0.591251 3.2182886,3.2182886 0 0 0 -1.249691,-0.16797 H 69.24025 v -3.560945 h 1.746879 c 0.933908,0 1.531878,-0.161251 1.79391,-0.497189 a 1.6393787,1.6393787 0 0 0 0.403126,-1.03469 1.4714096,1.4714096 0 0 0 -0.497188,-1.128752 1.9215669,1.9215669 0 0 0 -1.343754,-0.450158 q -1.746879,0 -2.129848,1.948442 l -4.125322,-0.671876 a 6.0872014,6.0872014 0 0 1 2.405318,-3.634852 7.2629853,7.2629853 0 0 1 4.306728,-1.296722 7.1756414,7.1756414 0 0 1 4.494854,1.296722 4.2126659,4.2126659 0 0 1 1.699848,3.500477 3.7625086,3.7625086 0 0 1 -0.718908,2.28438 3.4668829,3.4668829 0 0 1 -1.834223,1.310159 q 3.077195,0.940627 3.077195,4.031259 a 4.4276663,4.4276663 0 0 1 -1.867817,3.802821 8.0625184,8.0625184 0 0 1 -4.84423,1.343753 q -5.966263,0 -7.303298,-5.475793 z"
         id="path34-0"
         style="fill:#939598;stroke-width:0.671877" />
      <path
         class="cls-2"
         d="m 93.091867,15.914144 -4.360479,0.524063 c -0.134375,-1.343753 -0.671876,-2.015629 -1.666254,-2.015629 q -2.116411,0 -2.183598,4.434385 c 0.671876,-1.048127 1.814066,-1.572191 3.440007,-1.572191 a 4.9920426,4.9920426 0 0 1 3.762509,1.484847 5.2607932,5.2607932 0 0 1 1.444535,3.822977 5.4556374,5.4556374 0 0 1 -1.827505,4.145479 6.7187653,6.7187653 0 0 1 -4.703135,1.699847 7.0211098,7.0211098 0 0 1 -3.762509,-1.021252 6.2887643,6.2887643 0 0 1 -2.485943,-3.003288 12.396122,12.396122 0 0 1 1.001096,-10.958306 6.0468888,6.0468888 0 0 1 5.233918,-2.593444 6.4634522,6.4634522 0 0 1 4.091728,1.269847 5.6034503,5.6034503 0 0 1 2.01563,3.782665 z m -6.26189,9.016583 a 1.746879,1.746879 0 0 0 1.343754,-0.584533 2.1164111,2.1164111 0 0 0 0.510626,-1.437816 2.2709427,2.2709427 0 0 0 -0.503908,-1.46469 1.6460975,1.6460975 0 0 0 -1.343753,-0.624846 1.8073479,1.8073479 0 0 0 -1.404222,0.618127 2.1500049,2.1500049 0 0 0 -0.550938,1.484847 2.0760985,2.0760985 0 0 0 0.524063,1.424378 1.7804728,1.7804728 0 0 0 1.451254,0.584533 z"
         id="path36-4"
         style="fill:#939598;stroke-width:0.671877" />
      <path
         class="cls-2"
         d="m 101.64486,28.404328 a 5.7445443,5.7445443 0 0 1 -4.877829,-2.432193 q -1.800629,-2.425474 -1.800629,-6.389545 0,-3.964072 1.840942,-6.402984 a 5.9461073,5.9461073 0 0 1 4.924856,-2.351568 5.6437629,5.6437629 0 0 1 4.95845,2.5061 11.04565,11.04565 0 0 1 1.72672,6.402983 q 0,3.97079 -1.85438,6.31564 a 5.9595448,5.9595448 0 0 1 -4.91813,2.351567 z m 0.0538,-3.621414 c 0.71218,0 1.19593,-0.456876 1.43781,-1.343753 a 15.224722,15.224722 0 0 0 0.36281,-3.742352 q 0,-3.251883 -0.48375,-4.259698 a 1.4579721,1.4579721 0 0 0 -1.30344,-0.994377 c -0.67187,0 -1.12875,0.43672 -1.38406,1.343753 a 13.894407,13.894407 0 0 0 -0.376254,3.628133 16.037693,16.037693 0 0 0 0.376254,4.273135 1.4109407,1.4109407 0 0 0 1.37063,1.095159 z"
         id="path38-8"
         style="fill:#939598;stroke-width:0.671877" />
      <path
         class="cls-2"
         d="m 113.44301,16.706958 a 4.1857908,4.1857908 0 0 1 -4.39408,-4.205947 4.0715718,4.0715718 0 0 1 1.24298,-3.0570376 4.9181362,4.9181362 0 0 1 6.44329,0 4.0312592,4.0312592 0 0 1 1.2161,3.0100066 4.0984468,4.0984468 0 0 1 -1.22954,3.036881 4.4612602,4.4612602 0 0 1 -3.27875,1.216097 z m 0.047,-1.928286 a 0.8532832,0.8532832 0 0 0 0.90703,-0.772658 7.787049,7.787049 0 0 0 0.19485,-1.605785 4.2328221,4.2328221 0 0 0 -0.23516,-1.646097 0.90703332,0.90703332 0 0 0 -1.63266,0 4.0312592,4.0312592 0 0 0 -0.25532,1.706566 4.2529784,4.2529784 0 0 0 0.26204,1.847661 0.86000196,0.86000196 0 0 0 0.75922,0.470313 z"
         id="path40-3"
         style="fill:#939598;stroke-width:0.671877" />
    </g>
  </g>
</svg>
