<?xml version="1.0" encoding="UTF-8" standalone="no"?>
<svg
   xmlns:dc="http://purl.org/dc/elements/1.1/"
   xmlns:cc="http://creativecommons.org/ns#"
   xmlns:rdf="http://www.w3.org/1999/02/22-rdf-syntax-ns#"
   xmlns:svg="http://www.w3.org/2000/svg"
   xmlns="http://www.w3.org/2000/svg"
   xmlns:sodipodi="http://sodipodi.sourceforge.net/DTD/sodipodi-0.dtd"
   xmlns:inkscape="http://www.inkscape.org/namespaces/inkscape"
   id="Layer_1"
   data-name="Layer 1"
   viewBox="0 0 120 60"
   version="1.1"
   sodipodi:docname="spriteResLife.svg"
   width="120"
   height="60"
   inkscape:version="1.0.2-2 (e86c870879, 2021-01-15)">
  <metadata
     id="metadata15">
    <rdf:RDF>
      <cc:Work
         rdf:about="">
        <dc:format>image/svg+xml</dc:format>
        <dc:type
           rdf:resource="http://purl.org/dc/dcmitype/StillImage" />
        <dc:title />
      </cc:Work>
    </rdf:RDF>
  </metadata>
  <sodipodi:namedview
     pagecolor="#ffffff"
     bordercolor="#666666"
     borderopacity="1"
     objecttolerance="10"
     gridtolerance="10"
     guidetolerance="10"
     inkscape:pageopacity="0"
     inkscape:pageshadow="2"
     inkscape:window-width="1920"
     inkscape:window-height="986"
     id="namedview13"
     showgrid="false"
     inkscape:zoom="7.7837838"
     inkscape:cx="59.146264"
     inkscape:cy="26.17621"
     inkscape:window-x="-11"
     inkscape:window-y="-11"
     inkscape:window-maximized="1"
     inkscape:current-layer="Layer_1"
     inkscape:document-rotation="0" />
  <defs
     id="defs4">
    <style
       id="style2">.cls-1{fill:#fff;}</style>
  </defs>
  <g
     id="g20"
     transform="matrix(0.699986,0,0,0.699986,5,7.5)">
    <path
       class="cls-1"
       d="m 81.93,97.19 v -16 c 0,0 16.59,3.37 16.59,16.31 z"
       transform="translate(-75.61,-75.3)"
       id="path6" />
    <rect
       class="cls-1"
       x="6.3200002"
       y="23.85"
       width="60.419998"
       height="13.22"
       id="rect8" />
    <polygon
       class="cls-1"
       points="68.09,38.22 68.09,16.07 71.43,16.07 71.43,64.75 68.09,64.75 68.09,43.09 4.88,43.09 4.88,64.75 0,64.75 0,0 4.88,0 4.88,38.22 66.03,38.22 "
       id="polygon10" />
  </g>
  <g
     id="g17"
     transform="matrix(0.83333333,0,0,0.83333333,15,5.4166667)">
    <path
       class="cls-1"
       d="M 65.30869,18.387232 V 4.9475007 c 0,0 13.93532,2.830743 13.93532,13.7001263 z"
       id="path6-4"
       style="fill:#939598;stroke-width:0.839983" />
    <rect
       class="cls-1"
       x="65.308693"
       y="20.0336"
       width="50.751785"
       height="11.104578"
       id="rect8-5"
       style="fill:#939598;stroke-width:0.839983" />
    <polygon
       class="cls-1"
       points="4.88,38.22 66.03,38.22 68.09,38.22 68.09,16.07 71.43,16.07 71.43,64.75 68.09,64.75 68.09,43.09 4.88,43.09 4.88,64.75 0,64.75 0,0 4.88,0 "
       id="polygon10-7"
       transform="matrix(0.8399832,0,0,0.8399832,60,2.5)"
       style="fill:#939598" />
  </g>
</svg>
