<?xml version="1.0" encoding="UTF-8" standalone="no"?>
<svg
   xmlns:dc="http://purl.org/dc/elements/1.1/"
   xmlns:cc="http://creativecommons.org/ns#"
   xmlns:rdf="http://www.w3.org/1999/02/22-rdf-syntax-ns#"
   xmlns:svg="http://www.w3.org/2000/svg"
   xmlns="http://www.w3.org/2000/svg"
   xmlns:sodipodi="http://sodipodi.sourceforge.net/DTD/sodipodi-0.dtd"
   xmlns:inkscape="http://www.inkscape.org/namespaces/inkscape"
   version="1.1"
   id="Layer_1"
   x="0px"
   y="0px"
   viewBox="0 0 118.43 174.38"
   xml:space="preserve"
   sodipodi:docname="Academic_Icon.svg"
   width="118.43"
   height="174.38"
   inkscape:version="1.0.2 (e86c870879, 2021-01-15)"><metadata
   id="metadata31"><rdf:RDF><cc:Work
       rdf:about=""><dc:format>image/svg+xml</dc:format><dc:type
         rdf:resource="http://purl.org/dc/dcmitype/StillImage" /><dc:title></dc:title></cc:Work></rdf:RDF></metadata><defs
   id="defs29" /><sodipodi:namedview
   pagecolor="#ffffff"
   bordercolor="#666666"
   borderopacity="1"
   objecttolerance="10"
   gridtolerance="10"
   guidetolerance="10"
   inkscape:pageopacity="0"
   inkscape:pageshadow="2"
   inkscape:window-width="2560"
   inkscape:window-height="1351"
   id="namedview27"
   showgrid="false"
   fit-margin-top="0"
   fit-margin-left="0"
   fit-margin-right="0"
   fit-margin-bottom="0"
   inkscape:zoom="3.7333333"
   inkscape:cx="55.886297"
   inkscape:cy="86.69"
   inkscape:window-x="1910"
   inkscape:window-y="-10"
   inkscape:window-maximized="1"
   inkscape:current-layer="Layer_1"
   inkscape:document-rotation="0"
   units="mm"
   width="118.43mm" />
<style
   type="text/css"
   id="style2">
	.st0{fill:#002B58;}
	.st1{fill:#FFFFFF;}
</style>

<g
   id="g31"><g
     id="g44"
     transform="translate(-52.113703,-48.31)"><path
       class="st0"
       d="m 170.49,109.4 c 0.03,-0.67 0.05,-1.33 0.05,-1.98 0,-32.65 -26.47,-59.11 -59.11,-59.11 -32.64,0 -59.11,26.47 -59.11,59.11 0,0 -6.9,27.59 59.11,115.27 0,0 40.41,-51.91 54.41,-92.12 2.77,-6.54 4.4,-13.68 4.65,-21.17 z"
       id="path4" /><g
       id="g24">
	<g
   id="g22">
		<rect
   x="86.089996"
   y="83.190002"
   class="st1"
   width="50.459999"
   height="2.3900001"
   id="rect6" />
		<path
   class="st1"
   d="M 88.16,132.02 V 86.86 h 46.32 v 45.17 h -6.88 v -20.12 c 0,-6.92 -7.29,-12.53 -16.28,-12.53 -9,0 -16.29,5.61 -16.29,12.53 v 20.12 h -6.87 z"
   id="path8" />
		<polygon
   class="st1"
   points="136.53,91.21 136.53,89.56 136.53,88.73 153.94,88.73 153.94,91.21 "
   id="polygon10" />
		<polygon
   class="st1"
   points="153.94,121.21 153.94,120.14 152.14,119.19 152.14,92.49 136.53,92.49 136.53,119.19 136.53,119.38 136.53,121.21 "
   id="polygon12" />
		<path
   class="st1"
   d="m 153,122.47 h -16.46 v 9.55 H 153 Z"
   id="path14" />
		<polygon
   class="st1"
   points="86.11,91.21 86.11,89.56 86.11,88.73 68.7,88.73 68.7,91.21 "
   id="polygon16" />
		<polygon
   class="st1"
   points="86.11,119.19 86.11,92.49 70.5,92.49 70.5,119.2 68.7,120.14 68.7,121.21 86.11,121.21 "
   id="polygon18" />
		<path
   class="st1"
   d="m 69.64,132.02 h 16.47 v -9.55 H 69.64 Z"
   id="path20" />
	</g>
</g></g></g>
</svg>
