<?xml version="1.0" encoding="UTF-8" standalone="no"?>
<svg
   xmlns:dc="http://purl.org/dc/elements/1.1/"
   xmlns:cc="http://creativecommons.org/ns#"
   xmlns:rdf="http://www.w3.org/1999/02/22-rdf-syntax-ns#"
   xmlns:svg="http://www.w3.org/2000/svg"
   xmlns="http://www.w3.org/2000/svg"
   xmlns:sodipodi="http://sodipodi.sourceforge.net/DTD/sodipodi-0.dtd"
   xmlns:inkscape="http://www.inkscape.org/namespaces/inkscape"
   id="Layer_1"
   data-name="Layer 1"
   viewBox="0 0 120 60"
   version="1.1"
   sodipodi:docname="spriteAcademics.svg"
   width="120"
   height="60"
   inkscape:version="1.0.2-2 (e86c870879, 2021-01-15)">
  <metadata
     id="metadata25">
    <rdf:RDF>
      <cc:Work
         rdf:about="">
        <dc:format>image/svg+xml</dc:format>
        <dc:type
           rdf:resource="http://purl.org/dc/dcmitype/StillImage" />
        <dc:title />
      </cc:Work>
    </rdf:RDF>
  </metadata>
  <sodipodi:namedview
     pagecolor="#ffffff"
     bordercolor="#666666"
     borderopacity="1"
     objecttolerance="10"
     gridtolerance="10"
     guidetolerance="10"
     inkscape:pageopacity="0"
     inkscape:pageshadow="2"
     inkscape:window-width="1920"
     inkscape:window-height="986"
     id="namedview23"
     showgrid="false"
     fit-margin-top="0"
     fit-margin-left="0"
     fit-margin-right="0"
     fit-margin-bottom="0"
     inkscape:zoom="7.7487097"
     inkscape:cx="63.766742"
     inkscape:cy="21.496938"
     inkscape:window-x="-11"
     inkscape:window-y="-11"
     inkscape:window-maximized="1"
     inkscape:current-layer="Layer_1"
     inkscape:document-rotation="0" />
  <defs
     id="defs4">
    <style
       id="style2">.cls-1{fill:#fff;}</style>
  </defs>
  <g
     id="g145"
     transform="matrix(0.83333333,0,0,0.83333333,5,15)">
    <g
       id="g35"
       transform="scale(0.70389489)">
      <rect
         class="cls-1"
         x="17.389999"
         width="50.459999"
         height="2.3900001"
         id="rect6"
         y="0" />
      <path
         class="cls-1"
         d="M 88.16,132 V 86.86 h 46.32 V 132 h -6.88 v -20.09 c 0,-6.92 -7.29,-12.53 -16.28,-12.53 C 102.33,99.38 95,105 95,111.91 V 132 Z"
         transform="translate(-68.7,-83.19)"
         id="path8" />
      <polygon
         class="cls-1"
         points="85.24,8.02 67.83,8.02 67.83,6.37 67.83,5.54 85.24,5.54 "
         id="polygon10" />
      <polygon
         class="cls-1"
         points="67.83,9.3 67.83,36 67.83,36.19 67.83,38.02 85.24,38.02 85.24,36.95 83.44,36 83.44,9.3 "
         id="polygon12" />
      <path
         class="cls-1"
         d="M 153,122.47 H 136.53 V 132 H 153 Z"
         transform="translate(-68.7,-83.19)"
         id="path14" />
      <polygon
         class="cls-1"
         points="0,8.02 17.41,8.02 17.41,6.37 17.41,5.54 0,5.54 "
         id="polygon16" />
      <polygon
         class="cls-1"
         points="0,36.95 0,38.02 17.41,38.02 17.41,36 17.41,9.3 1.8,9.3 1.8,36.02 "
         id="polygon18" />
      <path
         class="cls-1"
         d="m 69.64,132 h 16.47 v -9.55 H 69.64 Z"
         transform="translate(-68.7,-83.19)"
         id="path20" />
    </g>
  </g>
  <g
     id="g36"
     transform="matrix(0.83333333,0,0,0.83333333,15,4.5833334)">
    <g
       id="g91"
       transform="matrix(0.70389489,0,0,0.70389489,60,12.5)"
       style="fill:#999999">
      <rect
         class="cls-1"
         x="17.389999"
         width="50.459999"
         height="2.3900001"
         id="rect6-2"
         y="0"
         style="fill:#999999" />
      <path
         class="cls-1"
         d="M 19.46,48.81 V 3.67 H 65.78 V 48.81 H 58.9 V 28.72 c 0,-6.92 -7.29,-12.53 -16.28,-12.53 -8.99,0 -16.32,5.62 -16.32,12.53 v 20.09 z"
         id="path8-2"
         style="fill:#999999" />
      <polygon
         class="cls-1"
         points="85.24,8.02 67.83,8.02 67.83,6.37 67.83,5.54 85.24,5.54 "
         id="polygon10-3"
         style="fill:#999999" />
      <polygon
         class="cls-1"
         points="85.24,36.95 83.44,36 83.44,9.3 67.83,9.3 67.83,36 67.83,36.19 67.83,38.02 85.24,38.02 "
         id="polygon12-0"
         style="fill:#999999" />
      <path
         class="cls-1"
         d="M 84.3,39.28 H 67.83 v 9.53 H 84.3 Z"
         id="path14-2"
         style="fill:#999999" />
      <polygon
         class="cls-1"
         points="0,8.02 17.41,8.02 17.41,6.37 17.41,5.54 0,5.54 "
         id="polygon16-9"
         style="fill:#999999" />
      <polygon
         class="cls-1"
         points="1.8,9.3 1.8,36.02 0,36.95 0,38.02 17.41,38.02 17.41,36 17.41,9.3 "
         id="polygon18-1"
         style="fill:#999999" />
      <path
         class="cls-1"
         d="M 0.94,48.81 H 17.41 V 39.26 H 0.94 Z"
         id="path20-4"
         style="fill:#999999" />
    </g>
  </g>
</svg>
