<?xml version="1.0" encoding="UTF-8" standalone="no"?>
<svg
   xmlns:dc="http://purl.org/dc/elements/1.1/"
   xmlns:cc="http://creativecommons.org/ns#"
   xmlns:rdf="http://www.w3.org/1999/02/22-rdf-syntax-ns#"
   xmlns:svg="http://www.w3.org/2000/svg"
   xmlns="http://www.w3.org/2000/svg"
   xmlns:sodipodi="http://sodipodi.sourceforge.net/DTD/sodipodi-0.dtd"
   xmlns:inkscape="http://www.inkscape.org/namespaces/inkscape"
   id="Layer_1"
   data-name="Layer 1"
   viewBox="0 0 120 59.999999"
   version="1.1"
   sodipodi:docname="spriteFood.svg"
   width="120"
   height="60"
   inkscape:version="1.0.2-2 (e86c870879, 2021-01-15)">
  <metadata
     id="metadata11">
    <rdf:RDF>
      <cc:Work
         rdf:about="">
        <dc:format>image/svg+xml</dc:format>
        <dc:type
           rdf:resource="http://purl.org/dc/dcmitype/StillImage" />
        <dc:title />
      </cc:Work>
    </rdf:RDF>
  </metadata>
  <sodipodi:namedview
     pagecolor="#ffffff"
     bordercolor="#666666"
     borderopacity="1"
     objecttolerance="10"
     gridtolerance="10"
     guidetolerance="10"
     inkscape:pageopacity="0"
     inkscape:pageshadow="2"
     inkscape:window-width="1920"
     inkscape:window-height="986"
     id="namedview9"
     showgrid="false"
     inkscape:zoom="8.6573985"
     inkscape:cx="54.61788"
     inkscape:cy="25.773742"
     inkscape:window-x="-11"
     inkscape:window-y="-11"
     inkscape:window-maximized="1"
     inkscape:current-layer="Layer_1"
     inkscape:document-rotation="0" />
  <defs
     id="defs4">
    <style
       id="style2">.cls-1{fill:#fff;}</style>
  </defs>
  <g
     id="g14"
     transform="matrix(0.60723828,0,0,0.60723828,5,5)">
    <path
       class="cls-1"
       d="m 111.32,64.75 a 41.17,41.17 0 1 0 41.17,41.17 41.17,41.17 0 0 0 -41.17,-41.17 z M 99.26,137 c 0,0 -0.29,1.81 -3.88,2.1 -3.59,0.29 -3.61,-2 -3.61,-2 l 0.47,-11.5 0.42,-18.16 c 0,-0.5 0,-34.7 0,-34.7 a 5,5 0 0 1 5.39,3.87 C 99.19,81 100,103.11 98,107 l 1,18.33 c 0,0 0.44,7.16 0.26,11.67 z m 14.6,-35.32 0.73,23.72 0.55,11.69 c 0,0 0,2.29 -3.45,2 -3.45,-0.29 -3.76,-2.12 -3.76,-2.12 -0.21,-4.56 0.16,-11.8 0.16,-11.8 l 1,-23.39 a 8.34,8.34 0 0 1 -5.83,-10.44 c 0.62,-4 1.87,-9.6 1.87,-9.6 0.72,-2.2 4.38,-3 4.38,-3 3.56,-1.28 5.62,2.09 5.62,2.09 1.87,2.56 3.28,7.25 4,10 a 8.34,8.34 0 0 1 0.46,1.88 c 0,0.12 0,0.19 0,0.19 v 0 c 0,0.16 0,0.31 0,0.47 a 8.35,8.35 0 0 1 -5.73,8.29 z m 19.42,-11.07 v 0 c 0.32,2 -3.67,4.87 -3.67,4.87 h -0.07 l 0.72,30.13 0.46,11.5 c 0,0 0,2.25 -3.61,2 -3.61,-0.25 -3.88,-2.1 -3.88,-2.1 -0.18,-4.49 0.27,-11.61 0.27,-11.61 l 1.68,-30 c -4.16,-2.36 -4.11,-5 -4.11,-5 v -13.16 0 c 0,0 0,-0.06 0,-0.09 0,-0.76 0.39,-1.38 0.87,-1.38 0.48,0 0.86,0.62 0.86,1.38 v 0.09 0 11.3 a 0.72,0.72 0 0 0 0.74,0.59 1,1 0 0 0 0.81,-0.59 V 76.36 c 0,-0.76 0.39,-1.38 0.86,-1.38 0.47,0 0.87,0.62 0.87,1.38 v 0 11.71 a 1.28,1.28 0 0 0 1.09,0.53 1.88,1.88 0 0 0 0.79,-0.29 v -11.64 0 c 0,-0.76 0.39,-1.37 0.87,-1.37 0.48,0 0.86,0.61 0.86,1.37 v 12.08 a 1.14,1.14 0 0 0 0.89,0.37 2.06,2.06 0 0 0 1,-0.38 V 77.49 c 0,-0.76 0.38,-1.37 0.86,-1.37 0.48,0 0.87,0.61 0.87,1.37 z"
       transform="translate(-70.15,-64.75)"
       id="path6" />
  </g>
  <g
     id="g11"
     transform="matrix(0.83333333,0,0,0.83333333,15,5)">
    <path
       class="cls-1"
       d="M 90.000003,0 A 30,30 0 1 0 120,29.999999 30,30 0 0 0 90.000003,0 Z m -8.787954,52.647558 c 0,0 -0.211319,1.318921 -2.827302,1.53024 -2.615982,0.211319 -2.630556,-1.457372 -2.630556,-1.457372 l 0.342482,-8.379888 0.306048,-13.232936 c 0,-0.364343 0,-25.2854014 0,-25.2854014 a 3.6434297,3.6434297 0 0 1 3.927618,2.8200146 c 0.830702,3.1989308 1.420937,19.3101768 -0.03644,22.1447648 l 0.728686,13.356813 c 0,0 0.320622,5.217391 0.189459,8.503765 z m 10.638814,-25.737187 0.53194,17.28443 0.40078,8.518339 c 0,0 0,1.66869 -2.51397,1.457372 -2.51396,-0.211319 -2.73986,-1.544815 -2.73986,-1.544815 -0.15302,-3.322808 0.11659,-8.598494 0.11659,-8.598494 l 0.72869,-17.043964 a 6.0772407,6.0772407 0 0 1 -4.248241,-7.607481 c 0.451786,-2.914744 1.362643,-6.995384 1.362643,-6.995384 0.524654,-1.603109 3.191648,-2.186058 3.191648,-2.186058 2.59412,-0.9327177 4.09521,1.522954 4.09521,1.522954 1.36264,1.865436 2.39009,5.282972 2.91474,7.286858 a 6.0772407,6.0772407 0 0 1 0.3352,1.36993 c 0,0.08744 0,0.13845 0,0.13845 v 0 c 0,0.11659 0,0.225893 0,0.342482 a 6.0845276,6.0845276 0 0 1 -4.17537,6.040807 z m 14.151077,-8.066554 v 0 c 0.23318,1.457372 -2.67428,3.548701 -2.67428,3.548701 h -0.051 l 0.52466,21.955307 0.33519,8.379888 c 0,0 0,1.639544 -2.63055,1.457372 -2.630557,-0.182171 -2.827297,-1.53024 -2.827297,-1.53024 -0.13117,-3.2718 0.19674,-8.460044 0.19674,-8.460044 l 1.224187,-21.860578 c -3.031327,-1.719699 -2.994897,-3.64343 -2.994897,-3.64343 v -9.5895057 0 c 0,0 0,-0.043721 0,-0.065582 0,-0.5538013 0.28419,-1.0055866 0.63396,-1.0055866 0.34977,0 0.62667,0.4517853 0.62667,1.0055866 v 0.065582 0 8.2341497 a 0.52465387,0.52465387 0 0 0 0.53923,0.429925 0.72868594,0.72868594 0 0 0 0.59023,-0.429925 V 8.4600437 c 0,-0.5538013 0.28419,-1.0055866 0.626667,-1.0055866 0.34249,0 0.63396,0.4517853 0.63396,1.0055866 v 0 8.5329113 a 0.932718,0.932718 0 0 0 0.79427,0.386204 1.3699296,1.3699296 0 0 0 0.57566,-0.211319 v -8.4819036 0 c 0,-0.5538014 0.28419,-0.9982998 0.63396,-0.9982998 0.34977,0 0.62667,0.4444984 0.62667,0.9982998 v 8.8025246 a 0.83070197,0.83070197 0 0 0 0.64853,0.269614 1.501093,1.501093 0 0 0 0.72868,-0.2769 V 9.2834588 c 0,-0.5538013 0.2769,-0.9982997 0.62667,-0.9982997 0.34977,0 0.63396,0.4444984 0.63396,0.9982997 z"
       id="path6-5"
       style="fill:#939598;stroke-width:0.728686" />
  </g>
</svg>
